<svg width="258" height="230" viewBox="0 0 258 230" fill="none" xmlns="http://www.w3.org/2000/svg">
<rect width="258" height="230" fill="#176DAA"/>
<g clip-path="url(#clip0_19_33)">
<mask id="mask0_19_33" style="mask-type:luminance" maskUnits="userSpaceOnUse" x="30" y="40" width="198" height="160">
<path d="M228 40H30V199.797H228V40Z" fill="white"/>
</mask>
<g mask="url(#mask0_19_33)">
<path d="M59.2199 176.221V178.182L57.5647 176.947C57.3791 176.808 57.178 176.715 56.9924 176.669C56.8377 176.638 56.6366 176.623 56.3891 176.623C55.0588 176.623 54.0533 177.148 53.3882 178.213C52.8313 179.093 52.5528 180.251 52.5528 181.656C52.5528 183.061 52.8777 184.558 53.5428 185.392C54.2389 186.288 55.198 186.72 56.4355 186.674H56.8841C56.8841 186.658 57.673 186.596 57.673 186.596V184.311C57.673 184.049 57.6266 183.817 57.5183 183.617L57.0388 182.644H59.7922L59.3591 183.601C59.2353 183.848 59.1735 184.126 59.1735 184.435V186.998C58.1061 187.245 57.0233 187.384 55.9096 187.384C54.3317 187.384 53.0788 186.905 52.1816 185.948C51.2844 184.991 50.8358 183.632 50.8358 181.903C50.8358 180.174 51.3463 178.537 52.3517 177.487C53.3727 176.437 54.7803 175.912 56.6057 175.912C58.431 175.912 57.6421 175.928 57.9514 175.974C58.0752 175.99 58.2299 176.005 58.4619 176.036C58.663 176.067 58.926 176.129 59.2353 176.221H59.2199Z" fill="white" stroke="white" stroke-width="0.171899" stroke-miterlimit="10"/>
<path d="M68.0687 182.86H62.8558C62.8558 184.049 63.1342 184.929 63.7066 185.485C64.2789 186.04 65.0523 186.334 66.0423 186.334C67.0323 186.334 66.2434 186.334 66.3362 186.334L67.187 186.287L68.1152 186.133C67.682 186.519 67.187 186.812 66.6456 187.013C66.0733 187.229 65.5009 187.322 64.8977 187.322C63.7839 187.322 62.8867 186.936 62.2525 186.179C61.6492 185.469 61.3398 184.527 61.3398 183.4C61.3398 182.273 61.4327 182.335 61.6028 181.81C61.773 181.285 62.0205 180.837 62.3298 180.467C62.6392 180.096 63.0414 179.803 63.5209 179.571C64.0005 179.34 64.48 179.216 64.9595 179.216C65.9495 179.216 66.692 179.525 67.218 180.143C67.7903 180.837 68.0687 181.748 68.0687 182.891V182.86ZM66.3517 181.98C66.3517 181.285 66.2125 180.745 65.9495 180.359C65.702 180.004 65.3153 179.818 64.8048 179.818C64.2944 179.818 63.7684 180.034 63.4436 180.482C63.0723 180.976 62.8867 181.609 62.8867 182.397L66.3672 181.98H66.3517Z" fill="white" stroke="white" stroke-width="0.171899" stroke-miterlimit="10"/>
<path d="M73.3122 179.834C72.5387 179.834 71.9818 180.204 71.6415 180.946C71.3786 181.501 71.2393 182.196 71.2393 183.061C71.2393 183.925 71.3786 184.79 71.657 185.438C72.0282 186.334 72.6161 186.782 73.4359 186.782C74.2557 186.782 74.7662 186.411 75.1065 185.67C75.3695 185.114 75.5087 184.419 75.5087 183.555C75.5087 182.69 75.3695 181.856 75.0911 181.193C74.7043 180.297 74.1165 179.849 73.3276 179.849L73.3122 179.834ZM69.5842 183.292C69.5842 182.15 69.94 181.177 70.6361 180.405C71.3631 179.602 72.2912 179.185 73.4204 179.185C74.5497 179.185 75.4623 179.602 76.1584 180.421C76.8081 181.193 77.1484 182.165 77.1484 183.308C77.1484 184.45 76.8081 185.438 76.112 186.195C75.4004 186.982 74.4723 187.384 73.3122 187.384C72.152 187.384 71.3322 186.998 70.6361 186.226C69.94 185.454 69.5997 184.466 69.5997 183.277L69.5842 183.292Z" fill="white" stroke="white" stroke-width="0.171899" stroke-miterlimit="10"/>
<path d="M88.2085 179.463V181.27C87.9764 181.084 87.6207 180.837 87.1721 180.513C86.8472 180.282 86.6307 180.143 86.5224 180.081C86.2285 179.911 85.981 179.818 85.8108 179.818C85.5324 179.818 85.2694 179.926 85.0374 180.143C84.8054 180.359 84.6971 180.621 84.6971 180.945C84.6971 181.27 84.7899 181.409 84.96 181.64C85.223 181.887 85.5014 182.088 85.8263 182.258L86.971 182.86C87.4814 183.122 87.8527 183.385 88.0693 183.632C88.3632 183.956 88.5024 184.373 88.5024 184.867C88.5024 185.639 88.2394 186.241 87.7289 186.689C87.2185 187.137 86.4914 187.353 85.5479 187.353C84.6043 187.353 84.1402 187.229 83.3049 186.967V185.068C83.4132 185.145 83.7689 185.438 84.4032 185.917C84.6043 186.071 84.8363 186.241 85.0838 186.426C85.3932 186.612 85.6561 186.72 85.8572 186.72C86.1975 186.72 86.4914 186.596 86.7389 186.349C86.9864 186.102 87.1102 185.793 87.1102 185.454C87.1102 185.114 87.0329 184.929 86.8782 184.728C86.8008 184.62 86.6925 184.527 86.5688 184.419C86.4141 184.327 86.2439 184.234 86.0429 184.126L85.1611 183.694C84.5888 183.4 84.1557 183.076 83.8463 182.721C83.5524 182.35 83.4132 181.934 83.4132 181.486C83.4132 180.76 83.6916 180.173 84.2485 179.772C84.7435 179.401 85.3777 179.216 86.1357 179.216H86.5069C86.6616 179.216 86.8627 179.232 87.0947 179.278L88.2085 179.479V179.463Z" fill="white" stroke="white" stroke-width="0.171899" stroke-miterlimit="10"/>
<path d="M92.2154 179.124V184.697C92.2154 185.67 92.4165 186.473 92.8342 187.137H90.1736C90.2354 187.013 90.3437 186.828 90.4675 186.581C90.5293 186.442 90.5912 186.272 90.6531 186.056C90.7614 185.685 90.8078 185.222 90.8078 184.697V181.47C90.8078 181.146 90.7614 180.837 90.6531 180.559C90.5603 180.282 90.3747 179.957 90.1272 179.587L92.2154 179.139V179.124ZM91.4575 175.341C91.7204 175.341 91.937 175.434 92.1071 175.603C92.2773 175.773 92.3701 175.989 92.3701 176.252C92.3701 176.514 92.2928 176.777 92.1226 176.931C91.9834 177.086 91.7668 177.178 91.4575 177.178C91.1481 177.178 90.9625 177.101 90.8078 176.931C90.6531 176.761 90.5757 176.545 90.5757 176.267C90.5757 175.989 90.6531 175.804 90.8232 175.603C91.0089 175.434 91.2254 175.341 91.4575 175.341Z" fill="white" stroke="white" stroke-width="0.171899" stroke-miterlimit="10"/>
<path d="M99.9644 180.251L99.3302 180.05L98.6496 179.988C97.8297 179.988 97.1955 180.266 96.716 180.837C96.2519 181.409 96.0199 182.196 96.0199 183.215C96.0199 184.234 96.2674 185.006 96.7779 185.531C97.3193 186.102 98.0618 186.365 98.9744 186.318H99.3766C99.3766 186.303 99.9335 186.21 99.9335 186.21V180.251H99.9644ZM101.372 175.125V184.45C101.372 185.485 101.589 186.318 102.037 186.921L99.9644 187.368V186.365C99.4694 186.704 99.0363 186.967 98.6496 187.106C98.2474 187.26 97.8607 187.353 97.5204 187.353C96.6696 187.353 95.958 186.982 95.3702 186.257C94.7824 185.531 94.4885 184.62 94.4885 183.539C94.4885 182.459 94.8133 181.486 95.463 180.606C96.1746 179.664 97.0563 179.185 98.1082 179.185C99.16 179.185 99.4075 179.371 99.9644 179.726V177.919C99.9644 177.518 99.918 177.163 99.8097 176.87C99.7169 176.576 99.5004 176.159 99.16 175.619L101.357 175.109L101.372 175.125Z" fill="white" stroke="white" stroke-width="0.171899" stroke-miterlimit="10"/>
<path d="M110.407 182.86H105.194C105.194 184.049 105.472 184.929 106.045 185.485C106.617 186.04 107.39 186.334 108.396 186.334C109.401 186.334 108.597 186.334 108.69 186.334L109.541 186.287L110.469 186.133C110.036 186.519 109.541 186.812 108.999 187.013C108.427 187.229 107.854 187.322 107.251 187.322C106.137 187.322 105.24 186.936 104.606 186.179C104.003 185.469 103.693 184.527 103.693 183.4C103.693 182.273 103.786 182.335 103.956 181.81C104.126 181.285 104.374 180.837 104.683 180.467C104.993 180.096 105.395 179.803 105.874 179.571C106.354 179.34 106.834 179.216 107.313 179.216C108.303 179.216 109.046 179.525 109.571 180.143C110.144 180.837 110.422 181.748 110.422 182.891L110.407 182.86ZM108.69 181.98C108.69 181.285 108.551 180.745 108.288 180.359C108.04 180.004 107.653 179.818 107.143 179.818C106.632 179.818 106.106 180.034 105.782 180.482C105.41 180.976 105.225 181.609 105.225 182.397L108.705 181.98H108.69Z" fill="white" stroke="white" stroke-width="0.171899" stroke-miterlimit="10"/>
<path d="M114.026 179.124V180.05L114.985 179.602C115.294 179.463 115.526 179.386 115.681 179.355C116.006 179.247 116.346 179.185 116.687 179.185C117.367 179.185 117.893 179.463 118.264 180.035C118.62 179.865 119.177 179.649 119.92 179.371C120.353 179.247 120.724 179.185 121.049 179.185C121.884 179.185 122.472 179.463 122.797 180.035C123.06 180.482 123.199 181.146 123.199 182.042V184.79C123.199 185.685 123.4 186.473 123.818 187.121H121.173C121.358 186.812 121.513 186.457 121.621 186.056C121.714 185.716 121.776 185.253 121.776 184.682V182.52C121.776 181.609 121.606 180.992 121.265 180.668C120.894 180.312 120.275 180.143 119.378 180.174H118.899C118.759 180.189 118.574 180.204 118.342 180.22C118.465 180.405 118.527 180.621 118.543 180.853L118.605 182.042V184.682C118.605 185.639 118.821 186.457 119.239 187.121H116.578C116.996 186.426 117.197 185.608 117.197 184.682V182.52C117.197 181.671 117.027 181.069 116.702 180.714C116.346 180.328 115.774 180.158 114.97 180.189H114.552C114.552 180.204 114.026 180.235 114.026 180.235V184.697C114.026 185.655 114.243 186.473 114.66 187.137H112C112.417 186.442 112.618 185.624 112.618 184.697V181.47C112.618 180.853 112.402 180.235 111.953 179.587L114.026 179.139V179.124Z" fill="white" stroke="white" stroke-width="0.171899" stroke-miterlimit="10"/>
<path d="M128.97 179.834C128.197 179.834 127.64 180.204 127.3 180.946C127.037 181.501 126.897 182.196 126.897 183.061C126.897 183.925 127.037 184.79 127.315 185.438C127.686 186.334 128.274 186.782 129.094 186.782C129.914 186.782 130.424 186.411 130.765 185.67C131.028 185.114 131.167 184.419 131.167 183.555C131.167 182.69 131.027 181.856 130.749 181.193C130.362 180.297 129.775 179.849 128.986 179.849L128.97 179.834ZM125.242 183.292C125.242 182.15 125.598 181.177 126.294 180.405C127.021 179.602 127.949 179.185 129.078 179.185C130.208 179.185 131.12 179.602 131.816 180.421C132.466 181.193 132.806 182.165 132.806 183.308C132.806 184.45 132.466 185.438 131.77 186.195C131.058 186.982 130.13 187.384 128.97 187.384C127.81 187.384 126.99 186.998 126.294 186.226C125.598 185.454 125.258 184.466 125.258 183.277L125.242 183.292Z" fill="white" stroke="white" stroke-width="0.171899" stroke-miterlimit="10"/>
<path d="M136.317 179.124V183.786C136.317 184.805 136.471 185.454 136.765 185.763C137.09 186.087 137.647 186.241 138.436 186.21H138.962C138.962 186.195 139.689 186.133 139.689 186.133V181.44C139.689 181.115 139.643 180.807 139.534 180.529C139.441 180.251 139.256 179.927 139.008 179.556L141.112 179.108V184.975C141.112 185.269 141.174 185.577 141.282 185.886C141.406 186.195 141.561 186.519 141.793 186.828L139.689 187.307V186.272C139.055 186.627 138.529 186.874 138.111 187.013C137.663 187.168 137.245 187.245 136.889 187.245C136.178 187.245 135.667 187.044 135.358 186.643C135.048 186.241 134.909 185.562 134.909 184.62V181.455C134.909 181.131 134.863 180.822 134.754 180.544C134.662 180.266 134.476 179.942 134.229 179.571L136.317 179.124Z" fill="white" stroke="white" stroke-width="0.171899" stroke-miterlimit="10"/>
<path d="M145.413 179.124V180.05C145.722 179.911 146.078 179.772 146.48 179.618C146.743 179.525 147.006 179.432 147.238 179.355C147.609 179.247 147.965 179.185 148.275 179.185C149.574 179.185 150.208 180.143 150.208 182.042V184.682C150.208 185.639 150.425 186.457 150.842 187.121H148.182C148.599 186.411 148.816 185.593 148.816 184.682V182.52C148.816 181.64 148.646 181.038 148.305 180.698C147.934 180.328 147.315 180.158 146.449 180.189H145.939C145.815 180.204 145.645 180.22 145.428 180.235V184.79C145.428 185.685 145.629 186.473 146.047 187.121H143.402C143.587 186.828 143.742 186.473 143.866 186.056C143.959 185.716 144.021 185.253 144.021 184.682V181.455C144.021 180.822 143.804 180.189 143.355 179.571L145.444 179.124H145.413Z" fill="white" stroke="white" stroke-width="0.171899" stroke-miterlimit="10"/>
<path d="M154.368 177.055V179.293H156.967V180.05H154.368V184.651C154.368 185.346 154.492 185.809 154.724 186.04C155.018 186.257 155.498 186.349 156.178 186.334H156.72C156.72 186.318 157.354 186.241 157.354 186.241C156.936 186.565 156.503 186.843 156.039 187.059C155.498 187.245 155.064 187.337 154.724 187.337C154.059 187.337 153.579 187.167 153.317 186.812C153.054 186.488 152.93 185.824 152.93 184.867V180.065H151.569C152.744 179.077 153.672 178.089 154.353 177.07L154.368 177.055Z" fill="white" stroke="white" stroke-width="0.171899" stroke-miterlimit="10"/>
<path d="M167.966 180.251L167.332 180.05L166.651 179.988C165.831 179.988 165.197 180.266 164.718 180.837C164.254 181.409 164.022 182.196 164.022 183.215C164.022 184.234 164.269 185.006 164.78 185.531C165.321 186.102 166.064 186.365 166.976 186.318H167.378C167.378 186.303 167.935 186.21 167.935 186.21V180.251H167.966ZM169.374 175.125V184.45C169.374 185.485 169.59 186.318 170.039 186.92L167.966 187.368V186.365C167.471 186.704 167.038 186.967 166.651 187.106C166.249 187.26 165.862 187.353 165.522 187.353C164.671 187.353 163.96 186.982 163.372 186.257C162.784 185.531 162.49 184.62 162.49 183.539C162.49 182.459 162.815 181.486 163.465 180.606C164.176 179.664 165.058 179.185 166.11 179.185C167.162 179.185 167.409 179.371 167.966 179.726V177.919C167.966 177.518 167.92 177.163 167.811 176.869C167.719 176.576 167.502 176.159 167.162 175.619L169.358 175.109L169.374 175.125Z" fill="white" stroke="white" stroke-width="0.171899" stroke-miterlimit="10"/>
<path d="M173.782 179.124V184.697C173.782 185.67 173.983 186.473 174.401 187.137H171.74C171.802 187.013 171.91 186.828 172.034 186.581C172.096 186.442 172.158 186.272 172.219 186.056C172.328 185.685 172.374 185.222 172.374 184.697V181.47C172.374 181.146 172.328 180.837 172.219 180.559C172.127 180.282 171.941 179.957 171.694 179.587L173.782 179.139V179.124ZM173.024 175.341C173.287 175.341 173.503 175.434 173.674 175.603C173.844 175.773 173.937 175.989 173.937 176.252C173.937 176.514 173.859 176.777 173.689 176.931C173.55 177.086 173.333 177.178 173.024 177.178C172.714 177.178 172.529 177.101 172.374 176.931C172.219 176.761 172.142 176.545 172.142 176.267C172.142 175.989 172.219 175.804 172.39 175.603C172.575 175.434 172.792 175.341 173.024 175.341Z" fill="white" stroke="white" stroke-width="0.171899" stroke-miterlimit="10"/>
<path d="M174.988 179.294H178.02L177.973 179.371C177.71 179.818 177.571 180.112 177.571 180.235L177.602 180.529L177.695 180.899L179.366 185.855L180.959 180.451L180.99 180.127C180.99 180.019 180.959 179.911 180.897 179.772L180.572 179.278H182.939C182.444 179.726 182.011 180.421 181.64 181.393L179.428 187.198H178.438L176.396 181.625C176.071 180.637 175.591 179.849 174.973 179.278L174.988 179.294Z" fill="white" stroke="white" stroke-width="0.171899" stroke-miterlimit="10"/>
<path d="M185.709 179.124V184.697C185.709 185.67 185.91 186.473 186.328 187.137H183.668C183.729 187.013 183.838 186.828 183.961 186.581C184.023 186.442 184.085 186.272 184.147 186.056C184.255 185.685 184.302 185.222 184.302 184.697V181.47C184.302 181.146 184.255 180.837 184.147 180.559C184.054 180.282 183.869 179.957 183.621 179.587L185.709 179.139V179.124ZM184.951 175.341C185.214 175.341 185.431 175.434 185.601 175.603C185.771 175.773 185.864 175.989 185.864 176.252C185.864 176.514 185.787 176.777 185.617 176.931C185.493 177.086 185.261 177.178 184.951 177.178C184.642 177.178 184.456 177.101 184.302 176.931C184.147 176.761 184.07 176.545 184.07 176.267C184.07 175.989 184.147 175.804 184.317 175.603C184.503 175.434 184.719 175.341 184.951 175.341Z" fill="white" stroke="white" stroke-width="0.171899" stroke-miterlimit="10"/>
<path d="M190.055 179.124V180.05C190.365 179.911 190.721 179.772 191.123 179.618C191.386 179.525 191.649 179.432 191.881 179.355C192.252 179.247 192.608 179.185 192.917 179.185C194.216 179.185 194.851 180.143 194.851 182.042V184.682C194.851 185.639 195.052 186.457 195.485 187.121H192.824C193.242 186.411 193.459 185.593 193.459 184.682V182.52C193.459 181.64 193.288 181.038 192.948 180.698C192.577 180.328 191.958 180.158 191.092 180.189H190.581C190.458 180.204 190.287 180.22 190.071 180.235V184.79C190.071 185.685 190.272 186.473 190.69 187.121H188.044C188.23 186.828 188.385 186.473 188.509 186.056C188.601 185.716 188.663 185.253 188.663 184.682V181.455C188.663 180.822 188.447 180.189 187.998 179.571L190.086 179.124H190.055Z" fill="white" stroke="white" stroke-width="0.171899" stroke-miterlimit="10"/>
<path d="M198.578 187.029C198.454 187.183 198.361 187.307 198.315 187.384C198.268 187.461 198.206 187.584 198.144 187.723C198.036 187.97 197.99 188.187 197.99 188.372C197.99 188.881 198.237 189.267 198.748 189.53C199.15 189.746 199.629 189.839 200.186 189.839C200.743 189.839 201.377 189.7 201.888 189.437C202.522 189.098 202.831 188.65 202.831 188.094C202.831 187.538 202.677 187.399 202.352 187.26C202.151 187.168 201.795 187.121 201.3 187.121H199.057C199.057 187.106 198.608 187.013 198.608 187.013L198.578 187.029ZM200.001 179.772C199.073 179.772 198.608 180.359 198.608 181.517C198.608 182.675 198.732 182.536 198.98 182.953C199.274 183.447 199.676 183.694 200.171 183.694C200.666 183.694 200.929 183.508 201.192 183.153C201.408 182.829 201.517 182.443 201.517 182.011C201.517 181.579 201.408 180.961 201.192 180.544C200.913 180.035 200.527 179.772 200.001 179.772ZM204.316 179.185V180.405L202.043 179.88C202.46 180.22 202.739 180.668 202.862 181.208C202.909 181.378 202.924 181.548 202.924 181.733C202.924 182.505 202.646 183.123 202.104 183.586C201.594 184.033 200.929 184.25 200.155 184.25H199.8L199.366 184.188L199.212 184.589L199.165 184.898C199.165 185.191 199.258 185.392 199.428 185.531C199.598 185.655 199.923 185.716 200.403 185.716H201.872C202.553 185.716 203.033 185.824 203.342 186.025C203.698 186.272 203.883 186.72 203.883 187.353C203.883 187.986 203.79 188.171 203.589 188.588C203.218 189.375 202.491 189.962 201.408 190.333C200.882 190.518 200.341 190.611 199.8 190.611C199.258 190.611 198.423 190.487 197.789 190.225C196.969 189.885 196.567 189.422 196.567 188.804C196.567 188.187 196.675 188.248 196.891 188.017C197.123 187.785 197.603 187.415 198.361 186.905C197.881 186.72 197.649 186.396 197.649 185.932C197.649 185.469 198.175 184.836 199.212 184.172C198.562 184.064 198.067 183.802 197.696 183.4C197.309 182.984 197.123 182.459 197.123 181.81C197.123 181.162 197.417 180.359 197.99 179.865C198.531 179.402 199.227 179.185 200.047 179.185C200.867 179.185 201.238 179.371 201.795 179.726L204.285 179.185H204.316Z" fill="white" stroke="white" stroke-width="0.171899" stroke-miterlimit="10"/>
<path d="M94.8443 191.707C94.9216 191.707 94.9525 191.753 94.9525 191.815C94.9525 191.877 94.9371 191.969 94.8907 192.031L91.9516 197.188H93.514C94.3802 197.188 94.6122 197.018 94.8597 196.647C94.9216 196.555 94.9371 196.539 95.0144 196.539H95.0454C95.1227 196.539 95.1382 196.57 95.1072 196.694L94.968 197.28C94.9216 197.466 94.8752 197.481 94.6432 197.481H91.1318C91.0544 197.481 91.008 197.435 91.008 197.342C91.008 197.249 91.0389 197.203 91.0699 197.157L94.0708 191.985H92.7405C91.8279 191.985 91.6268 192.154 91.4257 192.51C91.3793 192.587 91.3638 192.618 91.2865 192.618H91.2555C91.1782 192.618 91.1627 192.587 91.1782 192.463L91.271 191.892C91.3019 191.707 91.3483 191.691 91.5804 191.691H94.8443V191.707Z" fill="white" stroke="white" stroke-width="0.171899" stroke-miterlimit="10"/>
<path d="M97.4902 193.173C98.5884 193.173 98.9906 193.884 98.9906 194.918C98.9906 195.953 98.9442 195.366 98.8205 195.366H96.5466C96.5466 196.802 97.0106 197.249 97.8769 197.249C98.7431 197.249 98.5111 197.172 98.7895 197.033C98.8514 197.002 98.8978 197.002 98.9288 197.064L98.9597 197.141C98.9906 197.203 98.9752 197.234 98.9133 197.28C98.6039 197.466 98.1708 197.589 97.6913 197.589C96.5002 197.589 95.7422 196.817 95.7422 195.397C95.7422 193.976 96.3455 193.173 97.4747 193.173H97.4902ZM97.4902 193.451C96.9642 193.451 96.6084 193.945 96.562 195.057H97.9542C98.2327 195.057 98.2636 194.98 98.2636 194.717C98.2636 193.915 97.9852 193.467 97.4902 193.467V193.451Z" fill="white" stroke="white" stroke-width="0.171899" stroke-miterlimit="10"/>
<path d="M105.347 197.527H104.698C104.559 197.527 104.559 197.481 104.59 197.342C104.636 197.111 104.651 196.956 104.651 196.03V194.764C104.651 193.992 104.497 193.59 104.048 193.59C103.6 193.59 103.12 194.208 103.089 195.273V196.169C103.089 196.972 103.12 197.141 103.151 197.358C103.182 197.497 103.166 197.543 103.043 197.543H102.393C102.254 197.543 102.254 197.497 102.285 197.358C102.331 197.172 102.347 197.033 102.347 196.478V194.671C102.331 194.007 102.176 193.59 101.743 193.59C101.31 193.59 100.784 194.239 100.784 195.35V196.03C100.784 196.956 100.815 197.111 100.846 197.342C100.877 197.481 100.862 197.527 100.738 197.527H100.088C99.9489 197.527 99.9334 197.481 99.9798 197.342C100.011 197.141 100.042 197.003 100.042 196.4V194.609C100.042 194.146 99.9798 193.606 99.9334 193.405C99.9025 193.313 99.9334 193.251 100.042 193.251H100.212C100.645 193.251 100.784 193.39 100.8 194.131C101.016 193.482 101.48 193.158 102.006 193.158C102.532 193.158 102.965 193.482 103.074 194.208C103.259 193.513 103.723 193.158 104.296 193.158C104.868 193.158 105.409 193.621 105.409 194.733V196.122C105.409 196.925 105.44 197.095 105.487 197.311C105.518 197.45 105.487 197.497 105.378 197.497L105.347 197.527Z" fill="white" stroke="white" stroke-width="0.171899" stroke-miterlimit="10"/>
<path d="M108.999 193.251H109.695C109.819 193.251 109.834 193.281 109.819 193.405C109.772 193.652 109.772 194.1 109.772 194.609V196.447C109.772 197.11 109.896 197.388 109.896 197.45C109.896 197.512 109.865 197.543 109.772 197.543H109.664C109.293 197.543 109.092 197.311 109.03 196.74C108.829 197.234 108.426 197.574 107.854 197.574C107.282 197.574 106.617 197.157 106.617 196.169V194.702C106.617 194.177 106.555 193.606 106.493 193.405C106.462 193.312 106.477 193.251 106.586 193.251H107.282C107.39 193.251 107.421 193.281 107.39 193.405C107.344 193.652 107.344 194.1 107.344 194.609V196.091C107.344 196.755 107.529 197.188 107.993 197.188C108.457 197.188 108.349 197.141 108.504 197.002C108.798 196.74 109.014 196.215 109.014 195.119V194.609C109.014 194.1 108.952 193.59 108.89 193.405C108.859 193.312 108.875 193.251 108.983 193.251H108.999ZM109.045 192.726H107.297C107.22 192.726 107.158 192.679 107.158 192.587V192.479C107.158 192.386 107.204 192.34 107.282 192.34H109.03C109.107 192.34 109.169 192.371 109.169 192.463V192.571C109.169 192.664 109.122 192.71 109.03 192.71L109.045 192.726Z" fill="white" stroke="white" stroke-width="0.171899" stroke-miterlimit="10"/>
<path d="M114.242 196.478C114.242 197.126 114.366 197.388 114.366 197.45C114.366 197.512 114.32 197.543 114.242 197.543H114.134C113.763 197.543 113.546 197.311 113.5 196.709C113.423 196.91 113.314 197.064 113.191 197.203C112.943 197.435 112.665 197.574 112.278 197.574C111.458 197.574 110.793 196.987 110.793 195.567C110.793 194.146 111.474 193.174 112.603 193.174C113.732 193.174 113.283 193.328 113.485 193.513V192.741C113.485 192.201 113.438 191.722 113.392 191.537C113.361 191.444 113.392 191.383 113.5 191.383H114.041C114.196 191.383 114.242 191.444 114.242 191.63V196.478ZM112.495 197.188C113.098 197.188 113.438 196.663 113.5 195.443V193.93C113.33 193.683 113.051 193.529 112.696 193.529C111.938 193.529 111.613 194.409 111.613 195.567C111.613 196.725 111.876 197.188 112.479 197.188H112.495Z" fill="white" stroke="white" stroke-width="0.171899" stroke-miterlimit="10"/>
<path d="M117.027 193.173C118.126 193.173 118.528 193.884 118.528 194.918C118.528 195.953 118.481 195.366 118.358 195.366H116.084C116.084 196.802 116.548 197.249 117.414 197.249C118.28 197.249 118.048 197.172 118.327 197.033C118.389 197.002 118.435 197.002 118.466 197.064L118.497 197.141C118.528 197.203 118.512 197.234 118.45 197.28C118.141 197.466 117.708 197.589 117.228 197.589C116.037 197.589 115.279 196.817 115.279 195.397C115.279 193.976 115.883 193.173 117.012 193.173H117.027ZM117.027 193.451C116.501 193.451 116.146 193.945 116.099 195.057H117.491C117.77 195.057 117.801 194.98 117.801 194.717C117.801 193.915 117.522 193.467 117.027 193.467V193.451Z" fill="white" stroke="white" stroke-width="0.171899" stroke-miterlimit="10"/>
<path d="M122.688 197.527H122.038C121.914 197.527 121.899 197.481 121.93 197.342C121.976 197.126 121.992 196.956 121.992 196.138V194.856C121.992 194.023 121.806 193.59 121.358 193.59C120.615 193.59 120.321 194.548 120.321 195.69V196.03C120.321 196.956 120.352 197.111 120.383 197.342C120.414 197.481 120.398 197.527 120.275 197.527H119.625C119.486 197.527 119.47 197.481 119.517 197.342C119.563 197.111 119.579 196.956 119.579 196.03V194.563C119.579 194.115 119.517 193.59 119.47 193.421C119.439 193.328 119.47 193.266 119.579 193.266H119.749C120.197 193.266 120.321 193.421 120.337 194.177C120.538 193.621 120.94 193.189 121.621 193.189C122.301 193.189 122.765 193.668 122.765 194.795V196.153C122.765 196.972 122.781 197.141 122.827 197.358C122.858 197.497 122.843 197.543 122.719 197.543L122.688 197.527Z" fill="white" stroke="white" stroke-width="0.171899" stroke-miterlimit="10"/>
<path d="M125.132 197.234C125.643 197.234 125.906 196.971 125.906 196.555C125.906 195.397 123.771 195.922 123.771 194.393C123.771 192.865 124.281 193.173 125.148 193.173C126.014 193.173 126.184 193.42 126.339 193.575C126.401 193.637 126.416 193.683 126.385 193.776L126.231 194.27C126.215 194.316 126.2 194.331 126.153 194.331H126.107C126.06 194.331 126.029 194.3 126.029 194.254C125.921 193.791 125.596 193.482 125.086 193.482C124.575 193.482 124.39 193.776 124.39 194.131C124.39 195.227 126.509 194.686 126.509 196.323C126.509 197.96 126.014 197.574 125.101 197.574C124.189 197.574 124.019 197.373 123.848 197.234C123.771 197.172 123.756 197.11 123.771 197.033L123.926 196.447C123.941 196.369 123.957 196.369 124.019 196.369H124.065C124.111 196.369 124.142 196.369 124.173 196.477C124.297 197.018 124.684 197.234 125.163 197.234H125.132Z" fill="white" stroke="white" stroke-width="0.171899" stroke-miterlimit="10"/>
<path d="M129.882 199.519H129.232C129.093 199.519 129.078 199.473 129.124 199.334C129.171 199.102 129.186 198.948 129.186 198.021V194.702C129.186 194.223 129.14 193.606 129.078 193.405C129.047 193.312 129.078 193.251 129.186 193.251H129.356C129.805 193.251 129.944 193.405 129.944 194.193V194.254C130.068 193.698 130.501 193.158 131.212 193.158C131.924 193.158 132.605 193.76 132.605 195.32C132.605 196.879 131.862 197.558 130.748 197.605C130.408 197.605 130.13 197.527 129.929 197.419V198.021C129.929 198.948 129.959 199.102 129.99 199.334C130.021 199.473 130.006 199.519 129.882 199.519ZM130.965 193.59C130.439 193.59 129.99 194.146 129.929 195.52V196.987C130.145 197.172 130.439 197.25 130.687 197.25C131.336 197.25 131.8 196.786 131.8 195.366C131.8 193.945 131.444 193.59 130.949 193.59H130.965Z" fill="white" stroke="white" stroke-width="0.171899" stroke-miterlimit="10"/>
<path d="M135.172 193.173C136.27 193.173 136.672 193.884 136.672 194.918C136.672 195.953 136.626 195.366 136.502 195.366H134.228C134.228 196.802 134.692 197.249 135.559 197.249C136.425 197.249 136.193 197.172 136.471 197.033C136.533 197.002 136.58 197.002 136.611 197.064L136.642 197.141C136.672 197.203 136.657 197.234 136.595 197.28C136.286 197.466 135.853 197.589 135.373 197.589C134.182 197.589 133.424 196.817 133.424 195.397C133.424 193.976 134.027 193.173 135.157 193.173H135.172ZM135.172 193.451C134.646 193.451 134.29 193.945 134.244 195.057H135.636C135.914 195.057 135.945 194.98 135.945 194.717C135.945 193.915 135.667 193.467 135.172 193.467V193.451Z" fill="white" stroke="white" stroke-width="0.171899" stroke-miterlimit="10"/>
<path d="M138.406 197.527H137.756C137.632 197.527 137.601 197.481 137.648 197.342C137.694 197.111 137.71 196.956 137.71 196.03V192.757C137.71 192.216 137.663 191.738 137.617 191.552C137.586 191.46 137.617 191.398 137.725 191.398H138.267C138.421 191.398 138.468 191.46 138.468 191.645V196.061C138.468 196.956 138.499 197.126 138.529 197.342C138.56 197.481 138.545 197.527 138.421 197.527H138.406Z" fill="white" stroke="white" stroke-width="0.171899" stroke-miterlimit="10"/>
<path d="M142.922 196.478C142.922 197.126 143.046 197.388 143.046 197.45C143.046 197.512 142.999 197.543 142.922 197.543H142.814C142.443 197.543 142.226 197.311 142.18 196.709C142.102 196.91 141.994 197.064 141.87 197.203C141.623 197.435 141.344 197.574 140.958 197.574C140.138 197.574 139.473 196.987 139.473 195.567C139.473 194.146 140.153 193.174 141.282 193.174C142.412 193.174 141.963 193.328 142.164 193.513V192.741C142.164 192.201 142.118 191.722 142.071 191.537C142.04 191.444 142.071 191.383 142.18 191.383H142.721C142.876 191.383 142.922 191.444 142.922 191.63V196.478ZM141.174 197.188C141.777 197.188 142.118 196.663 142.18 195.443V193.93C142.009 193.683 141.731 193.529 141.375 193.529C140.617 193.529 140.292 194.409 140.292 195.567C140.292 196.725 140.555 197.188 141.159 197.188H141.174Z" fill="white" stroke="white" stroke-width="0.171899" stroke-miterlimit="10"/>
<path d="M145.707 193.173C146.805 193.173 147.207 193.884 147.207 194.918C147.207 195.953 147.161 195.366 147.037 195.366H144.763C144.763 196.802 145.227 197.249 146.094 197.249C146.96 197.249 146.728 197.172 147.006 197.033C147.068 197.002 147.115 197.002 147.146 197.064L147.176 197.141C147.207 197.203 147.192 197.234 147.13 197.28C146.821 197.466 146.388 197.589 145.908 197.589C144.717 197.589 143.959 196.817 143.959 195.397C143.959 193.976 144.562 193.173 145.691 193.173H145.707ZM145.707 193.451C145.181 193.451 144.825 193.945 144.779 195.057H146.171C146.449 195.057 146.48 194.98 146.48 194.717C146.48 193.915 146.202 193.467 145.707 193.467V193.451ZM146.573 192.726H144.825C144.748 192.726 144.686 192.679 144.686 192.587V192.479C144.686 192.386 144.732 192.34 144.81 192.34H146.558C146.635 192.34 146.697 192.371 146.697 192.463V192.571C146.697 192.664 146.651 192.71 146.558 192.71L146.573 192.726Z" fill="white" stroke="white" stroke-width="0.171899" stroke-miterlimit="10"/>
<path d="M149.388 197.234C149.898 197.234 150.161 196.972 150.161 196.555C150.161 195.397 148.027 195.922 148.027 194.393C148.027 192.865 148.537 193.174 149.403 193.174C150.27 193.174 150.44 193.421 150.579 193.575C150.641 193.637 150.656 193.683 150.625 193.776L150.471 194.27C150.455 194.316 150.44 194.331 150.393 194.331H150.347C150.3 194.331 150.27 194.301 150.27 194.254C150.161 193.791 149.836 193.482 149.326 193.482C148.815 193.482 148.63 193.776 148.63 194.131C148.63 195.227 150.749 194.687 150.749 196.323C150.749 197.96 150.254 197.574 149.341 197.574C148.429 197.574 148.259 197.373 148.088 197.234C148.011 197.172 147.996 197.111 148.011 197.033L148.166 196.447C148.181 196.369 148.197 196.369 148.259 196.369H148.305C148.351 196.369 148.382 196.369 148.413 196.478C148.537 197.018 148.924 197.234 149.403 197.234H149.388ZM149.372 192.71C149.326 192.71 149.28 192.679 149.202 192.602L148.274 191.707C148.212 191.66 148.305 191.491 148.382 191.522L149.372 192.046L150.347 191.522C150.44 191.475 150.533 191.63 150.455 191.707L149.543 192.602C149.465 192.679 149.403 192.71 149.372 192.71Z" fill="white" stroke="white" stroke-width="0.171899" stroke-miterlimit="10"/>
<path d="M154.663 197.543H154.555C154.23 197.543 154.013 197.358 153.936 196.879C153.75 197.296 153.379 197.574 152.73 197.574C152.08 197.574 151.477 197.25 151.477 196.447C151.477 195.644 152.188 195.134 153.565 195.134H153.905V194.872C153.905 193.868 153.565 193.529 152.992 193.529C152.42 193.529 152.219 193.791 152.064 194.162C152.018 194.254 152.003 194.27 151.956 194.27H151.894C151.863 194.27 151.848 194.239 151.817 194.162L151.755 193.714C151.724 193.621 151.74 193.56 151.832 193.498C151.956 193.405 152.436 193.189 153.023 193.189C154.029 193.189 154.663 193.745 154.663 195.026V196.447C154.663 197.111 154.771 197.388 154.771 197.45C154.771 197.512 154.74 197.543 154.663 197.543ZM152.25 196.4C152.25 196.956 152.513 197.219 152.931 197.219C153.565 197.219 153.905 196.647 153.921 196.061V195.428H153.596C152.59 195.428 152.25 195.767 152.25 196.416V196.4Z" fill="white" stroke="white" stroke-width="0.171899" stroke-miterlimit="10"/>
<path d="M159.01 197.527H158.36C158.237 197.527 158.221 197.481 158.252 197.342C158.299 197.126 158.314 196.956 158.314 196.138V194.856C158.314 194.023 158.128 193.59 157.68 193.59C156.937 193.59 156.643 194.548 156.643 195.69V196.03C156.643 196.956 156.674 197.111 156.705 197.342C156.736 197.481 156.721 197.527 156.597 197.527H155.947C155.808 197.527 155.793 197.481 155.839 197.342C155.885 197.111 155.901 196.956 155.901 196.03V194.563C155.901 194.115 155.839 193.59 155.793 193.421C155.762 193.328 155.793 193.266 155.901 193.266H156.071C156.52 193.266 156.643 193.421 156.659 194.177C156.86 193.621 157.262 193.189 157.943 193.189C158.623 193.189 159.087 193.668 159.087 194.795V196.153C159.087 196.972 159.103 197.141 159.149 197.358C159.18 197.497 159.165 197.543 159.041 197.543L159.01 197.527Z" fill="white" stroke="white" stroke-width="0.171899" stroke-miterlimit="10"/>
<path d="M163.187 197.543H163.078C162.753 197.543 162.537 197.358 162.46 196.879C162.274 197.296 161.903 197.574 161.253 197.574C160.603 197.574 160 197.25 160 196.447C160 195.644 160.712 195.134 162.088 195.134H162.429V194.872C162.429 193.868 162.088 193.529 161.516 193.529C160.944 193.529 160.742 193.791 160.588 194.162C160.541 194.254 160.526 194.27 160.48 194.27H160.418C160.387 194.27 160.371 194.239 160.34 194.162L160.278 193.714C160.247 193.621 160.263 193.56 160.356 193.498C160.48 193.405 160.959 193.189 161.531 193.189C162.537 193.189 163.171 193.745 163.171 195.026V196.447C163.171 197.111 163.279 197.388 163.279 197.45C163.279 197.512 163.248 197.543 163.171 197.543H163.187ZM160.758 196.4C160.758 196.956 161.021 197.219 161.439 197.219C162.073 197.219 162.413 196.647 162.429 196.061V195.428H162.104C161.098 195.428 160.758 195.767 160.758 196.416V196.4Z" fill="white" stroke="white" stroke-width="0.171899" stroke-miterlimit="10"/>
<path d="M59.2199 176.221V178.182L57.5647 176.947C57.3791 176.808 57.178 176.715 56.9924 176.669C56.8377 176.638 56.6366 176.623 56.3891 176.623C55.0588 176.623 54.0533 177.148 53.3882 178.213C52.8313 179.093 52.5528 180.251 52.5528 181.656C52.5528 183.061 52.8777 184.558 53.5428 185.392C54.2389 186.288 55.198 186.72 56.4355 186.674H56.8841C56.8841 186.658 57.673 186.596 57.673 186.596V184.311C57.673 184.049 57.6266 183.817 57.5183 183.617L57.0388 182.644H59.7922L59.3591 183.601C59.2353 183.848 59.1735 184.126 59.1735 184.435V186.998C58.1061 187.245 57.0233 187.384 55.9096 187.384C54.3317 187.384 53.0788 186.905 52.1816 185.948C51.2844 184.991 50.8358 183.632 50.8358 181.903C50.8358 180.174 51.3463 178.537 52.3517 177.487C53.3727 176.437 54.7803 175.912 56.6057 175.912C58.431 175.912 57.6421 175.928 57.9514 175.974C58.0752 175.99 58.2299 176.005 58.4619 176.036C58.663 176.067 58.926 176.129 59.2353 176.221H59.2199Z" fill="white" stroke="white" stroke-width="0.171899"/>
<path d="M68.0687 182.86H62.8558C62.8558 184.049 63.1342 184.929 63.7066 185.485C64.2789 186.04 65.0523 186.334 66.0423 186.334C67.0323 186.334 66.2434 186.334 66.3362 186.334L67.187 186.287L68.1151 186.133C67.682 186.519 67.187 186.812 66.6456 187.013C66.0733 187.229 65.5009 187.322 64.8976 187.322C63.7839 187.322 62.8867 186.936 62.2525 186.179C61.6492 185.469 61.3398 184.527 61.3398 183.4C61.3398 182.273 61.4326 182.335 61.6028 181.81C61.773 181.285 62.0205 180.837 62.3298 180.467C62.6392 180.096 63.0414 179.803 63.5209 179.571C64.0005 179.34 64.48 179.216 64.9595 179.216C65.9495 179.216 66.692 179.525 67.218 180.143C67.7903 180.837 68.0687 181.748 68.0687 182.891V182.86ZM66.3517 181.98C66.3517 181.285 66.2125 180.745 65.9495 180.359C65.702 180.004 65.3153 179.818 64.8048 179.818C64.2944 179.818 63.7684 180.034 63.4436 180.482C63.0723 180.976 62.8867 181.609 62.8867 182.397L66.3672 181.98H66.3517Z" fill="white" stroke="white" stroke-width="0.171899"/>
<path d="M73.3122 179.834C72.5388 179.834 71.9819 180.205 71.6416 180.946C71.3786 181.501 71.2394 182.196 71.2394 183.061C71.2394 183.925 71.3786 184.79 71.657 185.438C72.0283 186.334 72.6161 186.782 73.436 186.782C74.2558 186.782 74.7663 186.411 75.1066 185.67C75.3696 185.114 75.5088 184.419 75.5088 183.555C75.5088 182.69 75.3695 181.857 75.0911 181.193C74.7044 180.297 74.1166 179.849 73.3277 179.849L73.3122 179.834ZM69.5842 183.292C69.5842 182.15 69.94 181.177 70.6361 180.405C71.3631 179.602 72.2913 179.186 73.4205 179.186C74.5497 179.186 75.4624 179.602 76.1585 180.421C76.8081 181.193 77.1485 182.165 77.1485 183.308C77.1485 184.45 76.8081 185.438 76.1121 186.195C75.4005 186.982 74.4724 187.384 73.3122 187.384C72.152 187.384 71.3322 186.998 70.6361 186.226C69.94 185.454 69.5997 184.466 69.5997 183.277L69.5842 183.292Z" fill="white" stroke="white" stroke-width="0.171899"/>
<path d="M88.2085 179.463V181.27C87.9764 181.084 87.6207 180.837 87.1721 180.513C86.8472 180.282 86.6306 180.143 86.5224 180.081C86.2285 179.911 85.981 179.818 85.8108 179.818C85.5324 179.818 85.2694 179.926 85.0374 180.143C84.8053 180.359 84.6971 180.621 84.6971 180.945C84.6971 181.27 84.7899 181.409 84.96 181.64C85.223 181.887 85.5014 182.088 85.8263 182.258L86.971 182.86C87.4814 183.122 87.8527 183.385 88.0692 183.632C88.3631 183.956 88.5024 184.373 88.5024 184.867C88.5024 185.639 88.2394 186.241 87.7289 186.689C87.2185 187.137 86.4914 187.353 85.5478 187.353C84.6042 187.353 84.1402 187.229 83.3049 186.967V185.068C83.4132 185.145 83.7689 185.438 84.4032 185.917C84.6042 186.071 84.8363 186.241 85.0838 186.426C85.3932 186.612 85.6561 186.72 85.8572 186.72C86.1975 186.72 86.4914 186.596 86.7389 186.349C86.9864 186.102 87.1102 185.793 87.1102 185.454C87.1102 185.114 87.0328 184.929 86.8782 184.728C86.8008 184.62 86.6925 184.527 86.5688 184.419C86.4141 184.327 86.2439 184.234 86.0428 184.126L85.1611 183.694C84.5888 183.4 84.1557 183.076 83.8463 182.721C83.5524 182.35 83.4131 181.934 83.4131 181.486C83.4131 180.76 83.6916 180.173 84.2485 179.772C84.7435 179.401 85.3777 179.216 86.1356 179.216H86.5069C86.6616 179.216 86.8627 179.232 87.0947 179.278L88.2085 179.479V179.463Z" fill="white" stroke="white" stroke-width="0.171899"/>
<path d="M92.2154 179.124V184.697C92.2154 185.67 92.4165 186.473 92.8342 187.137H90.1736C90.2354 187.013 90.3437 186.828 90.4675 186.581C90.5293 186.442 90.5912 186.272 90.6531 186.056C90.7614 185.685 90.8078 185.222 90.8078 184.697V181.47C90.8078 181.146 90.7614 180.837 90.6531 180.559C90.5603 180.282 90.3747 179.957 90.1272 179.587L92.2154 179.139V179.124ZM91.4575 175.341C91.7204 175.341 91.937 175.434 92.1071 175.603C92.2773 175.773 92.3701 175.989 92.3701 176.252C92.3701 176.514 92.2928 176.777 92.1226 176.931C91.9834 177.086 91.7668 177.178 91.4575 177.178C91.1481 177.178 90.9625 177.101 90.8078 176.931C90.6531 176.761 90.5757 176.545 90.5757 176.267C90.5757 175.989 90.6531 175.804 90.8232 175.603C91.0089 175.434 91.2254 175.341 91.4575 175.341Z" fill="white" stroke="white" stroke-width="0.171899"/>
<path d="M99.9644 180.251L99.3302 180.05L98.6496 179.988C97.8297 179.988 97.1955 180.266 96.716 180.837C96.2519 181.409 96.0199 182.196 96.0199 183.215C96.0199 184.234 96.2674 185.006 96.7779 185.531C97.3193 186.102 98.0618 186.365 98.9744 186.318H99.3766C99.3766 186.303 99.9335 186.21 99.9335 186.21V180.251H99.9644ZM101.372 175.125V184.45C101.372 185.485 101.589 186.318 102.037 186.921L99.9644 187.368V186.365C99.4694 186.704 99.0363 186.967 98.6496 187.106C98.2474 187.26 97.8607 187.353 97.5204 187.353C96.6696 187.353 95.958 186.982 95.3702 186.257C94.7824 185.531 94.4885 184.62 94.4885 183.539C94.4885 182.459 94.8133 181.486 95.463 180.606C96.1746 179.664 97.0563 179.185 98.1082 179.185C99.16 179.185 99.4075 179.371 99.9644 179.726V177.919C99.9644 177.518 99.918 177.163 99.8097 176.87C99.7169 176.576 99.5004 176.159 99.16 175.619L101.357 175.109L101.372 175.125Z" fill="white" stroke="white" stroke-width="0.171899"/>
<path d="M110.407 182.86H105.194C105.194 184.049 105.472 184.929 106.044 185.485C106.617 186.04 107.39 186.334 108.396 186.334C109.401 186.334 108.597 186.334 108.69 186.334L109.54 186.287L110.469 186.133C110.035 186.519 109.54 186.812 108.999 187.013C108.427 187.229 107.854 187.322 107.251 187.322C106.137 187.322 105.24 186.936 104.606 186.179C104.003 185.469 103.693 184.527 103.693 183.4C103.693 182.273 103.786 182.335 103.956 181.81C104.126 181.285 104.374 180.837 104.683 180.467C104.993 180.096 105.395 179.803 105.874 179.571C106.354 179.34 106.833 179.216 107.313 179.216C108.303 179.216 109.045 179.525 109.571 180.143C110.144 180.837 110.422 181.748 110.422 182.891L110.407 182.86ZM108.69 181.98C108.69 181.285 108.55 180.745 108.287 180.359C108.04 180.004 107.653 179.818 107.143 179.818C106.632 179.818 106.106 180.035 105.782 180.482C105.41 180.976 105.225 181.609 105.225 182.397L108.705 181.98H108.69Z" fill="white" stroke="white" stroke-width="0.171899"/>
<path d="M114.026 179.124V180.05L114.985 179.602C115.295 179.463 115.527 179.386 115.681 179.355C116.006 179.247 116.346 179.185 116.687 179.185C117.367 179.185 117.893 179.463 118.265 180.035C118.62 179.865 119.177 179.649 119.92 179.371C120.353 179.247 120.724 179.185 121.049 179.185C121.884 179.185 122.472 179.463 122.797 180.035C123.06 180.482 123.199 181.146 123.199 182.042V184.79C123.199 185.685 123.4 186.473 123.818 187.121H121.173C121.358 186.812 121.513 186.457 121.621 186.056C121.714 185.716 121.776 185.253 121.776 184.682V182.52C121.776 181.609 121.606 180.992 121.266 180.668C120.894 180.312 120.276 180.143 119.378 180.174H118.899C118.76 180.189 118.574 180.204 118.342 180.22C118.466 180.405 118.528 180.621 118.543 180.853L118.605 182.042V184.682C118.605 185.639 118.821 186.457 119.239 187.121H116.578C116.996 186.426 117.197 185.608 117.197 184.682V182.52C117.197 181.671 117.027 181.069 116.702 180.714C116.346 180.328 115.774 180.158 114.97 180.189H114.552C114.552 180.204 114.026 180.235 114.026 180.235V184.697C114.026 185.655 114.243 186.473 114.66 187.137H112C112.417 186.442 112.618 185.624 112.618 184.697V181.47C112.618 180.853 112.402 180.235 111.953 179.587L114.026 179.139V179.124Z" fill="white" stroke="white" stroke-width="0.171899"/>
<path d="M128.97 179.834C128.197 179.834 127.64 180.204 127.3 180.945C127.037 181.501 126.897 182.196 126.897 183.061C126.897 183.925 127.037 184.79 127.315 185.438C127.686 186.334 128.274 186.782 129.094 186.782C129.914 186.782 130.424 186.411 130.765 185.67C131.028 185.114 131.167 184.419 131.167 183.555C131.167 182.69 131.028 181.856 130.749 181.192C130.362 180.297 129.775 179.849 128.986 179.849L128.97 179.834ZM125.242 183.292C125.242 182.15 125.598 181.177 126.294 180.405C127.021 179.602 127.949 179.185 129.078 179.185C130.208 179.185 131.12 179.602 131.816 180.421C132.466 181.192 132.806 182.165 132.806 183.308C132.806 184.45 132.466 185.438 131.77 186.195C131.058 186.982 130.13 187.384 128.97 187.384C127.81 187.384 126.99 186.998 126.294 186.226C125.598 185.454 125.258 184.466 125.258 183.277L125.242 183.292Z" fill="white" stroke="white" stroke-width="0.171899"/>
<path d="M136.317 179.124V183.786C136.317 184.805 136.471 185.454 136.765 185.763C137.09 186.087 137.647 186.241 138.436 186.21H138.962C138.962 186.195 139.689 186.133 139.689 186.133V181.44C139.689 181.115 139.642 180.807 139.534 180.529C139.441 180.251 139.256 179.927 139.008 179.556L141.112 179.108V184.975C141.112 185.269 141.174 185.577 141.282 185.886C141.406 186.195 141.561 186.519 141.793 186.828L139.689 187.307V186.272C139.055 186.627 138.529 186.874 138.111 187.013C137.662 187.168 137.245 187.245 136.889 187.245C136.177 187.245 135.667 187.044 135.358 186.643C135.048 186.241 134.909 185.562 134.909 184.62V181.455C134.909 181.131 134.863 180.822 134.754 180.544C134.662 180.266 134.476 179.942 134.228 179.571L136.317 179.124Z" fill="white" stroke="white" stroke-width="0.171899"/>
<path d="M145.413 179.124V180.05C145.722 179.911 146.078 179.772 146.48 179.618C146.743 179.525 147.006 179.432 147.238 179.355C147.609 179.247 147.965 179.185 148.275 179.185C149.574 179.185 150.208 180.143 150.208 182.042V184.682C150.208 185.639 150.425 186.457 150.842 187.121H148.182C148.599 186.411 148.816 185.593 148.816 184.682V182.52C148.816 181.64 148.646 181.038 148.305 180.698C147.934 180.328 147.315 180.158 146.449 180.189H145.939C145.815 180.204 145.645 180.22 145.428 180.235V184.79C145.428 185.685 145.629 186.473 146.047 187.121H143.402C143.587 186.828 143.742 186.473 143.866 186.056C143.959 185.716 144.021 185.253 144.021 184.682V181.455C144.021 180.822 143.804 180.189 143.355 179.571L145.444 179.124H145.413Z" fill="white" stroke="white" stroke-width="0.171899"/>
<path d="M154.368 177.055V179.293H156.967V180.05H154.368V184.651C154.368 185.346 154.492 185.809 154.724 186.04C155.018 186.257 155.498 186.349 156.178 186.334H156.72C156.72 186.318 157.354 186.241 157.354 186.241C156.936 186.565 156.503 186.843 156.039 187.059C155.498 187.245 155.065 187.337 154.724 187.337C154.059 187.337 153.58 187.167 153.317 186.812C153.054 186.488 152.93 185.824 152.93 184.867V180.065H151.569C152.744 179.077 153.672 178.089 154.353 177.07L154.368 177.055Z" fill="white" stroke="white" stroke-width="0.171899"/>
<path d="M167.966 180.251L167.332 180.05L166.651 179.988C165.831 179.988 165.197 180.266 164.718 180.837C164.254 181.409 164.022 182.196 164.022 183.215C164.022 184.234 164.269 185.006 164.78 185.531C165.321 186.102 166.064 186.365 166.976 186.318H167.378C167.378 186.303 167.935 186.21 167.935 186.21V180.251H167.966ZM169.374 175.125V184.45C169.374 185.485 169.59 186.318 170.039 186.92L167.966 187.368V186.365C167.471 186.704 167.038 186.967 166.651 187.106C166.249 187.26 165.862 187.353 165.522 187.353C164.671 187.353 163.96 186.982 163.372 186.257C162.784 185.531 162.49 184.62 162.49 183.539C162.49 182.459 162.815 181.486 163.465 180.606C164.176 179.664 165.058 179.185 166.11 179.185C167.162 179.185 167.409 179.371 167.966 179.726V177.919C167.966 177.518 167.92 177.163 167.811 176.869C167.719 176.576 167.502 176.159 167.162 175.619L169.358 175.109L169.374 175.125Z" fill="white" stroke="white" stroke-width="0.171899"/>
<path d="M173.782 179.124V184.697C173.782 185.67 173.983 186.473 174.401 187.137H171.74C171.802 187.013 171.91 186.828 172.034 186.581C172.096 186.442 172.158 186.272 172.22 186.056C172.328 185.685 172.374 185.222 172.374 184.697V181.47C172.374 181.146 172.328 180.837 172.22 180.56C172.127 180.282 171.941 179.957 171.694 179.587L173.782 179.139V179.124ZM173.024 175.341C173.287 175.341 173.504 175.434 173.674 175.604C173.844 175.773 173.937 175.989 173.937 176.252C173.937 176.514 173.859 176.777 173.689 176.931C173.55 177.086 173.333 177.178 173.024 177.178C172.715 177.178 172.529 177.101 172.374 176.931C172.22 176.761 172.142 176.545 172.142 176.267C172.142 175.989 172.22 175.804 172.39 175.604C172.575 175.434 172.792 175.341 173.024 175.341Z" fill="white" stroke="white" stroke-width="0.171899"/>
<path d="M174.988 179.294H178.02L177.973 179.371C177.71 179.818 177.571 180.112 177.571 180.235L177.602 180.529L177.695 180.899L179.366 185.855L180.959 180.451L180.99 180.127C180.99 180.019 180.959 179.911 180.897 179.772L180.572 179.278H182.939C182.444 179.726 182.011 180.421 181.64 181.393L179.428 187.198H178.438L176.396 181.625C176.071 180.637 175.591 179.849 174.973 179.278L174.988 179.294Z" fill="white" stroke="white" stroke-width="0.171899"/>
<path d="M185.709 179.124V184.697C185.709 185.67 185.911 186.473 186.328 187.137H183.668C183.729 187.013 183.838 186.828 183.962 186.581C184.023 186.442 184.085 186.272 184.147 186.056C184.255 185.685 184.302 185.222 184.302 184.697V181.47C184.302 181.146 184.255 180.837 184.147 180.559C184.054 180.282 183.869 179.957 183.621 179.587L185.709 179.139V179.124ZM184.952 175.341C185.214 175.341 185.431 175.434 185.601 175.603C185.771 175.773 185.864 175.989 185.864 176.252C185.864 176.514 185.787 176.777 185.617 176.931C185.493 177.086 185.261 177.178 184.952 177.178C184.642 177.178 184.457 177.101 184.302 176.931C184.147 176.761 184.07 176.545 184.07 176.267C184.07 175.989 184.147 175.804 184.317 175.603C184.503 175.434 184.719 175.341 184.952 175.341Z" fill="white" stroke="white" stroke-width="0.171899"/>
<path d="M190.055 179.124V180.05C190.365 179.911 190.721 179.772 191.123 179.618C191.386 179.525 191.649 179.432 191.881 179.355C192.252 179.247 192.608 179.185 192.917 179.185C194.216 179.185 194.851 180.143 194.851 182.042V184.682C194.851 185.639 195.052 186.457 195.485 187.121H192.824C193.242 186.411 193.459 185.593 193.459 184.682V182.52C193.459 181.64 193.288 181.038 192.948 180.698C192.577 180.328 191.958 180.158 191.092 180.189H190.581C190.458 180.204 190.287 180.22 190.071 180.235V184.79C190.071 185.685 190.272 186.473 190.69 187.121H188.044C188.23 186.828 188.385 186.473 188.509 186.056C188.601 185.716 188.663 185.253 188.663 184.682V181.455C188.663 180.822 188.447 180.189 187.998 179.571L190.086 179.124H190.055Z" fill="white" stroke="white" stroke-width="0.171899"/>
<path d="M198.577 187.029C198.454 187.183 198.361 187.307 198.314 187.384C198.268 187.461 198.206 187.584 198.144 187.723C198.036 187.97 197.99 188.187 197.99 188.372C197.99 188.881 198.237 189.267 198.748 189.53C199.15 189.746 199.629 189.839 200.186 189.839C200.743 189.839 201.377 189.7 201.888 189.437C202.522 189.097 202.831 188.65 202.831 188.094C202.831 187.538 202.677 187.399 202.352 187.26C202.151 187.168 201.795 187.121 201.3 187.121H199.057C199.057 187.106 198.608 187.013 198.608 187.013L198.577 187.029ZM200.001 179.772C199.072 179.772 198.608 180.359 198.608 181.517C198.608 182.675 198.732 182.536 198.98 182.953C199.274 183.447 199.676 183.694 200.171 183.694C200.666 183.694 200.929 183.508 201.192 183.153C201.408 182.829 201.516 182.443 201.516 182.011C201.516 181.579 201.408 180.961 201.192 180.544C200.913 180.035 200.526 179.772 200.001 179.772ZM204.316 179.185V180.405L202.042 179.88C202.46 180.22 202.739 180.668 202.862 181.208C202.909 181.378 202.924 181.548 202.924 181.733C202.924 182.505 202.646 183.122 202.104 183.586C201.594 184.033 200.929 184.25 200.155 184.25H199.799L199.366 184.188L199.212 184.589L199.165 184.898C199.165 185.191 199.258 185.392 199.428 185.531C199.598 185.655 199.923 185.716 200.403 185.716H201.872C202.553 185.716 203.032 185.824 203.342 186.025C203.698 186.272 203.883 186.72 203.883 187.353C203.883 187.986 203.79 188.171 203.589 188.588C203.218 189.375 202.491 189.962 201.408 190.333C200.882 190.518 200.341 190.611 199.799 190.611C199.258 190.611 198.423 190.487 197.788 190.225C196.969 189.885 196.566 189.422 196.566 188.804C196.566 188.187 196.675 188.248 196.891 188.017C197.123 187.785 197.603 187.415 198.361 186.905C197.881 186.72 197.649 186.396 197.649 185.932C197.649 185.469 198.175 184.836 199.212 184.172C198.562 184.064 198.067 183.802 197.696 183.4C197.309 182.983 197.123 182.459 197.123 181.81C197.123 181.162 197.417 180.359 197.99 179.865C198.531 179.402 199.227 179.185 200.047 179.185C200.867 179.185 201.238 179.371 201.795 179.726L204.285 179.185H204.316Z" fill="white" stroke="white" stroke-width="0.171899"/>
<path d="M94.8443 191.707C94.9216 191.707 94.9525 191.753 94.9525 191.815C94.9525 191.877 94.9371 191.969 94.8907 192.031L91.9516 197.188H93.514C94.3802 197.188 94.6122 197.018 94.8597 196.647C94.9216 196.555 94.9371 196.539 95.0144 196.539H95.0454C95.1227 196.539 95.1382 196.57 95.1072 196.694L94.968 197.28C94.9216 197.466 94.8752 197.481 94.6432 197.481H91.1318C91.0544 197.481 91.008 197.435 91.008 197.342C91.008 197.249 91.0389 197.203 91.0699 197.157L94.0708 191.985H92.7405C91.8279 191.985 91.6268 192.154 91.4257 192.51C91.3793 192.587 91.3638 192.618 91.2865 192.618H91.2555C91.1782 192.618 91.1627 192.587 91.1782 192.463L91.271 191.892C91.3019 191.707 91.3483 191.691 91.5804 191.691H94.8443V191.707Z" fill="white" stroke="white" stroke-width="0.171899"/>
<path d="M97.4902 193.173C98.5884 193.173 98.9906 193.884 98.9906 194.918C98.9906 195.953 98.9442 195.366 98.8205 195.366H96.5466C96.5466 196.802 97.0106 197.249 97.8769 197.249C98.7431 197.249 98.5111 197.172 98.7895 197.033C98.8514 197.002 98.8978 197.002 98.9288 197.064L98.9597 197.141C98.9906 197.203 98.9752 197.234 98.9133 197.28C98.6039 197.466 98.1708 197.589 97.6913 197.589C96.5002 197.589 95.7422 196.817 95.7422 195.397C95.7422 193.976 96.3455 193.173 97.4747 193.173H97.4902ZM97.4902 193.451C96.9642 193.451 96.6084 193.945 96.562 195.057H97.9542C98.2327 195.057 98.2636 194.98 98.2636 194.717C98.2636 193.915 97.9852 193.467 97.4902 193.467V193.451Z" fill="white" stroke="white" stroke-width="0.171899"/>
<path d="M105.347 197.527H104.698C104.559 197.527 104.559 197.481 104.59 197.342C104.636 197.111 104.651 196.956 104.651 196.03V194.764C104.651 193.992 104.497 193.59 104.048 193.59C103.6 193.59 103.12 194.208 103.089 195.273V196.169C103.089 196.972 103.12 197.141 103.151 197.358C103.182 197.497 103.166 197.543 103.043 197.543H102.393C102.254 197.543 102.254 197.497 102.285 197.358C102.331 197.172 102.347 197.033 102.347 196.478V194.671C102.331 194.007 102.176 193.59 101.743 193.59C101.31 193.59 100.784 194.239 100.784 195.35V196.03C100.784 196.956 100.815 197.111 100.846 197.342C100.877 197.481 100.862 197.527 100.738 197.527H100.088C99.9489 197.527 99.9334 197.481 99.9798 197.342C100.011 197.141 100.042 197.003 100.042 196.4V194.609C100.042 194.146 99.9798 193.606 99.9334 193.405C99.9025 193.313 99.9334 193.251 100.042 193.251H100.212C100.645 193.251 100.784 193.39 100.8 194.131C101.016 193.482 101.48 193.158 102.006 193.158C102.532 193.158 102.965 193.482 103.074 194.208C103.259 193.513 103.723 193.158 104.296 193.158C104.868 193.158 105.409 193.621 105.409 194.733V196.122C105.409 196.925 105.44 197.095 105.487 197.311C105.518 197.45 105.487 197.497 105.378 197.497L105.347 197.527Z" fill="white" stroke="white" stroke-width="0.171899"/>
<path d="M108.999 193.251H109.695C109.819 193.251 109.834 193.281 109.819 193.405C109.772 193.652 109.772 194.1 109.772 194.609V196.447C109.772 197.11 109.896 197.388 109.896 197.45C109.896 197.512 109.865 197.543 109.772 197.543H109.664C109.293 197.543 109.092 197.311 109.03 196.74C108.829 197.234 108.426 197.574 107.854 197.574C107.282 197.574 106.617 197.157 106.617 196.169V194.702C106.617 194.177 106.555 193.606 106.493 193.405C106.462 193.312 106.477 193.251 106.586 193.251H107.282C107.39 193.251 107.421 193.281 107.39 193.405C107.344 193.652 107.344 194.1 107.344 194.609V196.091C107.344 196.755 107.529 197.188 107.993 197.188C108.457 197.188 108.349 197.141 108.504 197.002C108.798 196.74 109.014 196.215 109.014 195.119V194.609C109.014 194.1 108.952 193.59 108.89 193.405C108.859 193.312 108.875 193.251 108.983 193.251H108.999ZM109.045 192.726H107.297C107.22 192.726 107.158 192.679 107.158 192.587V192.479C107.158 192.386 107.204 192.34 107.282 192.34H109.03C109.107 192.34 109.169 192.371 109.169 192.463V192.571C109.169 192.664 109.122 192.71 109.03 192.71L109.045 192.726Z" fill="white" stroke="white" stroke-width="0.171899"/>
<path d="M114.243 196.478C114.243 197.126 114.366 197.389 114.366 197.45C114.366 197.512 114.32 197.543 114.243 197.543H114.134C113.763 197.543 113.547 197.311 113.5 196.709C113.423 196.91 113.315 197.064 113.191 197.203C112.943 197.435 112.665 197.574 112.278 197.574C111.458 197.574 110.793 196.987 110.793 195.567C110.793 194.146 111.474 193.174 112.603 193.174C113.732 193.174 113.284 193.328 113.485 193.513V192.741C113.485 192.201 113.438 191.722 113.392 191.537C113.361 191.444 113.392 191.383 113.5 191.383H114.042C114.196 191.383 114.243 191.444 114.243 191.63V196.478ZM112.495 197.188C113.098 197.188 113.438 196.663 113.5 195.443V193.93C113.33 193.683 113.052 193.529 112.696 193.529C111.938 193.529 111.613 194.409 111.613 195.567C111.613 196.725 111.876 197.188 112.479 197.188H112.495Z" fill="white" stroke="white" stroke-width="0.171899"/>
<path d="M117.027 193.173C118.126 193.173 118.528 193.884 118.528 194.918C118.528 195.953 118.481 195.366 118.358 195.366H116.084C116.084 196.802 116.548 197.249 117.414 197.249C118.28 197.249 118.048 197.172 118.327 197.033C118.389 197.002 118.435 197.002 118.466 197.064L118.497 197.141C118.528 197.203 118.512 197.234 118.45 197.28C118.141 197.466 117.708 197.589 117.228 197.589C116.037 197.589 115.279 196.817 115.279 195.397C115.279 193.976 115.883 193.173 117.012 193.173H117.027ZM117.027 193.451C116.501 193.451 116.146 193.945 116.099 195.057H117.491C117.77 195.057 117.801 194.98 117.801 194.717C117.801 193.915 117.522 193.467 117.027 193.467V193.451Z" fill="white" stroke="white" stroke-width="0.171899"/>
<path d="M122.69 197.527H122.04C121.916 197.527 121.901 197.481 121.932 197.342C121.978 197.126 121.994 196.956 121.994 196.138V194.856C121.994 194.023 121.808 193.59 121.359 193.59C120.617 193.59 120.323 194.547 120.323 195.69V196.03C120.323 196.956 120.354 197.11 120.385 197.342C120.416 197.481 120.4 197.527 120.277 197.527H119.627C119.488 197.527 119.472 197.481 119.519 197.342C119.565 197.11 119.58 196.956 119.58 196.03V194.563C119.58 194.115 119.519 193.59 119.472 193.42C119.441 193.328 119.472 193.266 119.58 193.266H119.751C120.199 193.266 120.323 193.42 120.338 194.177C120.539 193.621 120.942 193.189 121.622 193.189C122.303 193.189 122.767 193.667 122.767 194.795V196.153C122.767 196.971 122.782 197.141 122.829 197.357C122.86 197.496 122.844 197.543 122.721 197.543L122.69 197.527Z" fill="white" stroke="white" stroke-width="0.171899"/>
<path d="M125.132 197.234C125.643 197.234 125.906 196.972 125.906 196.555C125.906 195.397 123.771 195.922 123.771 194.393C123.771 192.865 124.281 193.174 125.148 193.174C126.014 193.174 126.184 193.421 126.339 193.575C126.401 193.637 126.416 193.683 126.385 193.776L126.231 194.27C126.215 194.316 126.2 194.331 126.153 194.331H126.107C126.06 194.331 126.029 194.301 126.029 194.254C125.921 193.791 125.596 193.482 125.086 193.482C124.575 193.482 124.39 193.776 124.39 194.131C124.39 195.227 126.509 194.687 126.509 196.323C126.509 197.96 126.014 197.574 125.101 197.574C124.189 197.574 124.019 197.373 123.848 197.234C123.771 197.172 123.756 197.111 123.771 197.033L123.926 196.447C123.941 196.369 123.957 196.369 124.019 196.369H124.065C124.111 196.369 124.142 196.369 124.173 196.478C124.297 197.018 124.684 197.234 125.163 197.234H125.132Z" fill="white" stroke="white" stroke-width="0.171899"/>
<path d="M129.882 199.519H129.233C129.093 199.519 129.078 199.473 129.124 199.334C129.171 199.102 129.186 198.948 129.186 198.021V194.702C129.186 194.223 129.14 193.606 129.078 193.405C129.047 193.312 129.078 193.251 129.186 193.251H129.356C129.805 193.251 129.944 193.405 129.944 194.192V194.254C130.068 193.698 130.501 193.158 131.213 193.158C131.924 193.158 132.605 193.76 132.605 195.32C132.605 196.879 131.862 197.558 130.749 197.605C130.408 197.605 130.13 197.527 129.929 197.419V198.021C129.929 198.948 129.96 199.102 129.991 199.334C130.021 199.473 130.006 199.519 129.882 199.519ZM130.965 193.59C130.439 193.59 129.991 194.146 129.929 195.52V196.987C130.145 197.172 130.439 197.249 130.687 197.249C131.336 197.249 131.8 196.786 131.8 195.366C131.8 193.945 131.445 193.59 130.95 193.59H130.965Z" fill="white" stroke="white" stroke-width="0.171899"/>
<path d="M135.172 193.173C136.27 193.173 136.672 193.884 136.672 194.918C136.672 195.952 136.626 195.366 136.502 195.366H134.228C134.228 196.802 134.692 197.249 135.558 197.249C136.425 197.249 136.193 197.172 136.471 197.033C136.533 197.002 136.579 197.002 136.61 197.064L136.641 197.141C136.672 197.203 136.657 197.234 136.595 197.28C136.286 197.466 135.852 197.589 135.373 197.589C134.182 197.589 133.424 196.817 133.424 195.397C133.424 193.976 134.027 193.173 135.156 193.173H135.172ZM135.172 193.451C134.646 193.451 134.29 193.945 134.244 195.057H135.636C135.914 195.057 135.945 194.98 135.945 194.717C135.945 193.914 135.667 193.467 135.172 193.467V193.451Z" fill="white" stroke="white" stroke-width="0.171899"/>
<path d="M138.406 197.527H137.756C137.632 197.527 137.601 197.481 137.648 197.342C137.694 197.111 137.71 196.956 137.71 196.03V192.757C137.71 192.216 137.663 191.738 137.617 191.552C137.586 191.46 137.617 191.398 137.725 191.398H138.267C138.421 191.398 138.468 191.46 138.468 191.645V196.061C138.468 196.956 138.499 197.126 138.529 197.342C138.56 197.481 138.545 197.527 138.421 197.527H138.406Z" fill="white" stroke="white" stroke-width="0.171899"/>
<path d="M142.922 196.478C142.922 197.126 143.046 197.388 143.046 197.45C143.046 197.512 143 197.543 142.922 197.543H142.814C142.443 197.543 142.226 197.311 142.18 196.709C142.102 196.91 141.994 197.064 141.87 197.203C141.623 197.435 141.344 197.574 140.958 197.574C140.138 197.574 139.473 196.987 139.473 195.567C139.473 194.146 140.153 193.174 141.283 193.174C142.412 193.174 141.963 193.328 142.164 193.513V192.741C142.164 192.201 142.118 191.722 142.071 191.537C142.04 191.444 142.071 191.383 142.18 191.383H142.721C142.876 191.383 142.922 191.444 142.922 191.63V196.478ZM141.174 197.188C141.778 197.188 142.118 196.663 142.18 195.443V193.93C142.01 193.683 141.731 193.529 141.375 193.529C140.617 193.529 140.293 194.409 140.293 195.567C140.293 196.725 140.555 197.188 141.159 197.188H141.174Z" fill="white" stroke="white" stroke-width="0.171899"/>
<path d="M145.707 193.173C146.805 193.173 147.207 193.884 147.207 194.918C147.207 195.953 147.161 195.366 147.037 195.366H144.763C144.763 196.802 145.227 197.249 146.094 197.249C146.96 197.249 146.728 197.172 147.006 197.033C147.068 197.002 147.115 197.002 147.146 197.064L147.176 197.141C147.207 197.203 147.192 197.234 147.13 197.28C146.821 197.466 146.388 197.589 145.908 197.589C144.717 197.589 143.959 196.817 143.959 195.397C143.959 193.976 144.562 193.173 145.691 193.173H145.707ZM145.707 193.451C145.181 193.451 144.825 193.945 144.779 195.057H146.171C146.449 195.057 146.48 194.98 146.48 194.717C146.48 193.915 146.202 193.467 145.707 193.467V193.451ZM146.573 192.726H144.825C144.748 192.726 144.686 192.679 144.686 192.587V192.479C144.686 192.386 144.732 192.34 144.81 192.34H146.558C146.635 192.34 146.697 192.371 146.697 192.463V192.571C146.697 192.664 146.651 192.71 146.558 192.71L146.573 192.726Z" fill="white" stroke="white" stroke-width="0.171899"/>
<path d="M149.388 197.234C149.899 197.234 150.161 196.972 150.161 196.555C150.161 195.397 148.027 195.922 148.027 194.393C148.027 192.865 148.537 193.173 149.404 193.173C150.27 193.173 150.44 193.42 150.579 193.575C150.641 193.637 150.656 193.683 150.626 193.776L150.471 194.27C150.455 194.316 150.44 194.331 150.394 194.331H150.347C150.301 194.331 150.27 194.301 150.27 194.254C150.161 193.791 149.837 193.482 149.326 193.482C148.816 193.482 148.63 193.776 148.63 194.131C148.63 195.227 150.749 194.687 150.749 196.323C150.749 197.96 150.254 197.574 149.342 197.574C148.429 197.574 148.259 197.373 148.089 197.234C148.011 197.172 147.996 197.11 148.011 197.033L148.166 196.447C148.181 196.369 148.197 196.369 148.259 196.369H148.305C148.352 196.369 148.383 196.369 148.414 196.477C148.537 197.018 148.924 197.234 149.404 197.234H149.388ZM149.373 192.71C149.326 192.71 149.28 192.679 149.202 192.602L148.274 191.707C148.212 191.66 148.305 191.491 148.383 191.521L149.373 192.046L150.347 191.521C150.44 191.475 150.533 191.63 150.455 191.707L149.543 192.602C149.465 192.679 149.404 192.71 149.373 192.71Z" fill="white" stroke="white" stroke-width="0.171899"/>
<path d="M154.663 197.543H154.555C154.23 197.543 154.013 197.358 153.936 196.879C153.75 197.296 153.379 197.574 152.73 197.574C152.08 197.574 151.477 197.25 151.477 196.447C151.477 195.644 152.188 195.134 153.565 195.134H153.905V194.872C153.905 193.868 153.565 193.529 152.992 193.529C152.42 193.529 152.219 193.791 152.064 194.162C152.018 194.254 152.003 194.27 151.956 194.27H151.894C151.863 194.27 151.848 194.239 151.817 194.162L151.755 193.714C151.724 193.621 151.74 193.56 151.832 193.498C151.956 193.405 152.436 193.189 153.023 193.189C154.029 193.189 154.663 193.745 154.663 195.026V196.447C154.663 197.111 154.771 197.388 154.771 197.45C154.771 197.512 154.74 197.543 154.663 197.543ZM152.25 196.4C152.25 196.956 152.513 197.219 152.931 197.219C153.565 197.219 153.905 196.647 153.921 196.061V195.428H153.596C152.59 195.428 152.25 195.767 152.25 196.416V196.4Z" fill="white" stroke="white" stroke-width="0.171899"/>
<path d="M159.01 197.527H158.36C158.237 197.527 158.221 197.481 158.252 197.342C158.299 197.126 158.314 196.956 158.314 196.138V194.856C158.314 194.023 158.128 193.59 157.68 193.59C156.937 193.59 156.643 194.548 156.643 195.69V196.03C156.643 196.956 156.674 197.111 156.705 197.342C156.736 197.481 156.721 197.527 156.597 197.527H155.947C155.808 197.527 155.793 197.481 155.839 197.342C155.885 197.111 155.901 196.956 155.901 196.03V194.563C155.901 194.115 155.839 193.59 155.793 193.421C155.762 193.328 155.793 193.266 155.901 193.266H156.071C156.52 193.266 156.643 193.421 156.659 194.177C156.86 193.621 157.262 193.189 157.943 193.189C158.623 193.189 159.087 193.668 159.087 194.795V196.153C159.087 196.972 159.103 197.141 159.149 197.358C159.18 197.497 159.165 197.543 159.041 197.543L159.01 197.527Z" fill="white" stroke="white" stroke-width="0.171899"/>
<path d="M163.187 197.543H163.078C162.753 197.543 162.537 197.358 162.46 196.879C162.274 197.296 161.903 197.574 161.253 197.574C160.603 197.574 160 197.25 160 196.447C160 195.644 160.712 195.134 162.088 195.134H162.429V194.872C162.429 193.868 162.088 193.529 161.516 193.529C160.944 193.529 160.742 193.791 160.588 194.162C160.541 194.254 160.526 194.27 160.48 194.27H160.418C160.387 194.27 160.371 194.239 160.34 194.162L160.278 193.714C160.247 193.621 160.263 193.56 160.356 193.498C160.48 193.405 160.959 193.189 161.531 193.189C162.537 193.189 163.171 193.745 163.171 195.026V196.447C163.171 197.111 163.279 197.388 163.279 197.45C163.279 197.512 163.248 197.543 163.171 197.543H163.187ZM160.758 196.4C160.758 196.956 161.021 197.219 161.439 197.219C162.073 197.219 162.413 196.647 162.429 196.061V195.428H162.104C161.098 195.428 160.758 195.767 160.758 196.416V196.4Z" fill="white" stroke="white" stroke-width="0.171899"/>
<path d="M121.25 132.945C121.698 133.115 122.131 133.269 122.518 133.423C122.518 133.423 126.122 134.442 127.623 135.384C128.644 136.372 129.742 136.496 130.949 135.755C131.521 135.43 132.155 135.4 132.805 135.43C132.836 135.43 132.882 135.43 132.913 135.415C133.3 135.338 133.656 135.261 133.748 134.736C133.965 133.562 133.516 132.482 132.48 131.802C131.32 131.447 130.113 131.401 128.922 131.354C128.489 131.339 128.071 131.324 127.638 131.293C127.283 131.262 126.865 131.061 126.494 130.891C126.447 130.86 126.385 130.845 126.339 130.814C125.473 130.397 124.993 130.15 124.359 129.811C124.127 129.687 123.864 129.548 123.57 129.394C123.57 129.394 121.188 128.05 121.435 127.217C121.683 126.692 122.147 126.877 122.363 127.093C122.843 127.603 123.833 128.189 124.498 128.575C124.529 128.591 124.56 128.606 124.591 128.637C125.163 128.977 125.736 129.61 126.262 130.181C126.447 130.382 126.617 130.567 126.788 130.737C127.948 131.926 129.835 130.598 130.639 129.594C131.103 128.884 130.314 127.773 130.314 127.773C130.314 127.773 129.139 126.46 128.102 126.244C127.546 126.136 126.973 125.92 126.803 125.24C126.803 125.024 126.664 124.947 126.478 124.901C125.055 124.685 124.73 123.635 124.498 122.415C124.39 121.844 124.699 121.211 124.993 120.609C125.364 119.852 125.72 119.127 125.287 118.509C124.916 117.999 125.21 117.66 125.643 117.444C125.689 117.413 125.751 117.397 125.798 117.366C126.2 117.15 126.648 116.919 127.035 117.243C127.236 117.413 127.143 117.691 127.035 117.999C126.927 118.324 126.803 118.679 126.989 118.988C127.252 119.404 127.561 119.775 128.118 119.358C128.257 119.157 128.52 119.142 128.628 119.235C129.278 119.821 129.804 119.482 130.314 119.049C130.33 119.049 130.345 119.018 130.361 119.018C130.624 118.818 130.887 118.617 130.825 118.2C130.825 118.2 130.825 118.185 130.825 118.169C130.794 117.999 130.763 117.768 130.98 117.691C131.196 117.613 131.289 117.737 131.382 117.876C131.413 117.922 131.444 117.969 131.49 118.015C132.031 118.54 132.294 118.524 132.913 117.938C132.913 117.428 133.114 117.027 133.563 116.78C134.12 116.456 134.151 116.054 133.826 115.56C133.671 115.483 133.687 115.344 133.718 115.22C133.718 114.726 133.408 114.711 133.114 114.695C133.006 114.695 132.898 114.695 132.789 114.649C132.758 114.649 132.743 114.634 132.712 114.618C132.542 114.572 132.403 114.526 132.372 114.325C132.341 114.093 132.496 113.97 132.697 113.923C133.331 113.754 133.331 113.306 133.176 112.812C132.96 112.163 133.037 111.561 133.207 110.882C133.455 109.894 133.532 108.859 132.96 107.902C132.387 106.976 131.397 105.679 130.314 105.324C128.381 104.691 126.664 104.891 124.854 105.679C122.626 106.652 121.621 109.122 122.565 110.697C122.812 110.913 122.843 111.237 122.626 111.391C122.317 111.608 121.915 111.608 121.59 111.345C121.157 110.836 120.662 110.403 119.981 110.372C118.357 110.295 116.748 110.342 115.418 111.499C114.428 111.824 111.566 112.534 109.261 113.105C108.086 113.399 107.049 113.661 106.462 113.815C106.291 113.862 105.889 113.939 105.348 114.047C102.579 114.587 96.0357 115.853 96.5461 117.397C96.5925 117.552 96.7163 117.691 96.8246 117.83C97.0257 118.077 97.2268 118.308 97.0102 118.555C96.7936 118.802 96.5461 118.802 96.2986 118.586C95.7727 118.03 95.123 117.922 94.3496 118.216C94.3032 118.231 94.2568 118.246 94.2258 118.277C93.9629 118.385 93.669 118.524 93.4524 118.277C93.2822 118.092 93.3596 117.907 93.4524 117.706C93.4524 117.706 93.4524 117.691 93.4524 117.675C93.5916 117.351 93.7772 117.042 93.9783 116.749C94.1485 116.486 94.3032 116.224 94.4424 115.946C94.7054 115.406 94.6435 114.958 94.2722 114.572C93.6689 113.954 92.9264 113.584 92.0293 113.723C91.5807 113.8 91.1475 113.923 91.1785 114.526C91.1785 114.695 91.1475 114.881 90.931 114.896C90.8072 114.896 90.7608 114.819 90.6989 114.726C90.6835 114.695 90.668 114.665 90.6371 114.634C90.0957 113.954 89.8946 113.923 89.2139 114.448C88.456 115.02 87.8218 116.347 87.4505 117.197C87.3886 117.336 87.3113 117.475 87.2494 117.598C87.0019 118.046 86.7389 118.509 87.1411 119.065C87.1411 119.111 87.1411 119.142 87.1566 119.188C87.1566 119.235 87.1721 119.281 87.1721 119.343C87.698 119.79 88.1311 119.667 88.3941 119.482C88.3322 119.574 88.3013 119.667 88.3168 119.806C88.425 120.686 87.93 120.933 87.1721 120.917C86.5379 120.917 85.9191 121.134 85.2849 121.35C84.8363 121.52 84.3722 121.674 83.8927 121.751C82.6707 121.952 82.9336 123.712 83.2739 124.422C83.3822 124.669 83.6761 125.565 83.1038 125.441C82.6397 125.225 82.3304 124.669 82.0519 124.129C81.8972 123.851 81.758 123.573 81.5879 123.372C81.1702 122.863 80.7525 122.554 80.304 122.23C80.0255 122.029 79.7471 121.828 79.4377 121.55C79.2521 121.381 79.0664 121.226 78.8808 121.072C78.0919 120.423 77.3958 119.852 77.2102 118.725C77.1638 118.478 77.1638 118.231 77.1483 117.999C77.1174 117.274 77.0864 116.594 76.2357 116.193C70.7391 115.277 66.2635 114.505 62.8088 113.877C62.453 113.815 62.1282 113.754 61.8033 113.692C59.9007 113.337 58.5549 113.074 56.3583 113.198C54.1463 113.306 52.5375 113.939 51.2072 115.545C50.4183 116.656 50.4647 117.783 51.1608 118.91C53.4193 122.523 60.0708 121.906 63.6441 121.427C63.6905 121.427 63.7524 121.412 63.8143 121.396C64.1391 121.334 64.5568 121.257 64.6805 121.659C64.8197 122.091 62.453 123.125 61.2929 123.635C61.0299 123.758 60.8133 123.836 60.7205 123.882C60.2874 124.067 59.8388 124.252 59.4057 124.422C57.9671 125.009 56.5285 125.596 55.1982 126.414C54.6722 126.8 54.1927 127.526 55.2291 127.603C56.3738 127.68 58.5704 127.109 58.5704 127.109C59.0654 126.985 59.5758 126.862 60.0863 126.738C62.7005 126.121 65.4075 125.472 67.7588 124.206C68.0218 124.083 68.2847 123.944 68.5168 123.82C69.615 123.249 70.5586 122.77 72.0127 122.6H72.0436C73.08 122.477 74.7661 122.261 75.4004 123.264C76.2202 124.53 76.7461 125.843 77.2721 127.14C77.7052 128.205 78.1383 129.27 78.7261 130.289C79.1747 131.262 79.9018 131.91 80.8918 132.389C81.9127 132.868 82.8254 133.501 83.4596 134.55C83.5369 134.674 83.6297 134.797 83.738 134.906C83.506 134.303 83.3049 133.578 83.1347 132.729C82.6861 130.629 82.9491 129.378 83.506 128.637C84.001 127.973 84.6816 127.803 84.9136 127.726C85.4396 127.587 85.95 127.448 86.476 127.294C86.7389 127.217 86.9865 127.155 87.2494 127.078L110.298 120.964C110.329 120.964 110.406 120.933 110.545 120.902C110.7 120.871 110.917 120.825 111.18 120.794C111.706 120.717 112.417 120.67 113.191 120.779C113.964 120.887 114.799 121.134 115.526 121.674C116.269 122.23 116.872 123.048 117.212 124.252C117.615 125.657 117.63 126.784 117.383 127.711C117.181 128.514 116.795 129.116 116.346 129.579C116.346 130.088 116.578 130.536 116.996 130.968C117.97 131.879 119.718 132.512 121.219 133.053L121.25 132.945Z" fill="white"/>
<path fill-rule="evenodd" clip-rule="evenodd" d="M84.2175 129.085C83.8926 129.517 83.5833 130.459 84.0009 132.435C84.5578 135.075 85.2848 136.079 85.9345 136.434C86.5533 136.774 87.2184 136.65 88.0692 136.48C88.1311 136.48 88.1929 136.449 88.2548 136.449L98.3869 133.778C97.9537 132.837 97.3969 131.2 97.0101 129.749C96.6698 128.467 96.5306 127.247 96.4842 126.337C96.4687 126.012 96.4533 125.734 96.4533 125.503L87.435 127.896L85.192 128.529C85.1611 128.529 85.1301 128.544 85.0837 128.56C84.8362 128.637 84.4804 128.73 84.1865 129.116L84.2175 129.085ZM101.125 133.053L99.6089 133.454C99.2376 132.713 98.6344 131.015 98.2167 129.424C97.9073 128.251 97.7836 127.109 97.7372 126.259C97.7217 125.827 97.7062 125.487 97.7062 125.24C97.7062 125.209 97.7062 125.179 97.7062 125.163L107.854 122.477C107.854 122.693 107.854 122.94 107.869 123.218C107.9 124.082 108.024 125.271 108.333 126.537C108.72 128.081 109.385 129.841 109.896 130.845L101.125 133.068V133.053ZM111.133 130.505L113.624 129.872H113.639C113.639 129.872 113.639 129.872 113.67 129.872C113.701 129.872 113.732 129.872 113.794 129.841C113.902 129.81 114.057 129.78 114.227 129.702C114.583 129.563 115.047 129.332 115.464 128.961C115.882 128.591 116.238 128.081 116.423 127.356C116.609 126.63 116.625 125.673 116.253 124.391C115.959 123.388 115.464 122.739 114.907 122.307C114.335 121.89 113.67 121.674 113.005 121.581C112.34 121.489 111.705 121.535 111.241 121.597C111.009 121.628 110.824 121.658 110.685 121.689C110.623 121.689 110.576 121.72 110.53 121.72C110.514 121.72 110.499 121.72 110.499 121.72L109.107 122.091C109.107 122.106 109.107 122.137 109.107 122.153C109.107 122.384 109.107 122.708 109.107 123.11C109.138 123.913 109.246 125.009 109.54 126.182C109.957 127.834 110.7 129.687 111.133 130.474V130.505Z" fill="white"/>
<path d="M30.8496 145.451C34.0671 147.489 37.1918 148.261 40.7496 149.48C43.1937 150.314 44.0754 151.287 46.7051 151.287C49.3348 151.287 51.7788 149.882 53.929 149.48C56.3421 149.017 59.606 148.538 62.3285 149.187C68.7016 150.7 73.4505 152.861 78.3541 155.548C83.0876 158.142 85.8719 162.156 89.8474 163.252C93.1423 164.163 96.0968 165.877 99.2679 167.112C101.526 167.992 103.909 168.409 106.306 168.532C109.524 168.702 112.525 167.529 115.216 165.784C118.248 163.823 120.151 162.418 122.332 161.585C124.451 160.766 127.22 161.183 128.457 161.168C132.185 161.137 133.593 158.08 137.182 157.926C138.806 157.864 141.73 158.497 144.653 158.342C146.138 158.265 146.943 158.034 148.428 157.926C153.053 157.617 157.539 158.018 162.04 159.022C165.165 159.717 168.97 160.874 172.203 160.334C175.668 159.763 178.684 158.358 182.397 158.342C184.176 158.342 186.017 157.817 187.749 159.022C189.667 160.334 190.41 160.303 192.266 161.137C194.88 162.31 197.556 163.159 200.403 163.098C203.512 163.021 204.27 162.588 208.802 162.851C211.478 162.82 216.877 162.449 219.537 162.604C221.471 162.712 222.368 163.252 224.24 163.7" stroke="white" stroke-width="1.20329" stroke-linecap="round"/>
<path d="M228 102.267C226.329 102.869 164.346 122.616 133.578 132.42M134.089 134.689L228 146.578" stroke="white" stroke-width="0.567265" stroke-linecap="round"/>
<path d="M30.6953 116.27C31.345 115.946 33.0002 114.788 34.9647 113.491C39.2031 110.712 42.2969 110.573 46.3806 107.207C48.1131 105.771 49.428 104.768 50.5572 103.301C51.5936 101.989 52.5836 100.538 53.7592 98.9936C57.085 94.6243 58.075 91.0269 60.4727 87.1825C61.8494 84.9747 63.0095 82.5044 64.7266 80.5436C67.0159 77.9498 67.9286 77.0698 72.0587 75.6957C75.2298 75.1862 78.6794 76.1434 81.7886 75.1862C86.9861 72.7622 93.0344 68.5164 96.5612 64.3786C97.938 62.773 100.753 59.2528 100.753 59.2528C100.753 59.2528 106.616 50.3752 108.596 45.7588C109.648 43.2885 110.823 39.1971 113.438 41.3432C114.907 42.5474 115.294 45.4809 115.603 47.2256C116.222 50.6685 117.413 54.3894 120.569 56.412C122.549 57.678 123.987 58.6043 126.199 59.5153C128.257 60.3644 130.345 61.0129 132.418 61.862C136.13 63.3751 136.115 66.9107 139.131 69.3964C142.271 71.9902 146.974 72.7622 150.64 74.2598C153.192 75.3097 155.807 76.6375 158.189 78.027C164.144 81.3002 164.655 83.8013 169.682 84.3726C174.06 85.1137 178.685 84.7277 183.109 84.7277C187.533 84.7277 186.28 84.0484 188.987 83.6315C190.085 83.4617 189.497 84.5115 190.24 84.8821C191.493 85.4997 193.952 86.8892 196.706 86.6422C198.995 86.426 202.77 86.1018 206.776 85.3916C210.643 84.6968 213.412 83.8013 216.846 83.0448C218.61 82.5353 220.775 83.1683 221.966 81.9486C222.879 81.0222 224.967 79.679 227.319 79.9415" stroke="white" stroke-width="1.20329" stroke-linecap="round"/>
</g>
</g>
<defs>
<clipPath id="clip0_19_33">
<rect width="198" height="160" fill="white" transform="translate(30 40)"/>
</clipPath>
</defs>
</svg>
