<svg width="198" height="160" viewBox="0 0 198 160" fill="none" xmlns="http://www.w3.org/2000/svg">
<mask id="mask0_19_36" style="mask-type:luminance" maskUnits="userSpaceOnUse" x="0" y="0" width="198" height="160">
<path d="M198 0H0V159.797H198V0Z" fill="white"/>
</mask>
<g mask="url(#mask0_19_36)">
<path d="M29.2199 136.221V138.182L27.5647 136.947C27.3791 136.808 27.178 136.715 26.9924 136.669C26.8377 136.638 26.6366 136.623 26.3891 136.623C25.0588 136.623 24.0533 137.148 23.3882 138.213C22.8313 139.093 22.5528 140.251 22.5528 141.656C22.5528 143.061 22.8777 144.558 23.5428 145.392C24.2389 146.288 25.198 146.72 26.4355 146.674H26.8841C26.8841 146.658 27.673 146.596 27.673 146.596V144.311C27.673 144.049 27.6266 143.817 27.5183 143.617L27.0388 142.644H29.7922L29.3591 143.601C29.2353 143.848 29.1735 144.126 29.1735 144.435V146.998C28.1061 147.245 27.0233 147.384 25.9096 147.384C24.3318 147.384 23.0788 146.905 22.1816 145.948C21.2844 144.991 20.8358 143.632 20.8358 141.903C20.8358 140.174 21.3463 138.537 22.3518 137.487C23.3727 136.437 24.7803 135.912 26.6057 135.912C28.431 135.912 27.6421 135.928 27.9514 135.974C28.0752 135.99 28.2299 136.005 28.4619 136.036C28.663 136.067 28.926 136.129 29.2353 136.221H29.2199Z" fill="white" stroke="white" stroke-width="0.171899" stroke-miterlimit="10"/>
<path d="M38.0687 142.86H32.8558C32.8558 144.049 33.1342 144.929 33.7066 145.485C34.2789 146.04 35.0523 146.334 36.0423 146.334C37.0323 146.334 36.2434 146.334 36.3362 146.334L37.187 146.287L38.1152 146.133C37.682 146.519 37.187 146.812 36.6456 147.013C36.0733 147.229 35.5009 147.322 34.8977 147.322C33.7839 147.322 32.8867 146.936 32.2525 146.179C31.6492 145.469 31.3398 144.527 31.3398 143.4C31.3398 142.273 31.4327 142.335 31.6028 141.81C31.773 141.285 32.0205 140.837 32.3298 140.467C32.6392 140.096 33.0414 139.803 33.5209 139.571C34.0005 139.34 34.48 139.216 34.9595 139.216C35.9495 139.216 36.692 139.525 37.218 140.143C37.7903 140.837 38.0687 141.748 38.0687 142.891V142.86ZM36.3517 141.98C36.3517 141.285 36.2125 140.745 35.9495 140.359C35.702 140.004 35.3153 139.818 34.8048 139.818C34.2944 139.818 33.7684 140.034 33.4436 140.482C33.0723 140.976 32.8867 141.609 32.8867 142.397L36.3672 141.98H36.3517Z" fill="white" stroke="white" stroke-width="0.171899" stroke-miterlimit="10"/>
<path d="M43.3121 139.834C42.5387 139.834 41.9818 140.204 41.6415 140.946C41.3785 141.501 41.2393 142.196 41.2393 143.061C41.2393 143.925 41.3785 144.79 41.657 145.438C42.0282 146.334 42.616 146.782 43.4359 146.782C44.2557 146.782 44.7662 146.411 45.1065 145.67C45.3695 145.114 45.5087 144.419 45.5087 143.555C45.5087 142.69 45.3695 141.856 45.091 141.193C44.7043 140.297 44.1165 139.849 43.3276 139.849L43.3121 139.834ZM39.5842 143.292C39.5842 142.15 39.94 141.177 40.636 140.405C41.3631 139.602 42.2912 139.185 43.4204 139.185C44.5496 139.185 45.4623 139.602 46.1584 140.421C46.8081 141.193 47.1484 142.165 47.1484 143.308C47.1484 144.45 46.8081 145.438 46.112 146.195C45.4004 146.982 44.4723 147.384 43.3121 147.384C42.152 147.384 41.3321 146.998 40.636 146.226C39.94 145.454 39.5996 144.466 39.5996 143.277L39.5842 143.292Z" fill="white" stroke="white" stroke-width="0.171899" stroke-miterlimit="10"/>
<path d="M58.2085 139.463V141.27C57.9764 141.084 57.6207 140.837 57.1721 140.513C56.8472 140.281 56.6306 140.143 56.5224 140.081C56.2285 139.911 55.981 139.818 55.8108 139.818C55.5324 139.818 55.2694 139.926 55.0374 140.143C54.8053 140.359 54.6971 140.621 54.6971 140.945C54.6971 141.27 54.7899 141.409 54.96 141.64C55.223 141.887 55.5014 142.088 55.8263 142.258L56.971 142.86C57.4814 143.122 57.8527 143.385 58.0692 143.632C58.3631 143.956 58.5024 144.373 58.5024 144.867C58.5024 145.639 58.2394 146.241 57.7289 146.689C57.2185 147.137 56.4914 147.353 55.5478 147.353C54.6042 147.353 54.1402 147.229 53.3049 146.967V145.068C53.4132 145.145 53.7689 145.438 54.4032 145.917C54.6042 146.071 54.8363 146.241 55.0838 146.426C55.3932 146.612 55.6561 146.72 55.8572 146.72C56.1975 146.72 56.4914 146.596 56.7389 146.349C56.9864 146.102 57.1102 145.793 57.1102 145.454C57.1102 145.114 57.0328 144.929 56.8782 144.728C56.8008 144.62 56.6925 144.527 56.5688 144.419C56.4141 144.327 56.2439 144.234 56.0428 144.126L55.1611 143.694C54.5888 143.4 54.1557 143.076 53.8463 142.721C53.5524 142.35 53.4131 141.934 53.4131 141.486C53.4131 140.76 53.6916 140.173 54.2485 139.772C54.7435 139.401 55.3777 139.216 56.1356 139.216H56.5069C56.6616 139.216 56.8627 139.232 57.0947 139.278L58.2085 139.479V139.463Z" fill="white" stroke="white" stroke-width="0.171899" stroke-miterlimit="10"/>
<path d="M62.2154 139.124V144.697C62.2154 145.67 62.4165 146.473 62.8342 147.137H60.1735C60.2354 147.013 60.3437 146.828 60.4674 146.581C60.5293 146.442 60.5912 146.272 60.6531 146.056C60.7614 145.685 60.8078 145.222 60.8078 144.697V141.47C60.8078 141.146 60.7614 140.837 60.6531 140.56C60.5603 140.282 60.3746 139.957 60.1271 139.587L62.2154 139.139V139.124ZM61.4574 135.341C61.7204 135.341 61.937 135.434 62.1071 135.603C62.2773 135.773 62.3701 135.989 62.3701 136.252C62.3701 136.514 62.2928 136.777 62.1226 136.931C61.9834 137.086 61.7668 137.178 61.4574 137.178C61.1481 137.178 60.9624 137.101 60.8078 136.931C60.6531 136.761 60.5757 136.545 60.5757 136.267C60.5757 135.989 60.6531 135.804 60.8232 135.603C61.0089 135.434 61.2254 135.341 61.4574 135.341Z" fill="white" stroke="white" stroke-width="0.171899" stroke-miterlimit="10"/>
<path d="M69.9644 140.251L69.3302 140.05L68.6496 139.988C67.8297 139.988 67.1955 140.266 66.716 140.837C66.2519 141.409 66.0199 142.196 66.0199 143.215C66.0199 144.234 66.2674 145.006 66.7778 145.531C67.3192 146.102 68.0617 146.365 68.9744 146.318H69.3766C69.3766 146.303 69.9335 146.21 69.9335 146.21V140.251H69.9644ZM71.3721 135.125V144.45C71.3721 145.485 71.5886 146.318 72.0372 146.921L69.9644 147.368V146.365C69.4694 146.704 69.0363 146.967 68.6496 147.106C68.2474 147.26 67.8607 147.353 67.5203 147.353C66.6696 147.353 65.958 146.982 65.3702 146.257C64.7824 145.531 64.4885 144.62 64.4885 143.539C64.4885 142.459 64.8133 141.486 65.463 140.606C66.1746 139.664 67.0563 139.185 68.1082 139.185C69.16 139.185 69.4075 139.371 69.9644 139.726V137.919C69.9644 137.518 69.918 137.163 69.8097 136.87C69.7169 136.576 69.5003 136.159 69.16 135.619L71.3566 135.109L71.3721 135.125Z" fill="white" stroke="white" stroke-width="0.171899" stroke-miterlimit="10"/>
<path d="M80.4068 142.86H75.1938C75.1938 144.049 75.4723 144.929 76.0446 145.485C76.617 146.04 77.3904 146.334 78.3959 146.334C79.4013 146.334 78.597 146.334 78.6898 146.334L79.5405 146.287L80.4687 146.133C80.0355 146.519 79.5405 146.812 78.9991 147.013C78.4268 147.229 77.8545 147.322 77.2512 147.322C76.1374 147.322 75.2402 146.936 74.606 146.179C74.0027 145.469 73.6934 144.527 73.6934 143.4C73.6934 142.273 73.7862 142.335 73.9563 141.81C74.1265 141.285 74.374 140.837 74.6834 140.467C74.9927 140.096 75.3949 139.803 75.8745 139.571C76.354 139.34 76.8335 139.216 77.313 139.216C78.303 139.216 79.0456 139.525 79.5715 140.143C80.1438 140.837 80.4223 141.748 80.4223 142.891L80.4068 142.86ZM78.6898 141.98C78.6898 141.285 78.5505 140.745 78.2876 140.359C78.0401 140.004 77.6534 139.818 77.1429 139.818C76.6324 139.818 76.1065 140.034 75.7816 140.482C75.4104 140.976 75.2248 141.609 75.2248 142.397L78.7052 141.98H78.6898Z" fill="white" stroke="white" stroke-width="0.171899" stroke-miterlimit="10"/>
<path d="M84.0259 139.124V140.05L84.985 139.602C85.2944 139.463 85.5264 139.386 85.6811 139.355C86.0059 139.247 86.3463 139.185 86.6866 139.185C87.3672 139.185 87.8931 139.463 88.2644 140.035C88.6202 139.865 89.177 139.649 89.9195 139.371C90.3527 139.247 90.7239 139.185 91.0487 139.185C91.8841 139.185 92.4719 139.463 92.7967 140.035C93.0597 140.482 93.1989 141.146 93.1989 142.042V144.79C93.1989 145.685 93.4 146.473 93.8177 147.121H91.1725C91.3581 146.812 91.5128 146.457 91.6211 146.056C91.7139 145.716 91.7758 145.253 91.7758 144.682V142.52C91.7758 141.609 91.6056 140.992 91.2653 140.668C90.8941 140.312 90.2753 140.143 89.3781 140.174H88.8986C88.7594 140.189 88.5737 140.204 88.3417 140.22C88.4655 140.405 88.5273 140.621 88.5428 140.853L88.6047 142.042V144.682C88.6047 145.639 88.8213 146.457 89.2389 147.121H86.5783C86.9959 146.426 87.197 145.608 87.197 144.682V142.52C87.197 141.671 87.0269 141.069 86.702 140.714C86.3463 140.328 85.7739 140.158 84.9695 140.189H84.5519C84.5519 140.204 84.0259 140.235 84.0259 140.235V144.697C84.0259 145.655 84.2425 146.473 84.6602 147.137H81.9995C82.4172 146.442 82.6183 145.624 82.6183 144.697V141.47C82.6183 140.853 82.4017 140.235 81.9531 139.587L84.0259 139.139V139.124Z" fill="white" stroke="white" stroke-width="0.171899" stroke-miterlimit="10"/>
<path d="M98.9702 139.834C98.1967 139.834 97.6398 140.204 97.2995 140.946C97.0366 141.501 96.8973 142.196 96.8973 143.061C96.8973 143.925 97.0366 144.79 97.315 145.438C97.6862 146.334 98.2741 146.782 99.0939 146.782C99.9137 146.782 100.424 146.411 100.765 145.67C101.028 145.114 101.167 144.419 101.167 143.555C101.167 142.69 101.027 141.856 100.749 141.193C100.362 140.297 99.7745 139.849 98.9856 139.849L98.9702 139.834ZM95.2422 143.292C95.2422 142.15 95.598 141.177 96.2941 140.405C97.0211 139.602 97.9492 139.185 99.0784 139.185C100.208 139.185 101.12 139.602 101.816 140.421C102.466 141.193 102.806 142.165 102.806 143.308C102.806 144.45 102.466 145.438 101.77 146.195C101.058 146.982 100.13 147.384 98.9702 147.384C97.81 147.384 96.9902 146.998 96.2941 146.226C95.598 145.454 95.2577 144.466 95.2577 143.277L95.2422 143.292Z" fill="white" stroke="white" stroke-width="0.171899" stroke-miterlimit="10"/>
<path d="M106.317 139.124V143.786C106.317 144.805 106.471 145.454 106.765 145.763C107.09 146.087 107.647 146.241 108.436 146.21H108.962C108.962 146.195 109.689 146.133 109.689 146.133V141.44C109.689 141.115 109.643 140.807 109.534 140.529C109.441 140.251 109.256 139.927 109.008 139.556L111.112 139.108V144.975C111.112 145.269 111.174 145.577 111.282 145.886C111.406 146.195 111.561 146.519 111.793 146.828L109.689 147.307V146.272C109.055 146.627 108.529 146.874 108.111 147.013C107.663 147.168 107.245 147.245 106.889 147.245C106.178 147.245 105.667 147.044 105.358 146.643C105.048 146.241 104.909 145.562 104.909 144.62V141.455C104.909 141.131 104.863 140.822 104.754 140.544C104.662 140.266 104.476 139.942 104.229 139.571L106.317 139.124Z" fill="white" stroke="white" stroke-width="0.171899" stroke-miterlimit="10"/>
<path d="M115.413 139.124V140.05C115.722 139.911 116.078 139.772 116.48 139.618C116.743 139.525 117.006 139.432 117.238 139.355C117.609 139.247 117.965 139.185 118.275 139.185C119.574 139.185 120.208 140.143 120.208 142.042V144.682C120.208 145.639 120.425 146.457 120.842 147.121H118.182C118.599 146.411 118.816 145.593 118.816 144.682V142.52C118.816 141.64 118.646 141.038 118.305 140.698C117.934 140.328 117.315 140.158 116.449 140.189H115.939C115.815 140.204 115.645 140.22 115.428 140.235V144.79C115.428 145.685 115.629 146.473 116.047 147.121H113.402C113.587 146.828 113.742 146.473 113.866 146.056C113.959 145.716 114.021 145.253 114.021 144.682V141.455C114.021 140.822 113.804 140.189 113.355 139.571L115.444 139.124H115.413Z" fill="white" stroke="white" stroke-width="0.171899" stroke-miterlimit="10"/>
<path d="M124.368 137.055V139.293H126.967V140.05H124.368V144.651C124.368 145.346 124.492 145.809 124.724 146.04C125.018 146.257 125.498 146.349 126.178 146.334H126.72C126.72 146.318 127.354 146.241 127.354 146.241C126.936 146.565 126.503 146.843 126.039 147.059C125.498 147.245 125.064 147.337 124.724 147.337C124.059 147.337 123.579 147.168 123.317 146.812C123.054 146.488 122.93 145.824 122.93 144.867V140.065H121.569C122.744 139.077 123.672 138.089 124.353 137.07L124.368 137.055Z" fill="white" stroke="white" stroke-width="0.171899" stroke-miterlimit="10"/>
<path d="M137.966 140.251L137.332 140.05L136.651 139.988C135.831 139.988 135.197 140.266 134.718 140.837C134.254 141.409 134.022 142.196 134.022 143.215C134.022 144.234 134.269 145.006 134.78 145.531C135.321 146.102 136.064 146.365 136.976 146.318H137.378C137.378 146.303 137.935 146.21 137.935 146.21V140.251H137.966ZM139.374 135.125V144.45C139.374 145.485 139.59 146.318 140.039 146.92L137.966 147.368V146.365C137.471 146.704 137.038 146.967 136.651 147.106C136.249 147.26 135.862 147.353 135.522 147.353C134.671 147.353 133.96 146.982 133.372 146.257C132.784 145.531 132.49 144.62 132.49 143.539C132.49 142.459 132.815 141.486 133.465 140.606C134.176 139.664 135.058 139.185 136.11 139.185C137.162 139.185 137.409 139.371 137.966 139.726V137.919C137.966 137.518 137.92 137.163 137.811 136.869C137.719 136.576 137.502 136.159 137.162 135.619L139.358 135.109L139.374 135.125Z" fill="white" stroke="white" stroke-width="0.171899" stroke-miterlimit="10"/>
<path d="M143.782 139.124V144.697C143.782 145.67 143.983 146.473 144.401 147.137H141.74C141.802 147.013 141.91 146.828 142.034 146.581C142.096 146.442 142.158 146.272 142.219 146.056C142.328 145.685 142.374 145.222 142.374 144.697V141.47C142.374 141.146 142.328 140.837 142.219 140.56C142.127 140.282 141.941 139.957 141.694 139.587L143.782 139.139V139.124ZM143.024 135.341C143.287 135.341 143.503 135.434 143.674 135.603C143.844 135.773 143.937 135.989 143.937 136.252C143.937 136.514 143.859 136.777 143.689 136.931C143.55 137.086 143.333 137.178 143.024 137.178C142.714 137.178 142.529 137.101 142.374 136.931C142.219 136.761 142.142 136.545 142.142 136.267C142.142 135.989 142.219 135.804 142.39 135.603C142.575 135.434 142.792 135.341 143.024 135.341Z" fill="white" stroke="white" stroke-width="0.171899" stroke-miterlimit="10"/>
<path d="M144.988 139.294H148.02L147.973 139.371C147.71 139.818 147.571 140.112 147.571 140.235L147.602 140.529L147.695 140.899L149.366 145.855L150.959 140.451L150.99 140.127C150.99 140.019 150.959 139.911 150.897 139.772L150.572 139.278H152.939C152.444 139.726 152.011 140.421 151.64 141.393L149.428 147.198H148.438L146.396 141.625C146.071 140.637 145.591 139.849 144.973 139.278L144.988 139.294Z" fill="white" stroke="white" stroke-width="0.171899" stroke-miterlimit="10"/>
<path d="M155.709 139.124V144.697C155.709 145.67 155.91 146.473 156.328 147.137H153.668C153.729 147.013 153.838 146.828 153.961 146.581C154.023 146.442 154.085 146.272 154.147 146.056C154.255 145.685 154.302 145.222 154.302 144.697V141.47C154.302 141.146 154.255 140.837 154.147 140.559C154.054 140.282 153.869 139.957 153.621 139.587L155.709 139.139V139.124ZM154.951 135.341C155.214 135.341 155.431 135.434 155.601 135.603C155.771 135.773 155.864 135.989 155.864 136.252C155.864 136.514 155.787 136.777 155.617 136.931C155.493 137.086 155.261 137.178 154.951 137.178C154.642 137.178 154.456 137.101 154.302 136.931C154.147 136.761 154.07 136.545 154.07 136.267C154.07 135.989 154.147 135.804 154.317 135.603C154.503 135.434 154.719 135.341 154.951 135.341Z" fill="white" stroke="white" stroke-width="0.171899" stroke-miterlimit="10"/>
<path d="M160.055 139.124V140.05C160.365 139.911 160.721 139.772 161.123 139.618C161.386 139.525 161.649 139.432 161.881 139.355C162.252 139.247 162.608 139.185 162.917 139.185C164.216 139.185 164.851 140.143 164.851 142.042V144.682C164.851 145.639 165.052 146.457 165.485 147.121H162.824C163.242 146.411 163.459 145.593 163.459 144.682V142.52C163.459 141.64 163.288 141.038 162.948 140.698C162.577 140.328 161.958 140.158 161.092 140.189H160.581C160.458 140.204 160.287 140.22 160.071 140.235V144.79C160.071 145.685 160.272 146.473 160.69 147.121H158.044C158.23 146.828 158.385 146.473 158.509 146.056C158.601 145.716 158.663 145.253 158.663 144.682V141.455C158.663 140.822 158.447 140.189 157.998 139.571L160.086 139.124H160.055Z" fill="white" stroke="white" stroke-width="0.171899" stroke-miterlimit="10"/>
<path d="M168.578 147.029C168.454 147.183 168.361 147.307 168.315 147.384C168.268 147.461 168.206 147.584 168.144 147.723C168.036 147.97 167.99 148.187 167.99 148.372C167.99 148.881 168.237 149.267 168.748 149.53C169.15 149.746 169.629 149.839 170.186 149.839C170.743 149.839 171.377 149.7 171.888 149.437C172.522 149.098 172.831 148.65 172.831 148.094C172.831 147.538 172.677 147.399 172.352 147.26C172.151 147.168 171.795 147.121 171.3 147.121H169.057C169.057 147.106 168.608 147.013 168.608 147.013L168.578 147.029ZM170.001 139.772C169.073 139.772 168.608 140.359 168.608 141.517C168.608 142.675 168.732 142.536 168.98 142.953C169.274 143.447 169.676 143.694 170.171 143.694C170.666 143.694 170.929 143.509 171.192 143.153C171.408 142.829 171.517 142.443 171.517 142.011C171.517 141.579 171.408 140.961 171.192 140.544C170.913 140.035 170.527 139.772 170.001 139.772ZM174.316 139.185V140.405L172.043 139.88C172.46 140.22 172.739 140.668 172.862 141.208C172.909 141.378 172.924 141.548 172.924 141.733C172.924 142.505 172.646 143.123 172.104 143.586C171.594 144.033 170.929 144.25 170.155 144.25H169.8L169.366 144.188L169.212 144.589L169.165 144.898C169.165 145.191 169.258 145.392 169.428 145.531C169.598 145.655 169.923 145.716 170.403 145.716H171.872C172.553 145.716 173.033 145.824 173.342 146.025C173.698 146.272 173.883 146.72 173.883 147.353C173.883 147.986 173.79 148.171 173.589 148.588C173.218 149.375 172.491 149.962 171.408 150.333C170.882 150.518 170.341 150.611 169.8 150.611C169.258 150.611 168.423 150.487 167.789 150.225C166.969 149.885 166.567 149.422 166.567 148.804C166.567 148.187 166.675 148.248 166.891 148.017C167.123 147.785 167.603 147.415 168.361 146.905C167.881 146.72 167.649 146.396 167.649 145.932C167.649 145.469 168.175 144.836 169.212 144.172C168.562 144.064 168.067 143.802 167.696 143.4C167.309 142.984 167.123 142.459 167.123 141.81C167.123 141.162 167.417 140.359 167.99 139.865C168.531 139.402 169.227 139.185 170.047 139.185C170.867 139.185 171.238 139.371 171.795 139.726L174.285 139.185H174.316Z" fill="white" stroke="white" stroke-width="0.171899" stroke-miterlimit="10"/>
<path d="M64.8442 151.707C64.9216 151.707 64.9525 151.753 64.9525 151.815C64.9525 151.877 64.9371 151.969 64.8907 152.031L61.9516 157.188H63.5139C64.3802 157.188 64.6122 157.018 64.8597 156.647C64.9216 156.555 64.9371 156.539 65.0144 156.539H65.0453C65.1227 156.539 65.1382 156.57 65.1072 156.694L64.968 157.28C64.9216 157.466 64.8752 157.481 64.6432 157.481H61.1317C61.0544 157.481 61.008 157.435 61.008 157.342C61.008 157.249 61.0389 157.203 61.0699 157.157L64.0708 151.985H62.7405C61.8278 151.985 61.6267 152.154 61.4257 152.51C61.3792 152.587 61.3638 152.618 61.2864 152.618H61.2555C61.1782 152.618 61.1627 152.587 61.1782 152.463L61.271 151.892C61.3019 151.707 61.3483 151.691 61.5803 151.691H64.8442V151.707Z" fill="white" stroke="white" stroke-width="0.171899" stroke-miterlimit="10"/>
<path d="M67.4902 153.173C68.5884 153.173 68.9906 153.884 68.9906 154.918C68.9906 155.953 68.9442 155.366 68.8205 155.366H66.5466C66.5466 156.802 67.0106 157.249 67.8769 157.249C68.7431 157.249 68.5111 157.172 68.7895 157.033C68.8514 157.002 68.8978 157.002 68.9288 157.064L68.9597 157.141C68.9906 157.203 68.9752 157.234 68.9133 157.28C68.6039 157.466 68.1708 157.589 67.6913 157.589C66.5002 157.589 65.7422 156.817 65.7422 155.397C65.7422 153.976 66.3455 153.173 67.4747 153.173H67.4902ZM67.4902 153.451C66.9642 153.451 66.6084 153.945 66.562 155.057H67.9542C68.2327 155.057 68.2636 154.98 68.2636 154.717C68.2636 153.915 67.9852 153.467 67.4902 153.467V153.451Z" fill="white" stroke="white" stroke-width="0.171899" stroke-miterlimit="10"/>
<path d="M75.3475 157.527H74.6978C74.5586 157.527 74.5586 157.481 74.5895 157.342C74.6359 157.111 74.6514 156.956 74.6514 156.03V154.764C74.6514 153.992 74.4967 153.59 74.0481 153.59C73.5995 153.59 73.12 154.208 73.0891 155.273V156.169C73.0891 156.972 73.12 157.141 73.1509 157.358C73.1819 157.497 73.1664 157.543 73.0426 157.543H72.393C72.2537 157.543 72.2537 157.497 72.2847 157.358C72.3311 157.172 72.3466 157.033 72.3466 156.478V154.671C72.3311 154.007 72.1764 153.59 71.7433 153.59C71.3101 153.59 70.7842 154.239 70.7842 155.35V156.03C70.7842 156.956 70.8151 157.111 70.8461 157.342C70.877 157.481 70.8616 157.527 70.7378 157.527H70.0881C69.9489 157.527 69.9334 157.481 69.9798 157.342C70.0108 157.141 70.0417 157.003 70.0417 156.4V154.609C70.0417 154.146 69.9798 153.606 69.9334 153.405C69.9025 153.313 69.9334 153.251 70.0417 153.251H70.2119C70.645 153.251 70.7842 153.39 70.7997 154.131C71.0162 153.482 71.4803 153.158 72.0062 153.158C72.5322 153.158 72.9653 153.482 73.0736 154.208C73.2592 153.513 73.7233 153.158 74.2956 153.158C74.868 153.158 75.4094 153.621 75.4094 154.733V156.122C75.4094 156.925 75.4403 157.095 75.4867 157.311C75.5176 157.45 75.4867 157.497 75.3784 157.497L75.3475 157.527Z" fill="white" stroke="white" stroke-width="0.171899" stroke-miterlimit="10"/>
<path d="M78.9987 153.251H79.6948C79.8186 153.251 79.834 153.282 79.8186 153.405C79.7721 153.652 79.7722 154.1 79.7722 154.609V156.447C79.7722 157.11 79.8959 157.388 79.8959 157.45C79.8959 157.512 79.865 157.543 79.7722 157.543H79.6639C79.2926 157.543 79.0915 157.311 79.0296 156.74C78.8286 157.234 78.4264 157.574 77.854 157.574C77.2817 157.574 76.6165 157.157 76.6165 156.169V154.702C76.6165 154.177 76.5546 153.606 76.4928 153.405C76.4618 153.312 76.4773 153.251 76.5856 153.251H77.2817C77.39 153.251 77.4209 153.282 77.39 153.405C77.3436 153.652 77.3436 154.1 77.3436 154.609V156.091C77.3436 156.755 77.5292 157.188 77.9932 157.188C78.4573 157.188 78.349 157.141 78.5037 157.002C78.7976 156.74 79.0142 156.215 79.0142 155.119V154.609C79.0142 154.1 78.9523 153.59 78.8904 153.405C78.8595 153.312 78.875 153.251 78.9832 153.251H78.9987ZM79.0451 152.726H77.2972C77.2198 152.726 77.1579 152.679 77.1579 152.587V152.479C77.1579 152.386 77.2043 152.34 77.2817 152.34H79.0296C79.107 152.34 79.1689 152.371 79.1689 152.463V152.571C79.1689 152.664 79.1225 152.71 79.0296 152.71L79.0451 152.726Z" fill="white" stroke="white" stroke-width="0.171899" stroke-miterlimit="10"/>
<path d="M84.2425 156.478C84.2425 157.126 84.3663 157.388 84.3663 157.45C84.3663 157.512 84.3198 157.543 84.2425 157.543H84.1342C83.763 157.543 83.5464 157.311 83.5 156.709C83.4227 156.91 83.3144 157.064 83.1906 157.203C82.9431 157.435 82.6647 157.574 82.278 157.574C81.4581 157.574 80.793 156.987 80.793 155.567C80.793 154.146 81.4736 153.174 82.6028 153.174C83.732 153.174 83.2834 153.328 83.4845 153.513V152.741C83.4845 152.201 83.4381 151.722 83.3917 151.537C83.3608 151.444 83.3917 151.383 83.5 151.383H84.0414C84.1961 151.383 84.2425 151.444 84.2425 151.63V156.478ZM82.4945 157.188C83.0978 157.188 83.4381 156.663 83.5 155.443V153.93C83.3298 153.683 83.0514 153.529 82.6956 153.529C81.9377 153.529 81.6128 154.409 81.6128 155.567C81.6128 156.725 81.8758 157.188 82.4791 157.188H82.4945Z" fill="white" stroke="white" stroke-width="0.171899" stroke-miterlimit="10"/>
<path d="M87.0273 153.173C88.1255 153.173 88.5277 153.884 88.5277 154.918C88.5277 155.953 88.4813 155.366 88.3576 155.366H86.0837C86.0837 156.802 86.5477 157.249 87.414 157.249C88.2802 157.249 88.0482 157.172 88.3266 157.033C88.3885 157.002 88.4349 157.002 88.4659 157.064L88.4968 157.141C88.5277 157.203 88.5123 157.234 88.4504 157.28C88.141 157.466 87.7079 157.589 87.2284 157.589C86.0373 157.589 85.2793 156.817 85.2793 155.397C85.2793 153.976 85.8826 153.173 87.0118 153.173H87.0273ZM87.0273 153.451C86.5013 153.451 86.1455 153.945 86.0991 155.057H87.4913C87.7698 155.057 87.8007 154.98 87.8007 154.717C87.8007 153.915 87.5223 153.467 87.0273 153.467V153.451Z" fill="white" stroke="white" stroke-width="0.171899" stroke-miterlimit="10"/>
<path d="M92.6879 157.527H92.0382C91.9144 157.527 91.8989 157.481 91.9299 157.342C91.9763 157.126 91.9918 156.956 91.9918 156.138V154.856C91.9918 154.023 91.8061 153.59 91.3575 153.59C90.615 153.59 90.3211 154.548 90.3211 155.69V156.03C90.3211 156.956 90.3521 157.111 90.383 157.342C90.4139 157.481 90.3985 157.527 90.2747 157.527H89.625C89.4858 157.527 89.4704 157.481 89.5168 157.342C89.5632 157.111 89.5786 156.956 89.5786 156.03V154.563C89.5786 154.115 89.5168 153.59 89.4704 153.421C89.4394 153.328 89.4703 153.266 89.5786 153.266H89.7488C90.1974 153.266 90.3211 153.421 90.3366 154.177C90.5377 153.621 90.9399 153.189 91.6205 153.189C92.3011 153.189 92.7652 153.668 92.7652 154.795V156.153C92.7652 156.972 92.7807 157.141 92.8271 157.358C92.858 157.497 92.8425 157.543 92.7188 157.543L92.6879 157.527Z" fill="white" stroke="white" stroke-width="0.171899" stroke-miterlimit="10"/>
<path d="M95.1323 157.234C95.6427 157.234 95.9057 156.971 95.9057 156.555C95.9057 155.397 93.771 155.922 93.771 154.393C93.771 152.865 94.2815 153.173 95.1477 153.173C96.014 153.173 96.1841 153.42 96.3388 153.575C96.4007 153.637 96.4162 153.683 96.3852 153.776L96.2305 154.27C96.2151 154.316 96.1996 154.331 96.1532 154.331H96.1068C96.0604 154.331 96.0294 154.3 96.0294 154.254C95.9212 153.791 95.5963 153.482 95.0859 153.482C94.5754 153.482 94.3898 153.776 94.3898 154.131C94.3898 155.227 96.509 154.686 96.509 156.323C96.509 157.96 96.014 157.574 95.1013 157.574C94.1887 157.574 94.0185 157.373 93.8484 157.234C93.771 157.172 93.7555 157.11 93.771 157.033L93.9257 156.447C93.9412 156.369 93.9566 156.369 94.0185 156.369H94.0649C94.1113 156.369 94.1423 156.369 94.1732 156.477C94.2969 157.018 94.6837 157.234 95.1632 157.234H95.1323Z" fill="white" stroke="white" stroke-width="0.171899" stroke-miterlimit="10"/>
<path d="M99.8822 159.519H99.2325C99.0932 159.519 99.0778 159.473 99.1242 159.334C99.1706 159.102 99.1861 158.948 99.1861 158.021V154.702C99.1861 154.223 99.1397 153.606 99.0778 153.405C99.0468 153.312 99.0778 153.251 99.1861 153.251H99.3562C99.8048 153.251 99.944 153.405 99.944 154.193V154.254C100.068 153.698 100.501 153.158 101.212 153.158C101.924 153.158 102.605 153.76 102.605 155.32C102.605 156.879 101.862 157.558 100.748 157.605C100.408 157.605 100.13 157.527 99.9286 157.419V158.021C99.9286 158.948 99.9595 159.102 99.9904 159.334C100.021 159.473 100.006 159.519 99.8822 159.519ZM100.965 153.59C100.439 153.59 99.9904 154.146 99.9286 155.52V156.987C100.145 157.172 100.439 157.25 100.687 157.25C101.336 157.25 101.8 156.786 101.8 155.366C101.8 153.945 101.444 153.59 100.949 153.59H100.965Z" fill="white" stroke="white" stroke-width="0.171899" stroke-miterlimit="10"/>
<path d="M105.172 153.173C106.27 153.173 106.672 153.884 106.672 154.918C106.672 155.952 106.626 155.366 106.502 155.366H104.228C104.228 156.802 104.692 157.249 105.559 157.249C106.425 157.249 106.193 157.172 106.471 157.033C106.533 157.002 106.58 157.002 106.611 157.064L106.642 157.141C106.672 157.203 106.657 157.234 106.595 157.28C106.286 157.466 105.853 157.589 105.373 157.589C104.182 157.589 103.424 156.817 103.424 155.397C103.424 153.976 104.027 153.173 105.157 153.173H105.172ZM105.172 153.451C104.646 153.451 104.29 153.945 104.244 155.057H105.636C105.914 155.057 105.945 154.98 105.945 154.717C105.945 153.914 105.667 153.467 105.172 153.467V153.451Z" fill="white" stroke="white" stroke-width="0.171899" stroke-miterlimit="10"/>
<path d="M108.406 157.527H107.756C107.632 157.527 107.601 157.481 107.648 157.342C107.694 157.111 107.71 156.956 107.71 156.03V152.757C107.71 152.216 107.663 151.738 107.617 151.552C107.586 151.46 107.617 151.398 107.725 151.398H108.267C108.421 151.398 108.468 151.46 108.468 151.645V156.061C108.468 156.956 108.499 157.126 108.529 157.342C108.56 157.481 108.545 157.527 108.421 157.527H108.406Z" fill="white" stroke="white" stroke-width="0.171899" stroke-miterlimit="10"/>
<path d="M112.922 156.478C112.922 157.126 113.046 157.388 113.046 157.45C113.046 157.512 112.999 157.543 112.922 157.543H112.814C112.443 157.543 112.226 157.311 112.18 156.709C112.102 156.91 111.994 157.064 111.87 157.203C111.623 157.435 111.344 157.574 110.958 157.574C110.138 157.574 109.473 156.987 109.473 155.567C109.473 154.146 110.153 153.174 111.282 153.174C112.412 153.174 111.963 153.328 112.164 153.513V152.741C112.164 152.201 112.118 151.722 112.071 151.537C112.04 151.444 112.071 151.383 112.18 151.383H112.721C112.876 151.383 112.922 151.444 112.922 151.63V156.478ZM111.174 157.188C111.777 157.188 112.118 156.663 112.18 155.443V153.93C112.009 153.683 111.731 153.529 111.375 153.529C110.617 153.529 110.292 154.409 110.292 155.567C110.292 156.725 110.555 157.188 111.159 157.188H111.174Z" fill="white" stroke="white" stroke-width="0.171899" stroke-miterlimit="10"/>
<path d="M115.707 153.173C116.805 153.173 117.207 153.884 117.207 154.918C117.207 155.953 117.161 155.366 117.037 155.366H114.763C114.763 156.802 115.227 157.249 116.094 157.249C116.96 157.249 116.728 157.172 117.006 157.033C117.068 157.002 117.115 157.002 117.146 157.064L117.176 157.141C117.207 157.203 117.192 157.234 117.13 157.28C116.821 157.466 116.388 157.589 115.908 157.589C114.717 157.589 113.959 156.817 113.959 155.397C113.959 153.976 114.562 153.173 115.691 153.173H115.707ZM115.707 153.451C115.181 153.451 114.825 153.945 114.779 155.057H116.171C116.449 155.057 116.48 154.98 116.48 154.717C116.48 153.915 116.202 153.467 115.707 153.467V153.451ZM116.573 152.726H114.825C114.748 152.726 114.686 152.679 114.686 152.587V152.479C114.686 152.386 114.732 152.34 114.81 152.34H116.558C116.635 152.34 116.697 152.371 116.697 152.463V152.571C116.697 152.664 116.651 152.71 116.558 152.71L116.573 152.726Z" fill="white" stroke="white" stroke-width="0.171899" stroke-miterlimit="10"/>
<path d="M119.388 157.234C119.898 157.234 120.161 156.972 120.161 156.555C120.161 155.397 118.027 155.922 118.027 154.393C118.027 152.865 118.537 153.174 119.403 153.174C120.27 153.174 120.44 153.421 120.579 153.575C120.641 153.637 120.656 153.683 120.625 153.776L120.471 154.27C120.455 154.316 120.44 154.331 120.393 154.331H120.347C120.3 154.331 120.27 154.301 120.27 154.254C120.161 153.791 119.836 153.482 119.326 153.482C118.816 153.482 118.63 153.776 118.63 154.131C118.63 155.227 120.749 154.687 120.749 156.323C120.749 157.96 120.254 157.574 119.341 157.574C118.429 157.574 118.259 157.373 118.088 157.234C118.011 157.172 117.996 157.111 118.011 157.033L118.166 156.447C118.181 156.369 118.197 156.369 118.259 156.369H118.305C118.351 156.369 118.382 156.369 118.413 156.478C118.537 157.018 118.924 157.234 119.403 157.234H119.388ZM119.372 152.71C119.326 152.71 119.28 152.679 119.202 152.602L118.274 151.707C118.212 151.66 118.305 151.491 118.382 151.522L119.372 152.046L120.347 151.522C120.44 151.475 120.533 151.63 120.455 151.707L119.543 152.602C119.465 152.679 119.403 152.71 119.372 152.71Z" fill="white" stroke="white" stroke-width="0.171899" stroke-miterlimit="10"/>
<path d="M124.663 157.543H124.555C124.23 157.543 124.013 157.358 123.936 156.879C123.75 157.296 123.379 157.574 122.73 157.574C122.08 157.574 121.477 157.25 121.477 156.447C121.477 155.644 122.188 155.134 123.565 155.134H123.905V154.872C123.905 153.868 123.565 153.529 122.992 153.529C122.42 153.529 122.219 153.791 122.064 154.162C122.018 154.254 122.003 154.27 121.956 154.27H121.894C121.863 154.27 121.848 154.239 121.817 154.162L121.755 153.714C121.724 153.621 121.74 153.56 121.832 153.498C121.956 153.405 122.436 153.189 123.023 153.189C124.029 153.189 124.663 153.745 124.663 155.026V156.447C124.663 157.111 124.771 157.388 124.771 157.45C124.771 157.512 124.74 157.543 124.663 157.543ZM122.25 156.4C122.25 156.956 122.513 157.219 122.931 157.219C123.565 157.219 123.905 156.647 123.921 156.061V155.428H123.596C122.59 155.428 122.25 155.767 122.25 156.416V156.4Z" fill="white" stroke="white" stroke-width="0.171899" stroke-miterlimit="10"/>
<path d="M129.01 157.527H128.36C128.237 157.527 128.221 157.481 128.252 157.342C128.299 157.126 128.314 156.956 128.314 156.138V154.856C128.314 154.023 128.128 153.59 127.68 153.59C126.937 153.59 126.643 154.548 126.643 155.69V156.03C126.643 156.956 126.674 157.111 126.705 157.342C126.736 157.481 126.721 157.527 126.597 157.527H125.947C125.808 157.527 125.793 157.481 125.839 157.342C125.885 157.111 125.901 156.956 125.901 156.03V154.563C125.901 154.115 125.839 153.59 125.793 153.421C125.762 153.328 125.793 153.266 125.901 153.266H126.071C126.52 153.266 126.643 153.421 126.659 154.177C126.86 153.621 127.262 153.189 127.943 153.189C128.623 153.189 129.087 153.668 129.087 154.795V156.153C129.087 156.972 129.103 157.141 129.149 157.358C129.18 157.497 129.165 157.543 129.041 157.543L129.01 157.527Z" fill="white" stroke="white" stroke-width="0.171899" stroke-miterlimit="10"/>
<path d="M133.187 157.543H133.078C132.753 157.543 132.537 157.358 132.46 156.879C132.274 157.296 131.903 157.574 131.253 157.574C130.603 157.574 130 157.25 130 156.447C130 155.644 130.712 155.134 132.088 155.134H132.429V154.872C132.429 153.868 132.088 153.529 131.516 153.529C130.944 153.529 130.742 153.791 130.588 154.162C130.541 154.254 130.526 154.27 130.48 154.27H130.418C130.387 154.27 130.371 154.239 130.34 154.162L130.278 153.714C130.247 153.621 130.263 153.56 130.356 153.498C130.48 153.405 130.959 153.189 131.531 153.189C132.537 153.189 133.171 153.745 133.171 155.026V156.447C133.171 157.111 133.279 157.388 133.279 157.45C133.279 157.512 133.248 157.543 133.171 157.543H133.187ZM130.758 156.4C130.758 156.956 131.021 157.219 131.439 157.219C132.073 157.219 132.413 156.647 132.429 156.061V155.428H132.104C131.098 155.428 130.758 155.767 130.758 156.416V156.4Z" fill="white" stroke="white" stroke-width="0.171899" stroke-miterlimit="10"/>
<path d="M29.2199 136.221V138.182L27.5647 136.947C27.3791 136.808 27.178 136.715 26.9924 136.669C26.8377 136.638 26.6366 136.623 26.3891 136.623C25.0588 136.623 24.0533 137.148 23.3882 138.213C22.8313 139.093 22.5528 140.251 22.5528 141.656C22.5528 143.061 22.8777 144.558 23.5428 145.392C24.2389 146.288 25.198 146.72 26.4355 146.674H26.8841C26.8841 146.658 27.673 146.596 27.673 146.596V144.311C27.673 144.049 27.6266 143.817 27.5183 143.617L27.0388 142.644H29.7922L29.3591 143.601C29.2353 143.848 29.1735 144.126 29.1735 144.435V146.998C28.1061 147.245 27.0233 147.384 25.9096 147.384C24.3318 147.384 23.0788 146.905 22.1816 145.948C21.2844 144.991 20.8358 143.632 20.8358 141.903C20.8358 140.174 21.3463 138.537 22.3518 137.487C23.3727 136.437 24.7803 135.912 26.6057 135.912C28.431 135.912 27.6421 135.928 27.9514 135.974C28.0752 135.99 28.2299 136.005 28.4619 136.036C28.663 136.067 28.926 136.129 29.2353 136.221H29.2199Z" fill="white" stroke="white" stroke-width="0.171899"/>
<path d="M38.0687 142.86H32.8558C32.8558 144.049 33.1342 144.929 33.7066 145.485C34.2789 146.04 35.0523 146.334 36.0423 146.334C37.0323 146.334 36.2434 146.334 36.3362 146.334L37.187 146.287L38.1152 146.133C37.682 146.519 37.187 146.812 36.6456 147.013C36.0733 147.229 35.5009 147.322 34.8977 147.322C33.7839 147.322 32.8867 146.936 32.2525 146.179C31.6492 145.469 31.3398 144.527 31.3398 143.4C31.3398 142.273 31.4327 142.335 31.6028 141.81C31.773 141.285 32.0205 140.837 32.3298 140.467C32.6392 140.096 33.0414 139.803 33.5209 139.571C34.0005 139.34 34.48 139.216 34.9595 139.216C35.9495 139.216 36.692 139.525 37.218 140.143C37.7903 140.837 38.0687 141.748 38.0687 142.891V142.86ZM36.3517 141.98C36.3517 141.285 36.2125 140.745 35.9495 140.359C35.702 140.004 35.3153 139.818 34.8048 139.818C34.2944 139.818 33.7684 140.034 33.4436 140.482C33.0723 140.976 32.8867 141.609 32.8867 142.397L36.3672 141.98H36.3517Z" fill="white" stroke="white" stroke-width="0.171899"/>
<path d="M43.3122 139.834C42.5388 139.834 41.9819 140.205 41.6416 140.946C41.3786 141.501 41.2394 142.196 41.2394 143.061C41.2394 143.925 41.3786 144.79 41.657 145.438C42.0283 146.334 42.6161 146.782 43.4359 146.782C44.2558 146.782 44.7663 146.411 45.1066 145.67C45.3695 145.114 45.5088 144.419 45.5088 143.555C45.5088 142.69 45.3695 141.857 45.0911 141.193C44.7044 140.297 44.1166 139.849 43.3277 139.849L43.3122 139.834ZM39.5842 143.292C39.5842 142.15 39.94 141.177 40.6361 140.405C41.3631 139.602 42.2913 139.186 43.4205 139.186C44.5497 139.186 45.4624 139.602 46.1584 140.421C46.8081 141.193 47.1484 142.165 47.1484 143.308C47.1484 144.45 46.8081 145.438 46.112 146.195C45.4005 146.982 44.4724 147.384 43.3122 147.384C42.152 147.384 41.3322 146.998 40.6361 146.226C39.94 145.454 39.5997 144.466 39.5997 143.277L39.5842 143.292Z" fill="white" stroke="white" stroke-width="0.171899"/>
<path d="M58.2085 139.463V141.27C57.9764 141.084 57.6207 140.837 57.1721 140.513C56.8472 140.282 56.6306 140.143 56.5224 140.081C56.2285 139.911 55.981 139.818 55.8108 139.818C55.5324 139.818 55.2694 139.926 55.0374 140.143C54.8053 140.359 54.6971 140.621 54.6971 140.945C54.6971 141.27 54.7899 141.409 54.96 141.64C55.223 141.887 55.5014 142.088 55.8263 142.258L56.971 142.86C57.4814 143.122 57.8527 143.385 58.0692 143.632C58.3631 143.956 58.5024 144.373 58.5024 144.867C58.5024 145.639 58.2394 146.241 57.7289 146.689C57.2185 147.137 56.4914 147.353 55.5478 147.353C54.6042 147.353 54.1402 147.229 53.3049 146.967V145.068C53.4132 145.145 53.7689 145.438 54.4032 145.917C54.6042 146.071 54.8363 146.241 55.0838 146.426C55.3932 146.612 55.6561 146.72 55.8572 146.72C56.1975 146.72 56.4914 146.596 56.7389 146.349C56.9864 146.102 57.1102 145.793 57.1102 145.454C57.1102 145.114 57.0328 144.929 56.8782 144.728C56.8008 144.62 56.6925 144.527 56.5688 144.419C56.4141 144.327 56.2439 144.234 56.0428 144.126L55.1611 143.694C54.5888 143.4 54.1557 143.076 53.8463 142.721C53.5524 142.35 53.4131 141.934 53.4131 141.486C53.4131 140.76 53.6916 140.173 54.2485 139.772C54.7435 139.401 55.3777 139.216 56.1356 139.216H56.5069C56.6616 139.216 56.8627 139.232 57.0947 139.278L58.2085 139.479V139.463Z" fill="white" stroke="white" stroke-width="0.171899"/>
<path d="M62.2154 139.124V144.697C62.2154 145.67 62.4165 146.473 62.8342 147.137H60.1735C60.2354 147.013 60.3437 146.828 60.4674 146.581C60.5293 146.442 60.5912 146.272 60.6531 146.056C60.7614 145.685 60.8078 145.222 60.8078 144.697V141.47C60.8078 141.146 60.7614 140.837 60.6531 140.56C60.5603 140.282 60.3746 139.957 60.1271 139.587L62.2154 139.139V139.124ZM61.4574 135.341C61.7204 135.341 61.937 135.434 62.1071 135.603C62.2773 135.773 62.3701 135.989 62.3701 136.252C62.3701 136.514 62.2928 136.777 62.1226 136.931C61.9834 137.086 61.7668 137.178 61.4574 137.178C61.1481 137.178 60.9624 137.101 60.8078 136.931C60.6531 136.761 60.5757 136.545 60.5757 136.267C60.5757 135.989 60.6531 135.804 60.8232 135.603C61.0089 135.434 61.2254 135.341 61.4574 135.341Z" fill="white" stroke="white" stroke-width="0.171899"/>
<path d="M69.9644 140.251L69.3302 140.05L68.6496 139.988C67.8297 139.988 67.1955 140.266 66.716 140.837C66.2519 141.409 66.0199 142.196 66.0199 143.215C66.0199 144.234 66.2674 145.006 66.7778 145.531C67.3192 146.102 68.0617 146.365 68.9744 146.318H69.3766C69.3766 146.303 69.9335 146.21 69.9335 146.21V140.251H69.9644ZM71.3721 135.125V144.45C71.3721 145.485 71.5886 146.318 72.0372 146.921L69.9644 147.368V146.365C69.4694 146.704 69.0363 146.967 68.6496 147.106C68.2474 147.26 67.8607 147.353 67.5203 147.353C66.6696 147.353 65.958 146.982 65.3702 146.257C64.7824 145.531 64.4885 144.62 64.4885 143.539C64.4885 142.459 64.8133 141.486 65.463 140.606C66.1746 139.664 67.0563 139.185 68.1082 139.185C69.16 139.185 69.4075 139.371 69.9644 139.726V137.919C69.9644 137.518 69.918 137.163 69.8097 136.87C69.7169 136.576 69.5003 136.159 69.16 135.619L71.3566 135.109L71.3721 135.125Z" fill="white" stroke="white" stroke-width="0.171899"/>
<path d="M80.4067 142.86H75.1937C75.1937 144.049 75.4721 144.929 76.0445 145.485C76.6168 146.04 77.3903 146.334 78.3957 146.334C79.4012 146.334 78.5968 146.334 78.6896 146.334L79.5404 146.287L80.4686 146.133C80.0354 146.519 79.5404 146.812 78.999 147.013C78.4267 147.229 77.8543 147.322 77.251 147.322C76.1373 147.322 75.2401 146.936 74.6059 146.179C74.0026 145.469 73.6932 144.527 73.6932 143.4C73.6932 142.273 73.7861 142.335 73.9562 141.81C74.1264 141.285 74.3739 140.837 74.6832 140.467C74.9926 140.096 75.3948 139.803 75.8743 139.571C76.3539 139.34 76.8334 139.216 77.3129 139.216C78.3029 139.216 79.0454 139.525 79.5714 140.143C80.1437 140.837 80.4221 141.748 80.4221 142.891L80.4067 142.86ZM78.6896 141.98C78.6896 141.285 78.5504 140.745 78.2875 140.359C78.04 140.004 77.6532 139.818 77.1428 139.818C76.6323 139.818 76.1064 140.035 75.7815 140.482C75.4103 140.976 75.2246 141.609 75.2246 142.397L78.7051 141.98H78.6896Z" fill="white" stroke="white" stroke-width="0.171899"/>
<path d="M84.0262 139.124V140.05L84.9852 139.602C85.2946 139.463 85.5266 139.386 85.6813 139.355C86.0062 139.247 86.3465 139.185 86.6868 139.185C87.3674 139.185 87.8933 139.463 88.2646 140.035C88.6204 139.865 89.1772 139.649 89.9197 139.371C90.3529 139.247 90.7241 139.185 91.049 139.185C91.8843 139.185 92.4721 139.463 92.7969 140.035C93.0599 140.482 93.1991 141.146 93.1991 142.042V144.79C93.1991 145.685 93.4002 146.473 93.8179 147.121H91.1727C91.3583 146.812 91.513 146.457 91.6213 146.056C91.7141 145.716 91.776 145.253 91.776 144.682V142.52C91.776 141.609 91.6058 140.992 91.2655 140.668C90.8943 140.312 90.2755 140.143 89.3783 140.174H88.8988C88.7596 140.189 88.574 140.204 88.3419 140.22C88.4657 140.405 88.5276 140.621 88.543 140.853L88.6049 142.042V144.682C88.6049 145.639 88.8215 146.457 89.2391 147.121H86.5785C86.9962 146.426 87.1972 145.608 87.1972 144.682V142.52C87.1972 141.671 87.0271 141.069 86.7022 140.714C86.3465 140.328 85.7741 140.158 84.9697 140.189H84.5521C84.5521 140.204 84.0262 140.235 84.0262 140.235V144.697C84.0262 145.655 84.2427 146.473 84.6604 147.137H81.9997C82.4174 146.442 82.6185 145.624 82.6185 144.697V141.47C82.6185 140.853 82.4019 140.235 81.9533 139.587L84.0262 139.139V139.124Z" fill="white" stroke="white" stroke-width="0.171899"/>
<path d="M98.9702 139.834C98.1967 139.834 97.6398 140.204 97.2995 140.945C97.0366 141.501 96.8973 142.196 96.8973 143.061C96.8973 143.925 97.0366 144.79 97.315 145.438C97.6862 146.334 98.2741 146.782 99.0939 146.782C99.9137 146.782 100.424 146.411 100.765 145.67C101.028 145.114 101.167 144.419 101.167 143.555C101.167 142.69 101.027 141.856 100.749 141.193C100.362 140.297 99.7745 139.849 98.9856 139.849L98.9702 139.834ZM95.2422 143.292C95.2422 142.15 95.598 141.177 96.2941 140.405C97.0211 139.602 97.9492 139.185 99.0784 139.185C100.208 139.185 101.12 139.602 101.816 140.421C102.466 141.193 102.806 142.165 102.806 143.308C102.806 144.45 102.466 145.438 101.77 146.195C101.058 146.982 100.13 147.384 98.9702 147.384C97.81 147.384 96.9902 146.998 96.2941 146.226C95.598 145.454 95.2577 144.466 95.2577 143.277L95.2422 143.292Z" fill="white" stroke="white" stroke-width="0.171899"/>
<path d="M106.317 139.124V143.786C106.317 144.805 106.471 145.454 106.765 145.763C107.09 146.087 107.647 146.241 108.436 146.21H108.962C108.962 146.195 109.689 146.133 109.689 146.133V141.44C109.689 141.115 109.642 140.807 109.534 140.529C109.441 140.251 109.256 139.927 109.008 139.556L111.112 139.108V144.975C111.112 145.269 111.174 145.577 111.282 145.886C111.406 146.195 111.561 146.519 111.793 146.828L109.689 147.307V146.272C109.055 146.627 108.529 146.874 108.111 147.013C107.662 147.168 107.245 147.245 106.889 147.245C106.177 147.245 105.667 147.044 105.358 146.643C105.048 146.241 104.909 145.562 104.909 144.62V141.455C104.909 141.131 104.863 140.822 104.754 140.544C104.662 140.266 104.476 139.942 104.228 139.571L106.317 139.124Z" fill="white" stroke="white" stroke-width="0.171899"/>
<path d="M115.413 139.124V140.05C115.722 139.911 116.078 139.772 116.48 139.618C116.743 139.525 117.006 139.432 117.238 139.355C117.609 139.247 117.965 139.185 118.275 139.185C119.574 139.185 120.208 140.143 120.208 142.042V144.682C120.208 145.639 120.425 146.457 120.842 147.121H118.182C118.599 146.411 118.816 145.593 118.816 144.682V142.52C118.816 141.64 118.646 141.038 118.305 140.698C117.934 140.328 117.315 140.158 116.449 140.189H115.939C115.815 140.204 115.645 140.22 115.428 140.235V144.79C115.428 145.685 115.629 146.473 116.047 147.121H113.402C113.587 146.828 113.742 146.473 113.866 146.056C113.959 145.716 114.021 145.253 114.021 144.682V141.455C114.021 140.822 113.804 140.189 113.355 139.571L115.444 139.124H115.413Z" fill="white" stroke="white" stroke-width="0.171899"/>
<path d="M124.368 137.055V139.293H126.967V140.05H124.368V144.651C124.368 145.346 124.492 145.809 124.724 146.04C125.018 146.257 125.498 146.349 126.178 146.334H126.72C126.72 146.318 127.354 146.241 127.354 146.241C126.936 146.565 126.503 146.843 126.039 147.059C125.498 147.245 125.065 147.337 124.724 147.337C124.059 147.337 123.58 147.168 123.317 146.812C123.054 146.488 122.93 145.824 122.93 144.867V140.065H121.569C122.744 139.077 123.672 138.089 124.353 137.07L124.368 137.055Z" fill="white" stroke="white" stroke-width="0.171899"/>
<path d="M137.966 140.251L137.332 140.05L136.651 139.988C135.831 139.988 135.197 140.266 134.718 140.837C134.254 141.409 134.022 142.196 134.022 143.215C134.022 144.234 134.269 145.006 134.78 145.531C135.321 146.102 136.064 146.365 136.976 146.318H137.378C137.378 146.303 137.935 146.21 137.935 146.21V140.251H137.966ZM139.374 135.125V144.45C139.374 145.485 139.59 146.318 140.039 146.92L137.966 147.368V146.365C137.471 146.704 137.038 146.967 136.651 147.106C136.249 147.26 135.862 147.353 135.522 147.353C134.671 147.353 133.96 146.982 133.372 146.257C132.784 145.531 132.49 144.62 132.49 143.539C132.49 142.459 132.815 141.486 133.465 140.606C134.176 139.664 135.058 139.185 136.11 139.185C137.162 139.185 137.409 139.371 137.966 139.726V137.919C137.966 137.518 137.92 137.163 137.811 136.869C137.719 136.576 137.502 136.159 137.162 135.619L139.358 135.109L139.374 135.125Z" fill="white" stroke="white" stroke-width="0.171899"/>
<path d="M143.782 139.124V144.697C143.782 145.67 143.983 146.473 144.401 147.137H141.74C141.802 147.013 141.91 146.828 142.034 146.581C142.096 146.442 142.158 146.272 142.22 146.056C142.328 145.685 142.374 145.222 142.374 144.697V141.47C142.374 141.146 142.328 140.837 142.22 140.56C142.127 140.282 141.941 139.957 141.694 139.587L143.782 139.139V139.124ZM143.024 135.341C143.287 135.341 143.504 135.434 143.674 135.604C143.844 135.773 143.937 135.989 143.937 136.252C143.937 136.514 143.859 136.777 143.689 136.931C143.55 137.086 143.333 137.178 143.024 137.178C142.715 137.178 142.529 137.101 142.374 136.931C142.22 136.761 142.142 136.545 142.142 136.267C142.142 135.989 142.22 135.804 142.39 135.604C142.575 135.434 142.792 135.341 143.024 135.341Z" fill="white" stroke="white" stroke-width="0.171899"/>
<path d="M144.988 139.294H148.02L147.973 139.371C147.71 139.818 147.571 140.112 147.571 140.235L147.602 140.529L147.695 140.899L149.366 145.855L150.959 140.451L150.99 140.127C150.99 140.019 150.959 139.911 150.897 139.772L150.572 139.278H152.939C152.444 139.726 152.011 140.421 151.64 141.393L149.428 147.198H148.438L146.396 141.625C146.071 140.637 145.591 139.849 144.973 139.278L144.988 139.294Z" fill="white" stroke="white" stroke-width="0.171899"/>
<path d="M155.709 139.124V144.697C155.709 145.67 155.911 146.473 156.328 147.137H153.668C153.729 147.013 153.838 146.828 153.962 146.581C154.023 146.442 154.085 146.272 154.147 146.056C154.255 145.685 154.302 145.222 154.302 144.697V141.47C154.302 141.146 154.255 140.837 154.147 140.559C154.054 140.282 153.869 139.957 153.621 139.587L155.709 139.139V139.124ZM154.952 135.341C155.214 135.341 155.431 135.434 155.601 135.603C155.771 135.773 155.864 135.989 155.864 136.252C155.864 136.514 155.787 136.777 155.617 136.931C155.493 137.086 155.261 137.178 154.952 137.178C154.642 137.178 154.457 137.101 154.302 136.931C154.147 136.761 154.07 136.545 154.07 136.267C154.07 135.989 154.147 135.804 154.317 135.603C154.503 135.434 154.719 135.341 154.952 135.341Z" fill="white" stroke="white" stroke-width="0.171899"/>
<path d="M160.055 139.124V140.05C160.365 139.911 160.721 139.772 161.123 139.618C161.386 139.525 161.649 139.432 161.881 139.355C162.252 139.247 162.608 139.185 162.917 139.185C164.216 139.185 164.851 140.143 164.851 142.042V144.682C164.851 145.639 165.052 146.457 165.485 147.121H162.824C163.242 146.411 163.459 145.593 163.459 144.682V142.52C163.459 141.64 163.288 141.038 162.948 140.698C162.577 140.328 161.958 140.158 161.092 140.189H160.581C160.458 140.204 160.287 140.22 160.071 140.235V144.79C160.071 145.685 160.272 146.473 160.69 147.121H158.044C158.23 146.828 158.385 146.473 158.509 146.056C158.601 145.716 158.663 145.253 158.663 144.682V141.455C158.663 140.822 158.447 140.189 157.998 139.571L160.086 139.124H160.055Z" fill="white" stroke="white" stroke-width="0.171899"/>
<path d="M168.577 147.029C168.454 147.183 168.361 147.307 168.314 147.384C168.268 147.461 168.206 147.584 168.144 147.723C168.036 147.97 167.99 148.187 167.99 148.372C167.99 148.881 168.237 149.267 168.748 149.53C169.15 149.746 169.629 149.839 170.186 149.839C170.743 149.839 171.377 149.7 171.888 149.437C172.522 149.098 172.831 148.65 172.831 148.094C172.831 147.538 172.677 147.399 172.352 147.26C172.151 147.168 171.795 147.121 171.3 147.121H169.057C169.057 147.106 168.608 147.013 168.608 147.013L168.577 147.029ZM170.001 139.772C169.072 139.772 168.608 140.359 168.608 141.517C168.608 142.675 168.732 142.536 168.98 142.953C169.274 143.447 169.676 143.694 170.171 143.694C170.666 143.694 170.929 143.508 171.192 143.153C171.408 142.829 171.516 142.443 171.516 142.011C171.516 141.579 171.408 140.961 171.192 140.544C170.913 140.035 170.526 139.772 170.001 139.772ZM174.316 139.185V140.405L172.042 139.88C172.46 140.22 172.739 140.668 172.862 141.208C172.909 141.378 172.924 141.548 172.924 141.733C172.924 142.505 172.646 143.122 172.104 143.586C171.594 144.033 170.929 144.25 170.155 144.25H169.799L169.366 144.188L169.212 144.589L169.165 144.898C169.165 145.191 169.258 145.392 169.428 145.531C169.598 145.655 169.923 145.716 170.403 145.716H171.872C172.553 145.716 173.032 145.824 173.342 146.025C173.698 146.272 173.883 146.72 173.883 147.353C173.883 147.986 173.79 148.171 173.589 148.588C173.218 149.375 172.491 149.962 171.408 150.333C170.882 150.518 170.341 150.611 169.799 150.611C169.258 150.611 168.423 150.487 167.788 150.225C166.969 149.885 166.566 149.422 166.566 148.804C166.566 148.187 166.675 148.248 166.891 148.017C167.123 147.785 167.603 147.415 168.361 146.905C167.881 146.72 167.649 146.396 167.649 145.932C167.649 145.469 168.175 144.836 169.212 144.172C168.562 144.064 168.067 143.802 167.696 143.4C167.309 142.984 167.123 142.459 167.123 141.81C167.123 141.162 167.417 140.359 167.99 139.865C168.531 139.402 169.227 139.185 170.047 139.185C170.867 139.185 171.238 139.371 171.795 139.726L174.285 139.185H174.316Z" fill="white" stroke="white" stroke-width="0.171899"/>
<path d="M64.8442 151.707C64.9216 151.707 64.9525 151.753 64.9525 151.815C64.9525 151.877 64.9371 151.969 64.8907 152.031L61.9516 157.188H63.5139C64.3802 157.188 64.6122 157.018 64.8597 156.647C64.9216 156.555 64.9371 156.539 65.0144 156.539H65.0453C65.1227 156.539 65.1382 156.57 65.1072 156.694L64.968 157.28C64.9216 157.466 64.8752 157.481 64.6432 157.481H61.1317C61.0544 157.481 61.008 157.435 61.008 157.342C61.008 157.249 61.0389 157.203 61.0699 157.157L64.0708 151.985H62.7405C61.8278 151.985 61.6267 152.154 61.4257 152.51C61.3792 152.587 61.3638 152.618 61.2864 152.618H61.2555C61.1782 152.618 61.1627 152.587 61.1782 152.463L61.271 151.892C61.3019 151.707 61.3483 151.691 61.5803 151.691H64.8442V151.707Z" fill="white" stroke="white" stroke-width="0.171899"/>
<path d="M67.4902 153.173C68.5884 153.173 68.9906 153.884 68.9906 154.918C68.9906 155.953 68.9442 155.366 68.8205 155.366H66.5466C66.5466 156.802 67.0106 157.249 67.8769 157.249C68.7431 157.249 68.5111 157.172 68.7895 157.033C68.8514 157.002 68.8978 157.002 68.9288 157.064L68.9597 157.141C68.9906 157.203 68.9752 157.234 68.9133 157.28C68.6039 157.466 68.1708 157.589 67.6913 157.589C66.5002 157.589 65.7422 156.817 65.7422 155.397C65.7422 153.976 66.3455 153.173 67.4747 153.173H67.4902ZM67.4902 153.451C66.9642 153.451 66.6084 153.945 66.562 155.057H67.9542C68.2327 155.057 68.2636 154.98 68.2636 154.717C68.2636 153.915 67.9852 153.467 67.4902 153.467V153.451Z" fill="white" stroke="white" stroke-width="0.171899"/>
<path d="M75.3475 157.527H74.6978C74.5586 157.527 74.5586 157.481 74.5895 157.342C74.6359 157.111 74.6514 156.956 74.6514 156.03V154.764C74.6514 153.992 74.4967 153.59 74.0481 153.59C73.5995 153.59 73.12 154.208 73.0891 155.273V156.169C73.0891 156.972 73.12 157.141 73.1509 157.358C73.1819 157.497 73.1664 157.543 73.0426 157.543H72.393C72.2537 157.543 72.2537 157.497 72.2847 157.358C72.3311 157.172 72.3466 157.033 72.3466 156.478V154.671C72.3311 154.007 72.1764 153.59 71.7433 153.59C71.3101 153.59 70.7842 154.239 70.7842 155.35V156.03C70.7842 156.956 70.8151 157.111 70.8461 157.342C70.877 157.481 70.8616 157.527 70.7378 157.527H70.0881C69.9489 157.527 69.9334 157.481 69.9798 157.342C70.0108 157.141 70.0417 157.003 70.0417 156.4V154.609C70.0417 154.146 69.9798 153.606 69.9334 153.405C69.9025 153.313 69.9334 153.251 70.0417 153.251H70.2119C70.645 153.251 70.7842 153.39 70.7997 154.131C71.0162 153.482 71.4803 153.158 72.0062 153.158C72.5322 153.158 72.9653 153.482 73.0736 154.208C73.2592 153.513 73.7233 153.158 74.2956 153.158C74.868 153.158 75.4094 153.621 75.4094 154.733V156.122C75.4094 156.925 75.4403 157.095 75.4867 157.311C75.5176 157.45 75.4867 157.497 75.3784 157.497L75.3475 157.527Z" fill="white" stroke="white" stroke-width="0.171899"/>
<path d="M78.9987 153.251H79.6948C79.8186 153.251 79.834 153.282 79.8186 153.405C79.7721 153.652 79.7722 154.1 79.7722 154.609V156.447C79.7722 157.11 79.8959 157.388 79.8959 157.45C79.8959 157.512 79.865 157.543 79.7722 157.543H79.6639C79.2926 157.543 79.0915 157.311 79.0296 156.74C78.8286 157.234 78.4264 157.574 77.854 157.574C77.2817 157.574 76.6165 157.157 76.6165 156.169V154.702C76.6165 154.177 76.5546 153.606 76.4928 153.405C76.4618 153.312 76.4773 153.251 76.5856 153.251H77.2817C77.39 153.251 77.4209 153.282 77.39 153.405C77.3436 153.652 77.3436 154.1 77.3436 154.609V156.091C77.3436 156.755 77.5292 157.188 77.9932 157.188C78.4573 157.188 78.349 157.141 78.5037 157.002C78.7976 156.74 79.0142 156.215 79.0142 155.119V154.609C79.0142 154.1 78.9523 153.59 78.8904 153.405C78.8595 153.312 78.875 153.251 78.9832 153.251H78.9987ZM79.0451 152.726H77.2972C77.2198 152.726 77.1579 152.679 77.1579 152.587V152.479C77.1579 152.386 77.2043 152.34 77.2817 152.34H79.0296C79.107 152.34 79.1689 152.371 79.1689 152.463V152.571C79.1689 152.664 79.1225 152.71 79.0296 152.71L79.0451 152.726Z" fill="white" stroke="white" stroke-width="0.171899"/>
<path d="M84.2427 156.478C84.2427 157.126 84.3665 157.389 84.3665 157.45C84.3665 157.512 84.3201 157.543 84.2427 157.543H84.1344C83.7632 157.543 83.5466 157.311 83.5002 156.709C83.4229 156.91 83.3146 157.064 83.1908 157.203C82.9433 157.435 82.6649 157.574 82.2782 157.574C81.4583 157.574 80.7932 156.987 80.7932 155.567C80.7932 154.146 81.4738 153.174 82.603 153.174C83.7322 153.174 83.2837 153.328 83.4847 153.513V152.741C83.4847 152.201 83.4383 151.722 83.3919 151.537C83.361 151.444 83.3919 151.383 83.5002 151.383H84.0416C84.1963 151.383 84.2427 151.444 84.2427 151.63V156.478ZM82.4947 157.188C83.098 157.188 83.4383 156.663 83.5002 155.443V153.93C83.3301 153.683 83.0516 153.529 82.6958 153.529C81.9379 153.529 81.613 154.409 81.613 155.567C81.613 156.725 81.876 157.188 82.4793 157.188H82.4947Z" fill="white" stroke="white" stroke-width="0.171899"/>
<path d="M87.0273 153.173C88.1255 153.173 88.5277 153.884 88.5277 154.918C88.5277 155.953 88.4813 155.366 88.3576 155.366H86.0837C86.0837 156.802 86.5477 157.249 87.414 157.249C88.2802 157.249 88.0482 157.172 88.3266 157.033C88.3885 157.002 88.4349 157.002 88.4659 157.064L88.4968 157.141C88.5277 157.203 88.5123 157.234 88.4504 157.28C88.141 157.466 87.7079 157.589 87.2284 157.589C86.0373 157.589 85.2793 156.817 85.2793 155.397C85.2793 153.976 85.8826 153.173 87.0118 153.173H87.0273ZM87.0273 153.451C86.5013 153.451 86.1455 153.945 86.0991 155.057H87.4913C87.7698 155.057 87.8007 154.98 87.8007 154.717C87.8007 153.915 87.5223 153.467 87.0273 153.467V153.451Z" fill="white" stroke="white" stroke-width="0.171899"/>
<path d="M92.6897 157.527H92.04C91.9162 157.527 91.9007 157.481 91.9317 157.342C91.9781 157.126 91.9936 156.956 91.9936 156.138V154.856C91.9936 154.023 91.8079 153.59 91.3593 153.59C90.6168 153.59 90.3229 154.548 90.3229 155.69V156.03C90.3229 156.956 90.3539 157.11 90.3848 157.342C90.4157 157.481 90.4003 157.527 90.2765 157.527H89.6268C89.4876 157.527 89.4722 157.481 89.5186 157.342C89.565 157.11 89.5804 156.956 89.5804 156.03V154.563C89.5804 154.115 89.5186 153.59 89.4722 153.42C89.4412 153.328 89.4721 153.266 89.5804 153.266H89.7506C90.1992 153.266 90.3229 153.42 90.3384 154.177C90.5395 153.621 90.9417 153.189 91.6223 153.189C92.3029 153.189 92.767 153.667 92.767 154.795V156.153C92.767 156.971 92.7825 157.141 92.8289 157.357C92.8598 157.496 92.8443 157.543 92.7206 157.543L92.6897 157.527Z" fill="white" stroke="white" stroke-width="0.171899"/>
<path d="M95.1323 157.234C95.6427 157.234 95.9057 156.972 95.9057 156.555C95.9057 155.397 93.771 155.922 93.771 154.393C93.771 152.865 94.2815 153.174 95.1477 153.174C96.014 153.174 96.1841 153.421 96.3388 153.575C96.4007 153.637 96.4162 153.683 96.3852 153.776L96.2305 154.27C96.2151 154.316 96.1996 154.331 96.1532 154.331H96.1068C96.0604 154.331 96.0294 154.301 96.0294 154.254C95.9212 153.791 95.5963 153.482 95.0859 153.482C94.5754 153.482 94.3898 153.776 94.3898 154.131C94.3898 155.227 96.509 154.687 96.509 156.323C96.509 157.96 96.014 157.574 95.1013 157.574C94.1887 157.574 94.0185 157.373 93.8484 157.234C93.771 157.172 93.7555 157.111 93.771 157.033L93.9257 156.447C93.9412 156.369 93.9566 156.369 94.0185 156.369H94.0649C94.1113 156.369 94.1423 156.369 94.1732 156.478C94.2969 157.018 94.6837 157.234 95.1632 157.234H95.1323Z" fill="white" stroke="white" stroke-width="0.171899"/>
<path d="M99.8822 159.519H99.2326C99.0933 159.519 99.0779 159.473 99.1243 159.334C99.1707 159.102 99.1862 158.948 99.1862 158.021V154.702C99.1862 154.223 99.1397 153.606 99.0779 153.405C99.0469 153.312 99.0779 153.251 99.1862 153.251H99.3563C99.8049 153.251 99.9441 153.405 99.9441 154.192V154.254C100.068 153.698 100.501 153.158 101.213 153.158C101.924 153.158 102.605 153.76 102.605 155.32C102.605 156.879 101.862 157.558 100.748 157.605C100.408 157.605 100.13 157.527 99.9286 157.419V158.021C99.9286 158.948 99.9596 159.102 99.9905 159.334C100.021 159.473 100.006 159.519 99.8822 159.519ZM100.965 153.59C100.439 153.59 99.9905 154.146 99.9286 155.52V156.987C100.145 157.172 100.439 157.249 100.687 157.249C101.336 157.249 101.8 156.786 101.8 155.366C101.8 153.945 101.445 153.59 100.95 153.59H100.965Z" fill="white" stroke="white" stroke-width="0.171899"/>
<path d="M105.172 153.173C106.27 153.173 106.672 153.884 106.672 154.918C106.672 155.952 106.626 155.366 106.502 155.366H104.228C104.228 156.802 104.692 157.249 105.558 157.249C106.425 157.249 106.193 157.172 106.471 157.033C106.533 157.002 106.579 157.002 106.61 157.064L106.641 157.141C106.672 157.203 106.657 157.234 106.595 157.28C106.286 157.466 105.852 157.589 105.373 157.589C104.182 157.589 103.424 156.817 103.424 155.397C103.424 153.976 104.027 153.173 105.156 153.173H105.172ZM105.172 153.451C104.646 153.451 104.29 153.945 104.244 155.057H105.636C105.914 155.057 105.945 154.98 105.945 154.717C105.945 153.914 105.667 153.467 105.172 153.467V153.451Z" fill="white" stroke="white" stroke-width="0.171899"/>
<path d="M108.406 157.527H107.756C107.632 157.527 107.601 157.481 107.648 157.342C107.694 157.111 107.71 156.956 107.71 156.03V152.757C107.71 152.216 107.663 151.738 107.617 151.552C107.586 151.46 107.617 151.398 107.725 151.398H108.267C108.421 151.398 108.468 151.46 108.468 151.645V156.061C108.468 156.956 108.499 157.126 108.529 157.342C108.56 157.481 108.545 157.527 108.421 157.527H108.406Z" fill="white" stroke="white" stroke-width="0.171899"/>
<path d="M112.922 156.478C112.922 157.126 113.046 157.388 113.046 157.45C113.046 157.512 113 157.543 112.922 157.543H112.814C112.443 157.543 112.226 157.311 112.18 156.709C112.102 156.91 111.994 157.064 111.87 157.203C111.623 157.435 111.344 157.574 110.958 157.574C110.138 157.574 109.473 156.987 109.473 155.567C109.473 154.146 110.153 153.174 111.283 153.174C112.412 153.174 111.963 153.328 112.164 153.513V152.741C112.164 152.201 112.118 151.722 112.071 151.537C112.04 151.444 112.071 151.383 112.18 151.383H112.721C112.876 151.383 112.922 151.444 112.922 151.63V156.478ZM111.174 157.188C111.778 157.188 112.118 156.663 112.18 155.443V153.93C112.01 153.683 111.731 153.529 111.375 153.529C110.617 153.529 110.293 154.409 110.293 155.567C110.293 156.725 110.555 157.188 111.159 157.188H111.174Z" fill="white" stroke="white" stroke-width="0.171899"/>
<path d="M115.707 153.173C116.805 153.173 117.207 153.884 117.207 154.918C117.207 155.953 117.161 155.366 117.037 155.366H114.763C114.763 156.802 115.227 157.249 116.094 157.249C116.96 157.249 116.728 157.172 117.006 157.033C117.068 157.002 117.115 157.002 117.146 157.064L117.176 157.141C117.207 157.203 117.192 157.234 117.13 157.28C116.821 157.466 116.388 157.589 115.908 157.589C114.717 157.589 113.959 156.817 113.959 155.397C113.959 153.976 114.562 153.173 115.691 153.173H115.707ZM115.707 153.451C115.181 153.451 114.825 153.945 114.779 155.057H116.171C116.449 155.057 116.48 154.98 116.48 154.717C116.48 153.915 116.202 153.467 115.707 153.467V153.451ZM116.573 152.726H114.825C114.748 152.726 114.686 152.679 114.686 152.587V152.479C114.686 152.386 114.732 152.34 114.81 152.34H116.558C116.635 152.34 116.697 152.371 116.697 152.463V152.571C116.697 152.664 116.651 152.71 116.558 152.71L116.573 152.726Z" fill="white" stroke="white" stroke-width="0.171899"/>
<path d="M119.388 157.234C119.899 157.234 120.161 156.972 120.161 156.555C120.161 155.397 118.027 155.922 118.027 154.393C118.027 152.865 118.537 153.173 119.404 153.173C120.27 153.173 120.44 153.42 120.579 153.575C120.641 153.637 120.656 153.683 120.626 153.776L120.471 154.27C120.455 154.316 120.44 154.331 120.394 154.331H120.347C120.301 154.331 120.27 154.301 120.27 154.254C120.161 153.791 119.837 153.482 119.326 153.482C118.816 153.482 118.63 153.776 118.63 154.131C118.63 155.227 120.749 154.687 120.749 156.323C120.749 157.96 120.254 157.574 119.342 157.574C118.429 157.574 118.259 157.373 118.089 157.234C118.011 157.172 117.996 157.11 118.011 157.033L118.166 156.447C118.181 156.369 118.197 156.369 118.259 156.369H118.305C118.352 156.369 118.383 156.369 118.414 156.477C118.537 157.018 118.924 157.234 119.404 157.234H119.388ZM119.373 152.71C119.326 152.71 119.28 152.679 119.202 152.602L118.274 151.707C118.212 151.66 118.305 151.491 118.383 151.521L119.373 152.046L120.347 151.521C120.44 151.475 120.533 151.63 120.455 151.707L119.543 152.602C119.465 152.679 119.404 152.71 119.373 152.71Z" fill="white" stroke="white" stroke-width="0.171899"/>
<path d="M124.663 157.543H124.555C124.23 157.543 124.013 157.358 123.936 156.879C123.75 157.296 123.379 157.574 122.73 157.574C122.08 157.574 121.477 157.25 121.477 156.447C121.477 155.644 122.188 155.134 123.565 155.134H123.905V154.872C123.905 153.868 123.565 153.529 122.992 153.529C122.42 153.529 122.219 153.791 122.064 154.162C122.018 154.254 122.003 154.27 121.956 154.27H121.894C121.863 154.27 121.848 154.239 121.817 154.162L121.755 153.714C121.724 153.621 121.74 153.56 121.832 153.498C121.956 153.405 122.436 153.189 123.023 153.189C124.029 153.189 124.663 153.745 124.663 155.026V156.447C124.663 157.111 124.771 157.388 124.771 157.45C124.771 157.512 124.74 157.543 124.663 157.543ZM122.25 156.4C122.25 156.956 122.513 157.219 122.931 157.219C123.565 157.219 123.905 156.647 123.921 156.061V155.428H123.596C122.59 155.428 122.25 155.767 122.25 156.416V156.4Z" fill="white" stroke="white" stroke-width="0.171899"/>
<path d="M129.01 157.527H128.36C128.237 157.527 128.221 157.481 128.252 157.342C128.299 157.126 128.314 156.956 128.314 156.138V154.856C128.314 154.023 128.128 153.59 127.68 153.59C126.937 153.59 126.643 154.548 126.643 155.69V156.03C126.643 156.956 126.674 157.111 126.705 157.342C126.736 157.481 126.721 157.527 126.597 157.527H125.947C125.808 157.527 125.793 157.481 125.839 157.342C125.885 157.111 125.901 156.956 125.901 156.03V154.563C125.901 154.115 125.839 153.59 125.793 153.421C125.762 153.328 125.793 153.266 125.901 153.266H126.071C126.52 153.266 126.643 153.421 126.659 154.177C126.86 153.621 127.262 153.189 127.943 153.189C128.623 153.189 129.087 153.668 129.087 154.795V156.153C129.087 156.972 129.103 157.141 129.149 157.358C129.18 157.497 129.165 157.543 129.041 157.543L129.01 157.527Z" fill="white" stroke="white" stroke-width="0.171899"/>
<path d="M133.187 157.543H133.078C132.753 157.543 132.537 157.358 132.46 156.879C132.274 157.296 131.903 157.574 131.253 157.574C130.603 157.574 130 157.25 130 156.447C130 155.644 130.712 155.134 132.088 155.134H132.429V154.872C132.429 153.868 132.088 153.529 131.516 153.529C130.944 153.529 130.742 153.791 130.588 154.162C130.541 154.254 130.526 154.27 130.48 154.27H130.418C130.387 154.27 130.371 154.239 130.34 154.162L130.278 153.714C130.247 153.621 130.263 153.56 130.356 153.498C130.48 153.405 130.959 153.189 131.531 153.189C132.537 153.189 133.171 153.745 133.171 155.026V156.447C133.171 157.111 133.279 157.388 133.279 157.45C133.279 157.512 133.248 157.543 133.171 157.543H133.187ZM130.758 156.4C130.758 156.956 131.021 157.219 131.439 157.219C132.073 157.219 132.413 156.647 132.429 156.061V155.428H132.104C131.098 155.428 130.758 155.767 130.758 156.416V156.4Z" fill="white" stroke="white" stroke-width="0.171899"/>
<path d="M91.2497 92.9447C91.6983 93.1145 92.1314 93.2689 92.5182 93.4233C92.5182 93.4233 96.1224 94.4423 97.6228 95.3841C98.6438 96.3722 99.7421 96.4958 100.949 95.7547C101.521 95.4305 102.155 95.3996 102.805 95.4304C102.836 95.4304 102.882 95.4304 102.913 95.415C103.3 95.3378 103.656 95.2606 103.748 94.7357C103.965 93.5623 103.516 92.4815 102.48 91.8022C101.32 91.4471 100.113 91.4008 98.9222 91.3545C98.4891 91.339 98.0714 91.3236 97.6383 91.2927C97.2825 91.2618 96.8649 91.0611 96.4936 90.8913C96.4472 90.8604 96.3853 90.845 96.3389 90.8141C95.4727 90.3972 94.9932 90.1502 94.3589 89.8105C94.1269 89.687 93.8639 89.5481 93.57 89.3937C93.57 89.3937 91.1878 88.0505 91.4353 87.2167C91.6828 86.6918 92.1469 86.8771 92.3635 87.0932C92.843 87.6027 93.833 88.1894 94.4982 88.5754C94.5291 88.5908 94.56 88.6063 94.591 88.6371C95.1633 88.9768 95.7357 89.6098 96.2616 90.1811C96.4472 90.3818 96.6174 90.5671 96.7875 90.7369C97.9477 91.9257 99.8349 90.5979 100.639 89.5944C101.103 88.8842 100.314 87.7725 100.314 87.7725C100.314 87.7725 99.1388 86.4602 98.1024 86.244C97.5455 86.136 96.9732 85.9198 96.803 85.2405C96.803 85.0243 96.6638 84.9471 96.4782 84.9008C95.055 84.6847 94.7302 83.6348 94.4982 82.4151C94.3899 81.8438 94.6992 81.2108 94.9931 80.6087C95.3644 79.8522 95.7202 79.1265 95.2871 78.5089C94.9158 77.9994 95.2097 77.6598 95.6428 77.4436C95.6892 77.4128 95.7511 77.3973 95.7975 77.3664C96.1997 77.1503 96.6483 76.9187 97.035 77.2429C97.2361 77.4127 97.1433 77.6907 97.035 77.9994C96.9268 78.3237 96.803 78.6788 96.9886 78.9876C97.2516 79.4044 97.561 79.775 98.1178 79.3581C98.2571 79.1574 98.52 79.142 98.6283 79.2346C99.278 79.8213 99.8039 79.4816 100.314 79.0493C100.33 79.0493 100.345 79.0184 100.361 79.0184C100.624 78.8177 100.887 78.617 100.825 78.2002C100.825 78.2002 100.825 78.1847 100.825 78.1693C100.794 77.9994 100.763 77.7679 100.98 77.6907C101.196 77.6135 101.289 77.737 101.382 77.8759C101.413 77.9222 101.444 77.9686 101.49 78.0149C102.031 78.5398 102.294 78.5244 102.913 77.9377C102.913 77.4282 103.114 77.0268 103.563 76.7797C104.12 76.4555 104.151 76.0541 103.826 75.56C103.671 75.4828 103.687 75.3439 103.718 75.2204C103.718 74.7263 103.408 74.7109 103.114 74.6954C103.006 74.6954 102.898 74.6954 102.789 74.6491C102.758 74.6491 102.743 74.6337 102.712 74.6182C102.542 74.5719 102.403 74.5256 102.372 74.3249C102.341 74.0933 102.496 73.9698 102.697 73.9235C103.331 73.7536 103.331 73.3059 103.176 72.8118C102.96 72.1634 103.037 71.5612 103.207 70.8819C103.455 69.8938 103.532 68.8594 102.96 67.9021C102.387 66.9758 101.397 65.6789 100.314 65.3238C98.3808 64.6907 96.6638 64.8915 94.8539 65.6789C92.6264 66.6515 91.621 69.1218 92.5646 70.6966C92.8121 70.9128 92.843 71.237 92.6264 71.3914C92.3171 71.6076 91.9149 71.6076 91.59 71.3451C91.1569 70.8356 90.6619 70.4033 89.9813 70.3724C88.3571 70.2952 86.7483 70.3415 85.418 71.4995C84.428 71.8237 81.5663 72.5339 79.2614 73.1052C78.0858 73.3985 77.0494 73.661 76.4616 73.8154C76.2914 73.8617 75.8892 73.9389 75.3478 74.047C72.5789 74.5874 66.0357 75.8534 66.5461 77.3973C66.5925 77.5517 66.7163 77.6907 66.8246 77.8296C67.0257 78.0766 67.2267 78.3082 67.0102 78.5553C66.7936 78.8023 66.5461 78.8023 66.2986 78.5861C65.7727 78.0303 65.123 77.9222 64.3496 78.2156C64.3032 78.231 64.2567 78.2465 64.2258 78.2774C63.9628 78.3854 63.6689 78.5244 63.4524 78.2774C63.2822 78.0921 63.3596 77.9068 63.4524 77.7061C63.4524 77.7061 63.4524 77.6907 63.4524 77.6752C63.5916 77.351 63.7772 77.0422 63.9783 76.7489C64.1485 76.4864 64.3032 76.2239 64.4424 75.946C64.7053 75.4056 64.6435 74.9579 64.2722 74.5719C63.6689 73.9543 62.9264 73.5838 62.0292 73.7228C61.5807 73.7999 61.1475 73.9235 61.1785 74.5256C61.1785 74.6954 61.1475 74.8807 60.931 74.8961C60.8072 74.8961 60.7608 74.8189 60.6989 74.7263C60.6835 74.6954 60.668 74.6645 60.6371 74.6337C60.0957 73.9543 59.8946 73.9235 59.2139 74.4484C58.456 75.0197 57.8217 76.3474 57.4505 77.1966C57.3886 77.3356 57.3113 77.4745 57.2494 77.598C57.0019 78.0458 56.7389 78.5089 57.1411 79.0648C57.1411 79.1111 57.1411 79.142 57.1566 79.1883C57.1566 79.2346 57.1721 79.2809 57.1721 79.3427C57.698 79.7904 58.1311 79.6669 58.3941 79.4816C58.3322 79.5743 58.3013 79.6669 58.3167 79.8059C58.425 80.6859 57.93 80.9329 57.1721 80.9175C56.5378 80.9175 55.9191 81.1336 55.2849 81.3498C54.8363 81.5196 54.3722 81.674 53.8927 81.7512C52.6707 81.9519 52.9336 83.712 53.2739 84.4222C53.3822 84.6692 53.6761 85.5647 53.1038 85.4412C52.6397 85.2251 52.3303 84.6692 52.0519 84.1289C51.8972 83.851 51.758 83.573 51.5878 83.3723C51.1702 82.8628 50.7525 82.554 50.3039 82.2298C50.0255 82.0291 49.7471 81.8284 49.4377 81.5505C49.2521 81.3807 49.0664 81.2263 48.8808 81.0719C48.0919 80.4234 47.3958 79.8522 47.2102 78.7251C47.1638 78.4781 47.1638 78.231 47.1483 77.9994C47.1174 77.2738 47.0864 76.5945 46.2357 76.193C40.7391 75.277 36.2635 74.505 32.8088 73.8771C32.453 73.8154 32.1282 73.7536 31.8033 73.6919C29.9007 73.3368 28.5549 73.0743 26.3583 73.1978C24.1463 73.3059 22.5375 73.9389 21.2072 75.5446C20.4183 76.6562 20.4647 77.7833 21.1608 78.9104C23.4192 82.5232 30.0708 81.9056 33.6441 81.427C33.6905 81.427 33.7524 81.4115 33.8142 81.3961C34.1391 81.3343 34.5567 81.2571 34.6805 81.6586C34.8197 82.0909 32.453 83.1253 31.2928 83.6348C31.0299 83.7583 30.8133 83.8355 30.7205 83.8818C30.2874 84.0671 29.8388 84.2524 29.4057 84.4222C27.9671 85.0089 26.5285 85.5956 25.1982 86.4139C24.6722 86.7999 24.1927 87.5255 25.2291 87.6027C26.3738 87.6799 28.5703 87.1087 28.5703 87.1087C29.0653 86.9851 29.5758 86.8616 30.0863 86.7381C32.7005 86.1205 35.4075 85.4721 37.7588 84.2061C38.0217 84.0825 38.2847 83.9436 38.5167 83.8201C39.615 83.2488 40.5586 82.7702 42.0127 82.6004H42.0436C43.08 82.4769 44.7661 82.2607 45.4003 83.2643C46.2202 84.5303 46.7461 85.8426 47.2721 87.1395C47.7052 88.2048 48.1383 89.2702 48.7261 90.2891C49.1747 91.2618 49.9017 91.9103 50.8917 92.3889C51.9127 92.8675 52.8253 93.5005 53.4596 94.5504C53.5369 94.6739 53.6297 94.7974 53.738 94.9055C53.506 94.3034 53.3049 93.5777 53.1347 92.7286C52.6861 90.6288 52.9491 89.3782 53.506 88.6371C54.001 87.9732 54.6816 87.8034 54.9136 87.7262C55.4396 87.5873 55.95 87.4483 56.476 87.2939C56.7389 87.2167 56.9864 87.155 57.2494 87.0778L80.2978 80.9638C80.3288 80.9638 80.4061 80.9329 80.5453 80.902C80.7 80.8712 80.9166 80.8248 81.1796 80.794C81.7055 80.7168 82.4171 80.6705 83.1905 80.7785C83.9639 80.8866 84.7993 81.1336 85.5263 81.674C86.2688 82.2298 86.8721 83.0481 87.2124 84.2524C87.6146 85.6574 87.63 86.7844 87.3825 87.7108C87.1814 88.5136 86.7947 89.1158 86.3461 89.5789C86.3461 90.0884 86.5782 90.5362 86.9958 90.9685C87.9703 91.8794 89.7183 92.5124 91.2188 93.0528L91.2497 92.9447Z" fill="white"/>
<path fill-rule="evenodd" clip-rule="evenodd" d="M54.2175 89.0848C53.8926 89.5171 53.5832 90.4589 54.0009 92.4351C54.5578 95.0752 55.2848 96.0788 55.9345 96.4339C56.5532 96.7735 57.2184 96.65 58.0692 96.4802C58.1311 96.4802 58.1929 96.4493 58.2548 96.4493L68.3868 93.7783C67.9537 92.8365 67.3968 91.2 67.0101 89.7487C66.6698 88.4672 66.5306 87.2475 66.4842 86.3366C66.4687 86.0123 66.4532 85.7344 66.4532 85.5028L57.435 87.8959L55.192 88.529C55.1611 88.529 55.1301 88.5444 55.0837 88.5598C54.8362 88.637 54.4804 88.7297 54.1865 89.1156L54.2175 89.0848ZM71.1248 93.0527L69.6089 93.4541C69.2376 92.713 68.6343 91.0147 68.2167 89.4244C67.9073 88.251 67.7836 87.1085 67.7371 86.2594C67.7217 85.8271 67.7062 85.4874 67.7062 85.2404C67.7062 85.2095 67.7062 85.1786 67.7062 85.1632L77.8537 82.4767C77.8537 82.6929 77.8537 82.9399 77.8692 83.2178C77.9001 84.0824 78.0239 85.2712 78.3332 86.5373C78.72 88.0812 79.3851 89.8413 79.8956 90.8449L71.1248 93.0681V93.0527ZM81.1331 90.5052L83.6236 89.8722H83.639C83.639 89.8722 83.639 89.8722 83.67 89.8722C83.7009 89.8722 83.7318 89.8722 83.7937 89.8413C83.902 89.8104 84.0567 89.7795 84.2268 89.7023C84.5826 89.5634 85.0467 89.3318 85.4643 88.9613C85.882 88.5907 86.2378 88.0812 86.4234 87.3556C86.609 86.6299 86.6245 85.6727 86.2532 84.3912C85.9593 83.3876 85.4643 82.7392 84.9075 82.3069C84.3351 81.89 83.67 81.6739 83.0048 81.5813C82.3396 81.4886 81.7054 81.5349 81.2414 81.5967C81.0093 81.6276 80.8237 81.6584 80.6845 81.6893C80.6226 81.6893 80.5762 81.7202 80.5298 81.7202C80.5143 81.7202 80.4989 81.7202 80.4989 81.7202L79.1067 82.0907C79.1067 82.1062 79.1067 82.1371 79.1067 82.1525C79.1067 82.3841 79.1067 82.7083 79.1067 83.1097C79.1376 83.9126 79.2459 85.0088 79.5398 86.1822C79.9575 87.8342 80.7 89.6869 81.1331 90.4743V90.5052Z" fill="white"/>
<path d="M0.849609 105.451C4.06711 107.489 7.1918 108.261 10.7496 109.48C13.1937 110.314 14.0754 111.287 16.7051 111.287C19.3348 111.287 21.7788 109.882 23.929 109.48C26.3421 109.017 29.606 108.538 32.3285 109.187C38.7016 110.7 43.4505 112.861 48.3541 115.548C53.0876 118.142 55.8719 122.156 59.8474 123.252C63.1423 124.163 66.0968 125.877 69.2679 127.112C71.5263 127.992 73.9085 128.409 76.3062 128.532C79.5237 128.702 82.5246 127.529 85.2162 125.784C88.248 123.823 90.1507 122.418 92.3318 121.585C94.451 120.766 97.2199 121.183 98.4574 121.168C102.185 121.137 103.593 118.08 107.182 117.926C108.806 117.864 111.73 118.497 114.653 118.342C116.138 118.265 116.943 118.034 118.428 117.926C123.053 117.617 127.539 118.018 132.04 119.022C135.165 119.717 138.97 120.874 142.203 120.334C145.668 119.763 148.684 118.358 152.397 118.342C154.176 118.342 156.017 117.817 157.749 119.022C159.667 120.334 160.41 120.303 162.266 121.137C164.88 122.31 167.556 123.159 170.403 123.098C173.512 123.021 174.27 122.588 178.802 122.851C181.478 122.82 186.877 122.449 189.537 122.604C191.471 122.712 192.368 123.252 194.24 123.7" stroke="white" stroke-width="1.20329" stroke-linecap="round"/>
<path d="M198 62.2668C196.329 62.8689 134.346 82.6158 103.578 92.4198M104.089 94.6893L198 106.578" stroke="white" stroke-width="0.567265" stroke-linecap="round"/>
<path d="M0.695312 76.2702C1.345 75.946 3.00016 74.7881 4.96469 73.4912C9.20312 70.7121 12.2969 70.5731 16.3806 67.2073C18.1131 65.7715 19.428 64.7679 20.5572 63.3012C21.5936 61.9889 22.5836 60.5376 23.7592 58.9936C27.085 54.6243 28.075 51.0269 30.4727 47.1825C31.8494 44.9747 33.0095 42.5044 34.7266 40.5436C37.0159 37.9498 37.9286 37.0698 42.0587 35.6957C45.2298 35.1862 48.6794 36.1434 51.7886 35.1862C56.9861 32.7622 63.0344 28.5164 66.5612 24.3786C67.938 22.773 70.7533 19.2528 70.7533 19.2528C70.7533 19.2528 76.6159 10.3752 78.5959 5.75882C79.6478 3.28852 80.8234 -0.802898 83.4377 1.34317C84.9072 2.54744 85.2939 5.48091 85.6033 7.22555C86.222 10.6685 87.4131 14.3894 90.5687 16.412C92.5487 17.678 93.9873 18.6043 96.1994 19.5153C98.2567 20.3644 100.345 21.0129 102.418 21.862C106.13 23.3751 106.115 26.9107 109.131 29.3964C112.271 31.9902 116.974 32.7622 120.64 34.2598C123.192 35.3097 125.807 36.6375 128.189 38.027C134.144 41.3002 134.655 43.8013 139.682 44.3726C144.06 45.1137 148.685 44.7277 153.109 44.7277C157.533 44.7277 156.28 44.0484 158.987 43.6315C160.085 43.4617 159.497 44.5115 160.24 44.8821C161.493 45.4997 163.952 46.8892 166.706 46.6422C168.995 46.426 172.77 46.1018 176.776 45.3916C180.643 44.6968 183.412 43.8013 186.846 43.0448C188.61 42.5353 190.775 43.1683 191.966 41.9486C192.879 41.0222 194.967 39.679 197.319 39.9415" stroke="white" stroke-width="1.20329" stroke-linecap="round"/>
</g>
</svg>
