<svg width="71" height="70" viewBox="0 0 71 70" fill="none" xmlns="http://www.w3.org/2000/svg">
<path d="M35.5001 43.2347C40.0511 43.2347 43.7405 39.5453 43.7405 34.9943C43.7405 30.4433 40.0511 26.7539 35.5001 26.7539C30.9491 26.7539 27.2597 30.4433 27.2597 34.9943C27.2597 39.5453 30.9491 43.2347 35.5001 43.2347Z" stroke="white" stroke-width="2" stroke-miterlimit="10"/>
<path d="M35.5 51.7324V67.4407" stroke="white" stroke-width="2" stroke-miterlimit="10"/>
<path d="M29.4609 63.25L35.5008 68.4939L41.564 63.25" stroke="white" stroke-width="2" stroke-miterlimit="10"/>
<path d="M18.7844 34.9941H3.05275" stroke="white" stroke-width="2" stroke-miterlimit="10"/>
<path d="M7.2439 28.9541L2.00002 34.9939L7.2439 41.0572" stroke="white" stroke-width="2" stroke-miterlimit="10"/>
<path d="M35.5 18.2795V2.54785" stroke="white" stroke-width="2" stroke-miterlimit="10"/>
<path d="M41.564 6.73803L35.5008 1.49414L29.4609 6.73803" stroke="white" stroke-width="2" stroke-miterlimit="10"/>
<path d="M52.2384 34.9941H67.9466" stroke="white" stroke-width="2" stroke-miterlimit="10"/>
<path d="M63.7796 41.0572L69.0235 34.9939L63.7796 28.9541" stroke="white" stroke-width="2" stroke-miterlimit="10"/>
</svg>
