<svg width="198" height="161" viewBox="0 0 198 161" fill="none" xmlns="http://www.w3.org/2000/svg">
<g clip-path="url(#clip0_19_389)">
<mask id="mask0_19_389" style="mask-type:luminance" maskUnits="userSpaceOnUse" x="0" y="0" width="198" height="161">
<path d="M198 0.222656H0V160.02H198V0.222656Z" fill="white"/>
</mask>
<g mask="url(#mask0_19_389)">
<path d="M29.22 136.445V138.405L27.5648 137.17C27.3792 137.031 27.1781 136.939 26.9925 136.892C26.8378 136.861 26.6367 136.846 26.3892 136.846C25.0589 136.846 24.0534 137.371 23.3883 138.436C22.8314 139.316 22.553 140.474 22.553 141.879C22.553 143.284 22.8778 144.782 23.543 145.615C24.2391 146.511 25.1981 146.943 26.4356 146.897H26.8842C26.8842 146.882 27.6731 146.82 27.6731 146.82V144.535C27.6731 144.272 27.6267 144.041 27.5184 143.84L27.0389 142.867H29.7923L29.3592 143.825C29.2355 144.072 29.1736 144.349 29.1736 144.658V147.221C28.1063 147.468 27.0234 147.607 25.9097 147.607C24.3319 147.607 23.0789 147.129 22.1817 146.171C21.2845 145.214 20.8359 143.855 20.8359 142.126C20.8359 140.397 21.3464 138.76 22.3519 137.711C23.3728 136.661 24.7805 136.136 26.6058 136.136C28.4311 136.136 27.6422 136.151 27.9516 136.198C28.0753 136.213 28.23 136.228 28.462 136.259C28.6631 136.29 28.9261 136.352 29.2355 136.445H29.22Z" fill="black" stroke="black" stroke-width="0.171899" stroke-miterlimit="10"/>
<path d="M38.0687 143.083H32.8558C32.8558 144.272 33.1342 145.152 33.7066 145.708C34.2789 146.264 35.0523 146.557 36.0423 146.557C37.0323 146.557 36.2434 146.557 36.3362 146.557L37.187 146.511L38.1152 146.356C37.682 146.742 37.187 147.036 36.6456 147.236C36.0733 147.452 35.5009 147.545 34.8977 147.545C33.7839 147.545 32.8867 147.159 32.2525 146.403C31.6492 145.692 31.3398 144.751 31.3398 143.624C31.3398 142.496 31.4327 142.558 31.6028 142.033C31.773 141.508 32.0205 141.061 32.3298 140.69C32.6392 140.319 33.0414 140.026 33.5209 139.795C34.0005 139.563 34.48 139.439 34.9595 139.439C35.9495 139.439 36.692 139.748 37.218 140.366C37.7903 141.061 38.0687 141.972 38.0687 143.114V143.083ZM36.3517 142.203C36.3517 141.508 36.2125 140.968 35.9495 140.582C35.702 140.227 35.3153 140.042 34.8048 140.042C34.2944 140.042 33.7684 140.258 33.4436 140.705C33.0723 141.2 32.8867 141.833 32.8867 142.62L36.3672 142.203H36.3517Z" fill="black" stroke="black" stroke-width="0.171899" stroke-miterlimit="10"/>
<path d="M43.3122 140.057C42.5387 140.057 41.9818 140.427 41.6415 141.168C41.3786 141.724 41.2393 142.419 41.2393 143.283C41.2393 144.148 41.3786 145.013 41.657 145.661C42.0282 146.557 42.6161 147.004 43.4359 147.004C44.2557 147.004 44.7662 146.634 45.1065 145.893C45.3695 145.337 45.5087 144.642 45.5087 143.778C45.5087 142.913 45.3695 142.079 45.0911 141.415C44.7043 140.52 44.1165 140.072 43.3276 140.072L43.3122 140.057ZM39.5842 143.515C39.5842 142.373 39.94 141.4 40.6361 140.628C41.3631 139.825 42.2912 139.408 43.4204 139.408C44.5497 139.408 45.4623 139.825 46.1584 140.643C46.8081 141.415 47.1484 142.388 47.1484 143.531C47.1484 144.673 46.8081 145.661 46.112 146.418C45.4004 147.205 44.4723 147.606 43.3122 147.606C42.152 147.606 41.3322 147.221 40.6361 146.449C39.94 145.677 39.5997 144.688 39.5997 143.5L39.5842 143.515Z" fill="black" stroke="black" stroke-width="0.171899" stroke-miterlimit="10"/>
<path d="M58.2083 139.686V141.493C57.9762 141.308 57.6205 141.061 57.1719 140.736C56.847 140.505 56.6305 140.366 56.5222 140.304C56.2283 140.134 55.9808 140.042 55.8106 140.042C55.5322 140.042 55.2692 140.15 55.0372 140.366C54.8052 140.582 54.6969 140.844 54.6969 141.169C54.6969 141.493 54.7897 141.632 54.9598 141.863C55.2228 142.11 55.5012 142.311 55.8261 142.481L56.9708 143.083C57.4812 143.346 57.8525 143.608 58.0691 143.855C58.363 144.179 58.5022 144.596 58.5022 145.09C58.5022 145.862 58.2392 146.464 57.7288 146.912C57.2183 147.36 56.4912 147.576 55.5477 147.576C54.6041 147.576 54.14 147.452 53.3047 147.19V145.291C53.413 145.368 53.7688 145.661 54.403 146.14C54.6041 146.295 54.8361 146.464 55.0836 146.65C55.393 146.835 55.6559 146.943 55.857 146.943C56.1973 146.943 56.4912 146.819 56.7387 146.572C56.9862 146.325 57.11 146.017 57.11 145.677C57.11 145.337 57.0327 145.152 56.878 144.951C56.8006 144.843 56.6923 144.751 56.5686 144.643C56.4139 144.55 56.2437 144.457 56.0427 144.349L55.1609 143.917C54.5886 143.624 54.1555 143.299 53.8461 142.944C53.5522 142.574 53.413 142.157 53.413 141.709C53.413 140.983 53.6914 140.397 54.2483 139.995C54.7433 139.625 55.3775 139.439 56.1355 139.439H56.5067C56.6614 139.439 56.8625 139.455 57.0945 139.501L58.2083 139.702V139.686Z" fill="black" stroke="black" stroke-width="0.171899" stroke-miterlimit="10"/>
<path d="M62.2152 139.346V144.92C62.2152 145.892 62.4163 146.695 62.834 147.359H60.1734C60.2352 147.236 60.3435 147.05 60.4673 146.803C60.5291 146.664 60.591 146.495 60.6529 146.278C60.7612 145.908 60.8076 145.445 60.8076 144.92V141.693C60.8076 141.369 60.7612 141.06 60.6529 140.782C60.5601 140.504 60.3745 140.18 60.127 139.809L62.2152 139.362V139.346ZM61.4573 135.563C61.7202 135.563 61.9368 135.656 62.107 135.826C62.2771 135.996 62.3699 136.212 62.3699 136.474C62.3699 136.737 62.2926 136.999 62.1224 137.154C61.9832 137.308 61.7666 137.401 61.4573 137.401C61.1479 137.401 60.9623 137.324 60.8076 137.154C60.6529 136.984 60.5755 136.768 60.5755 136.49C60.5755 136.212 60.6529 136.027 60.823 135.826C61.0087 135.656 61.2252 135.563 61.4573 135.563Z" fill="black" stroke="black" stroke-width="0.171899" stroke-miterlimit="10"/>
<path d="M69.9642 140.473L69.33 140.273L68.6494 140.211C67.8295 140.211 67.1953 140.489 66.7158 141.06C66.2517 141.631 66.0197 142.419 66.0197 143.438C66.0197 144.457 66.2672 145.229 66.7777 145.754C67.3191 146.325 68.0616 146.587 68.9742 146.541H69.3764C69.3764 146.526 69.9333 146.433 69.9333 146.433V140.473H69.9642ZM71.3719 135.347V144.673C71.3719 145.707 71.5884 146.541 72.037 147.143L69.9642 147.591V146.587C69.4692 146.927 69.0361 147.189 68.6494 147.328C68.2472 147.483 67.8605 147.575 67.5202 147.575C66.6694 147.575 65.9578 147.205 65.37 146.479C64.7822 145.754 64.4883 144.843 64.4883 143.762C64.4883 142.681 64.8131 141.708 65.4628 140.828C66.1744 139.887 67.0561 139.408 68.108 139.408C69.1598 139.408 69.4073 139.593 69.9642 139.948V138.142C69.9642 137.741 69.9178 137.385 69.8095 137.092C69.7167 136.799 69.5002 136.382 69.1598 135.842L71.3564 135.332L71.3719 135.347Z" fill="black" stroke="black" stroke-width="0.171899" stroke-miterlimit="10"/>
<path d="M80.4048 143.083H75.1919C75.1919 144.272 75.4703 145.152 76.0427 145.708C76.615 146.264 77.3884 146.557 78.3939 146.557C79.3994 146.557 78.595 146.557 78.6878 146.557L79.5386 146.511L80.4667 146.356C80.0336 146.742 79.5386 147.036 78.9972 147.236C78.4248 147.452 77.8525 147.545 77.2492 147.545C76.1355 147.545 75.2383 147.159 74.6041 146.403C74.0008 145.692 73.6914 144.751 73.6914 143.624C73.6914 142.496 73.7842 142.558 73.9544 142.033C74.1245 141.508 74.372 141.061 74.6814 140.69C74.9908 140.319 75.393 140.026 75.8725 139.795C76.352 139.563 76.8316 139.439 77.3111 139.439C78.3011 139.439 79.0436 139.748 79.5695 140.366C80.1419 141.061 80.4203 141.972 80.4203 143.114L80.4048 143.083ZM78.6878 142.203C78.6878 141.508 78.5486 140.968 78.2856 140.582C78.0381 140.227 77.6514 140.042 77.1409 140.042C76.6305 140.042 76.1045 140.258 75.7797 140.705C75.4084 141.2 75.2228 141.833 75.2228 142.62L78.7033 142.203H78.6878Z" fill="black" stroke="black" stroke-width="0.171899" stroke-miterlimit="10"/>
<path d="M84.0259 139.347V140.273L84.985 139.825C85.2944 139.686 85.5264 139.609 85.6811 139.578C86.0059 139.47 86.3463 139.408 86.6866 139.408C87.3672 139.408 87.8931 139.686 88.2644 140.258C88.6202 140.088 89.177 139.872 89.9195 139.594C90.3527 139.47 90.7239 139.408 91.0487 139.408C91.8841 139.408 92.4719 139.686 92.7967 140.258C93.0597 140.705 93.1989 141.369 93.1989 142.265V145.013C93.1989 145.908 93.4 146.696 93.8177 147.344H91.1725C91.3581 147.035 91.5128 146.68 91.6211 146.279C91.7139 145.939 91.7758 145.476 91.7758 144.905V142.743C91.7758 141.832 91.6056 141.215 91.2653 140.891C90.8941 140.536 90.2753 140.366 89.3781 140.397H88.8986C88.7594 140.412 88.5737 140.427 88.3417 140.443C88.4655 140.628 88.5273 140.844 88.5428 141.076L88.6047 142.265V144.905C88.6047 145.862 88.8213 146.68 89.2389 147.344H86.5783C86.9959 146.649 87.197 145.831 87.197 144.905V142.743C87.197 141.894 87.0269 141.292 86.702 140.937C86.3463 140.551 85.7739 140.381 84.9695 140.412H84.5519C84.5519 140.427 84.0259 140.458 84.0259 140.458V144.92C84.0259 145.878 84.2425 146.696 84.6602 147.36H81.9995C82.4172 146.665 82.6183 145.847 82.6183 144.92V141.693C82.6183 141.076 82.4017 140.458 81.9531 139.81L84.0259 139.362V139.347Z" fill="black" stroke="black" stroke-width="0.171899" stroke-miterlimit="10"/>
<path d="M98.9702 140.057C98.1967 140.057 97.6398 140.427 97.2995 141.168C97.0366 141.724 96.8973 142.419 96.8973 143.283C96.8973 144.148 97.0366 145.013 97.315 145.661C97.6862 146.557 98.2741 147.004 99.0939 147.004C99.9137 147.004 100.424 146.634 100.765 145.893C101.028 145.337 101.167 144.642 101.167 143.778C101.167 142.913 101.027 142.079 100.749 141.415C100.362 140.52 99.7745 140.072 98.9856 140.072L98.9702 140.057ZM95.2422 143.515C95.2422 142.373 95.598 141.4 96.2941 140.628C97.0211 139.825 97.9492 139.408 99.0784 139.408C100.208 139.408 101.12 139.825 101.816 140.643C102.466 141.415 102.806 142.388 102.806 143.531C102.806 144.673 102.466 145.661 101.77 146.418C101.058 147.205 100.13 147.606 98.9702 147.606C97.81 147.606 96.9902 147.221 96.2941 146.449C95.598 145.677 95.2577 144.688 95.2577 143.5L95.2422 143.515Z" fill="black" stroke="black" stroke-width="0.171899" stroke-miterlimit="10"/>
<path d="M106.317 139.346V144.009C106.317 145.028 106.471 145.677 106.765 145.985C107.09 146.31 107.647 146.464 108.436 146.433H108.962C108.962 146.418 109.689 146.356 109.689 146.356V141.662C109.689 141.338 109.643 141.029 109.534 140.751C109.441 140.474 109.256 140.149 109.008 139.779L111.112 139.331V145.198C111.112 145.491 111.174 145.8 111.282 146.109C111.406 146.418 111.561 146.742 111.793 147.051L109.689 147.529V146.495C109.055 146.85 108.529 147.097 108.111 147.236C107.663 147.39 107.245 147.468 106.889 147.468C106.178 147.468 105.667 147.267 105.358 146.865C105.048 146.464 104.909 145.785 104.909 144.843V141.678C104.909 141.354 104.863 141.045 104.754 140.767C104.662 140.489 104.476 140.165 104.229 139.794L106.317 139.346Z" fill="black" stroke="black" stroke-width="0.171899" stroke-miterlimit="10"/>
<path d="M115.413 139.347V140.273C115.722 140.134 116.078 139.995 116.48 139.841C116.743 139.748 117.006 139.655 117.238 139.578C117.609 139.47 117.965 139.408 118.275 139.408C119.574 139.408 120.208 140.366 120.208 142.265V144.905C120.208 145.862 120.425 146.68 120.842 147.344H118.182C118.599 146.634 118.816 145.816 118.816 144.905V142.743C118.816 141.863 118.646 141.261 118.305 140.921C117.934 140.551 117.315 140.381 116.449 140.412H115.939C115.815 140.427 115.645 140.443 115.428 140.458V145.013C115.428 145.908 115.629 146.696 116.047 147.344H113.402C113.587 147.051 113.742 146.696 113.866 146.279C113.959 145.939 114.021 145.476 114.021 144.905V141.678C114.021 141.045 113.804 140.412 113.355 139.794L115.444 139.347H115.413Z" fill="black" stroke="black" stroke-width="0.171899" stroke-miterlimit="10"/>
<path d="M124.368 137.277V139.516H126.967V140.273H124.368V144.873C124.368 145.568 124.492 146.031 124.724 146.263C125.018 146.479 125.497 146.572 126.178 146.556H126.719C126.719 146.541 127.354 146.464 127.354 146.464C126.936 146.788 126.503 147.066 126.039 147.282C125.497 147.467 125.064 147.56 124.724 147.56C124.059 147.56 123.579 147.39 123.316 147.035C123.053 146.711 122.93 146.047 122.93 145.09V140.288H121.568C122.744 139.3 123.672 138.312 124.353 137.293L124.368 137.277Z" fill="black" stroke="black" stroke-width="0.171899" stroke-miterlimit="10"/>
<path d="M137.964 140.473L137.33 140.273L136.649 140.211C135.83 140.211 135.195 140.489 134.716 141.06C134.252 141.631 134.02 142.419 134.02 143.438C134.02 144.457 134.267 145.229 134.778 145.754C135.319 146.325 136.062 146.587 136.974 146.541H137.376C137.376 146.526 137.933 146.433 137.933 146.433V140.473H137.964ZM139.372 135.347V144.673C139.372 145.707 139.588 146.541 140.037 147.143L137.964 147.591V146.587C137.469 146.927 137.036 147.189 136.649 147.328C136.247 147.483 135.86 147.575 135.52 147.575C134.669 147.575 133.958 147.205 133.37 146.479C132.782 145.754 132.488 144.843 132.488 143.762C132.488 142.681 132.813 141.708 133.463 140.828C134.174 139.887 135.056 139.408 136.108 139.408C137.16 139.408 137.407 139.593 137.964 139.948V138.142C137.964 137.741 137.918 137.385 137.81 137.092C137.717 136.799 137.5 136.382 137.16 135.842L139.356 135.332L139.372 135.347Z" fill="black" stroke="black" stroke-width="0.171899" stroke-miterlimit="10"/>
<path d="M143.782 139.346V144.92C143.782 145.892 143.983 146.695 144.4 147.359H141.74C141.802 147.236 141.91 147.05 142.034 146.803C142.096 146.664 142.157 146.495 142.219 146.278C142.328 145.908 142.374 145.445 142.374 144.92V141.693C142.374 141.369 142.328 141.06 142.219 140.782C142.126 140.504 141.941 140.18 141.693 139.809L143.782 139.362V139.346ZM143.024 135.563C143.287 135.563 143.503 135.656 143.673 135.826C143.844 135.996 143.936 136.212 143.936 136.474C143.936 136.737 143.859 136.999 143.689 137.154C143.55 137.308 143.333 137.401 143.024 137.401C142.714 137.401 142.529 137.324 142.374 137.154C142.219 136.984 142.142 136.768 142.142 136.49C142.142 136.212 142.219 136.027 142.389 135.826C142.575 135.656 142.792 135.563 143.024 135.563Z" fill="black" stroke="black" stroke-width="0.171899" stroke-miterlimit="10"/>
<path d="M144.988 139.516H148.02L147.973 139.594C147.71 140.041 147.571 140.335 147.571 140.458L147.602 140.752L147.695 141.122L149.366 146.078L150.959 140.674L150.99 140.35C150.99 140.242 150.959 140.134 150.897 139.995L150.572 139.501H152.939C152.444 139.949 152.011 140.643 151.64 141.616L149.428 147.421H148.438L146.396 141.848C146.071 140.86 145.591 140.072 144.973 139.501L144.988 139.516Z" fill="black" stroke="black" stroke-width="0.171899" stroke-miterlimit="10"/>
<path d="M155.709 139.346V144.92C155.709 145.892 155.91 146.695 156.328 147.359H153.668C153.729 147.236 153.838 147.05 153.961 146.803C154.023 146.664 154.085 146.495 154.147 146.278C154.255 145.908 154.302 145.445 154.302 144.92V141.693C154.302 141.369 154.255 141.06 154.147 140.782C154.054 140.504 153.869 140.18 153.621 139.809L155.709 139.362V139.346ZM154.951 135.563C155.214 135.563 155.431 135.656 155.601 135.826C155.771 135.996 155.864 136.212 155.864 136.474C155.864 136.737 155.787 136.999 155.617 137.154C155.493 137.308 155.261 137.401 154.951 137.401C154.642 137.401 154.456 137.324 154.302 137.154C154.147 136.984 154.07 136.768 154.07 136.49C154.07 136.212 154.147 136.027 154.317 135.826C154.503 135.656 154.719 135.563 154.951 135.563Z" fill="black" stroke="black" stroke-width="0.171899" stroke-miterlimit="10"/>
<path d="M160.055 139.347V140.273C160.365 140.134 160.721 139.995 161.123 139.841C161.386 139.748 161.649 139.655 161.881 139.578C162.252 139.47 162.608 139.408 162.917 139.408C164.216 139.408 164.851 140.366 164.851 142.265V144.905C164.851 145.862 165.052 146.68 165.485 147.344H162.824C163.242 146.634 163.459 145.816 163.459 144.905V142.743C163.459 141.863 163.288 141.261 162.948 140.921C162.577 140.551 161.958 140.381 161.092 140.412H160.581C160.458 140.427 160.287 140.443 160.071 140.458V145.013C160.071 145.908 160.272 146.696 160.69 147.344H158.044C158.23 147.051 158.385 146.696 158.509 146.279C158.601 145.939 158.663 145.476 158.663 144.905V141.678C158.663 141.045 158.447 140.412 157.998 139.794L160.086 139.347H160.055Z" fill="black" stroke="black" stroke-width="0.171899" stroke-miterlimit="10"/>
<path d="M168.578 147.251C168.454 147.406 168.361 147.529 168.315 147.606C168.268 147.684 168.206 147.807 168.144 147.946C168.036 148.193 167.99 148.409 167.99 148.595C167.99 149.104 168.237 149.49 168.748 149.753C169.15 149.969 169.629 150.061 170.186 150.061C170.743 150.061 171.377 149.922 171.888 149.66C172.522 149.32 172.831 148.873 172.831 148.317C172.831 147.761 172.677 147.622 172.352 147.483C172.151 147.39 171.795 147.344 171.3 147.344H169.057C169.057 147.329 168.608 147.236 168.608 147.236L168.578 147.251ZM170.001 139.995C169.073 139.995 168.608 140.582 168.608 141.74C168.608 142.897 168.732 142.759 168.98 143.175C169.274 143.669 169.676 143.916 170.171 143.916C170.666 143.916 170.929 143.731 171.192 143.376C171.408 143.052 171.517 142.666 171.517 142.234C171.517 141.801 171.408 141.184 171.192 140.767C170.913 140.257 170.527 139.995 170.001 139.995ZM174.316 139.408V140.628L172.043 140.103C172.46 140.443 172.739 140.89 172.862 141.431C172.909 141.601 172.924 141.77 172.924 141.956C172.924 142.728 172.646 143.345 172.104 143.808C171.594 144.256 170.929 144.472 170.155 144.472H169.8L169.366 144.411L169.212 144.812L169.165 145.121C169.165 145.414 169.258 145.615 169.428 145.754C169.598 145.877 169.923 145.939 170.403 145.939H171.872C172.553 145.939 173.033 146.047 173.342 146.248C173.698 146.495 173.883 146.943 173.883 147.576C173.883 148.209 173.79 148.394 173.589 148.811C173.218 149.598 172.491 150.185 171.408 150.555C170.882 150.741 170.341 150.833 169.8 150.833C169.258 150.833 168.423 150.71 167.789 150.447C166.969 150.108 166.567 149.644 166.567 149.027C166.567 148.409 166.675 148.471 166.891 148.24C167.123 148.008 167.603 147.637 168.361 147.128C167.881 146.943 167.649 146.618 167.649 146.155C167.649 145.692 168.175 145.059 169.212 144.395C168.562 144.287 168.067 144.025 167.696 143.623C167.309 143.206 167.123 142.681 167.123 142.033C167.123 141.384 167.417 140.582 167.99 140.088C168.531 139.624 169.227 139.408 170.047 139.408C170.867 139.408 171.238 139.593 171.795 139.949L174.285 139.408H174.316Z" fill="black" stroke="black" stroke-width="0.171899" stroke-miterlimit="10"/>
<path d="M64.8443 151.929C64.9216 151.929 64.9525 151.976 64.9525 152.038C64.9525 152.099 64.9371 152.192 64.8907 152.254L61.9516 157.41H63.514C64.3802 157.41 64.6122 157.241 64.8597 156.87C64.9216 156.777 64.9371 156.762 65.0144 156.762H65.0454C65.1227 156.762 65.1382 156.793 65.1072 156.916L64.968 157.503C64.9216 157.688 64.8752 157.704 64.6432 157.704H61.1318C61.0544 157.704 61.008 157.657 61.008 157.565C61.008 157.472 61.0389 157.426 61.0699 157.38L64.0708 152.207H62.7405C61.8279 152.207 61.6268 152.377 61.4257 152.732C61.3793 152.81 61.3638 152.84 61.2865 152.84H61.2555C61.1782 152.84 61.1627 152.81 61.1782 152.686L61.271 152.115C61.3019 151.929 61.3483 151.914 61.5804 151.914H64.8443V151.929Z" fill="black" stroke="black" stroke-width="0.171899" stroke-miterlimit="10"/>
<path d="M67.4902 153.396C68.5884 153.396 68.9906 154.107 68.9906 155.141C68.9906 156.176 68.9442 155.589 68.8205 155.589H66.5466C66.5466 157.025 67.0106 157.472 67.8769 157.472C68.7431 157.472 68.5111 157.395 68.7895 157.256C68.8514 157.225 68.8978 157.225 68.9288 157.287L68.9597 157.364C68.9906 157.426 68.9752 157.457 68.9133 157.503C68.6039 157.689 68.1708 157.812 67.6913 157.812C66.5002 157.812 65.7422 157.04 65.7422 155.62C65.7422 154.199 66.3455 153.396 67.4747 153.396H67.4902ZM67.4902 153.674C66.9642 153.674 66.6084 154.168 66.562 155.28H67.9542C68.2327 155.28 68.2636 155.203 68.2636 154.94C68.2636 154.138 67.9852 153.69 67.4902 153.69V153.674Z" fill="black" stroke="black" stroke-width="0.171899" stroke-miterlimit="10"/>
<path d="M75.3475 157.75H74.6978C74.5586 157.75 74.5586 157.704 74.5895 157.565C74.6359 157.333 74.6514 157.179 74.6514 156.253V154.987C74.6514 154.215 74.4967 153.813 74.0481 153.813C73.5995 153.813 73.12 154.431 73.0891 155.496V156.392C73.0891 157.194 73.12 157.364 73.1509 157.58C73.1819 157.719 73.1664 157.766 73.0427 157.766H72.393C72.2537 157.766 72.2537 157.719 72.2847 157.58C72.3311 157.395 72.3466 157.256 72.3466 156.7V154.894C72.3311 154.23 72.1764 153.813 71.7433 153.813C71.3102 153.813 70.7842 154.462 70.7842 155.573V156.253C70.7842 157.179 70.8152 157.333 70.8461 157.565C70.877 157.704 70.8616 157.75 70.7378 157.75H70.0881C69.9489 157.75 69.9334 157.704 69.9798 157.565C70.0108 157.364 70.0417 157.225 70.0417 156.623V154.832C70.0417 154.369 69.9798 153.829 69.9334 153.628C69.9025 153.535 69.9334 153.473 70.0417 153.473H70.2119C70.645 153.473 70.7842 153.612 70.7997 154.354C71.0163 153.705 71.4803 153.381 72.0062 153.381C72.5322 153.381 72.9653 153.705 73.0736 154.431C73.2592 153.736 73.7233 153.381 74.2956 153.381C74.868 153.381 75.4094 153.844 75.4094 154.956V156.345C75.4094 157.148 75.4403 157.318 75.4867 157.534C75.5177 157.673 75.4867 157.719 75.3784 157.719L75.3475 157.75Z" fill="black" stroke="black" stroke-width="0.171899" stroke-miterlimit="10"/>
<path d="M78.9987 153.473H79.6948C79.8186 153.473 79.834 153.504 79.8186 153.628C79.7722 153.875 79.7722 154.323 79.7722 154.832V156.669C79.7722 157.333 79.8959 157.611 79.8959 157.673C79.8959 157.735 79.865 157.766 79.7722 157.766H79.6639C79.2926 157.766 79.0915 157.534 79.0297 156.963C78.8286 157.457 78.4264 157.796 77.854 157.796C77.2817 157.796 76.6165 157.38 76.6165 156.391V154.925C76.6165 154.4 76.5547 153.829 76.4928 153.628C76.4618 153.535 76.4773 153.473 76.5856 153.473H77.2817C77.39 153.473 77.4209 153.504 77.39 153.628C77.3436 153.875 77.3436 154.323 77.3436 154.832V156.314C77.3436 156.978 77.5292 157.41 77.9933 157.41C78.4573 157.41 78.349 157.364 78.5037 157.225C78.7976 156.963 79.0142 156.438 79.0142 155.342V154.832C79.0142 154.323 78.9523 153.813 78.8904 153.628C78.8595 153.535 78.875 153.473 78.9833 153.473H78.9987ZM79.0451 152.948H77.2972C77.2198 152.948 77.1579 152.902 77.1579 152.81V152.701C77.1579 152.609 77.2043 152.562 77.2817 152.562H79.0297C79.107 152.562 79.1689 152.593 79.1689 152.686V152.794C79.1689 152.887 79.1225 152.933 79.0297 152.933L79.0451 152.948Z" fill="black" stroke="black" stroke-width="0.171899" stroke-miterlimit="10"/>
<path d="M84.2425 156.7C84.2425 157.349 84.3663 157.611 84.3663 157.673C84.3663 157.735 84.3198 157.766 84.2425 157.766H84.1342C83.763 157.766 83.5464 157.534 83.5 156.932C83.4227 157.133 83.3144 157.287 83.1906 157.426C82.9431 157.658 82.6647 157.797 82.278 157.797C81.4581 157.797 80.793 157.21 80.793 155.79C80.793 154.369 81.4736 153.396 82.6028 153.396C83.732 153.396 83.2834 153.551 83.4845 153.736V152.964C83.4845 152.424 83.4381 151.945 83.3917 151.76C83.3608 151.667 83.3917 151.605 83.5 151.605H84.0414C84.1961 151.605 84.2425 151.667 84.2425 151.852V156.7ZM82.4945 157.411C83.0978 157.411 83.4381 156.886 83.5 155.666V154.153C83.3298 153.906 83.0514 153.752 82.6956 153.752C81.9377 153.752 81.6128 154.632 81.6128 155.79C81.6128 156.947 81.8758 157.411 82.4791 157.411H82.4945Z" fill="black" stroke="black" stroke-width="0.171899" stroke-miterlimit="10"/>
<path d="M87.0273 153.396C88.1255 153.396 88.5277 154.107 88.5277 155.141C88.5277 156.176 88.4813 155.589 88.3576 155.589H86.0837C86.0837 157.025 86.5477 157.472 87.414 157.472C88.2802 157.472 88.0482 157.395 88.3266 157.256C88.3885 157.225 88.4349 157.225 88.4659 157.287L88.4968 157.364C88.5277 157.426 88.5123 157.457 88.4504 157.503C88.141 157.689 87.7079 157.812 87.2284 157.812C86.0373 157.812 85.2793 157.04 85.2793 155.62C85.2793 154.199 85.8826 153.396 87.0118 153.396H87.0273ZM87.0273 153.674C86.5013 153.674 86.1455 154.168 86.0991 155.28H87.4913C87.7698 155.28 87.8007 155.203 87.8007 154.94C87.8007 154.138 87.5223 153.69 87.0273 153.69V153.674Z" fill="black" stroke="black" stroke-width="0.171899" stroke-miterlimit="10"/>
<path d="M92.6898 157.751H92.0401C91.9164 157.751 91.9009 157.704 91.9318 157.565C91.9782 157.349 91.9937 157.179 91.9937 156.361V155.08C91.9937 154.246 91.8081 153.814 91.3595 153.814C90.617 153.814 90.3231 154.771 90.3231 155.913V156.253C90.3231 157.179 90.354 157.334 90.385 157.565C90.4159 157.704 90.4004 157.751 90.2767 157.751H89.627C89.4878 157.751 89.4723 157.704 89.5187 157.565C89.5651 157.334 89.5806 157.179 89.5806 156.253V154.786C89.5806 154.338 89.5187 153.814 89.4723 153.644C89.4414 153.551 89.4723 153.489 89.5806 153.489H89.7507C90.1993 153.489 90.3231 153.644 90.3386 154.4C90.5396 153.844 90.9418 153.412 91.6225 153.412C92.3031 153.412 92.7672 153.891 92.7672 155.018V156.376C92.7672 157.195 92.7826 157.365 92.829 157.581C92.86 157.72 92.8445 157.766 92.7207 157.766L92.6898 157.751Z" fill="black" stroke="black" stroke-width="0.171899" stroke-miterlimit="10"/>
<path d="M95.1323 157.457C95.6427 157.457 95.9057 157.195 95.9057 156.778C95.9057 155.62 93.771 156.145 93.771 154.616C93.771 153.088 94.2815 153.397 95.1477 153.397C96.014 153.397 96.1841 153.644 96.3388 153.798C96.4007 153.86 96.4162 153.906 96.3852 153.999L96.2305 154.493C96.2151 154.539 96.1996 154.555 96.1532 154.555H96.1068C96.0604 154.555 96.0294 154.524 96.0294 154.477C95.9212 154.014 95.5963 153.705 95.0859 153.705C94.5754 153.705 94.3898 153.999 94.3898 154.354C94.3898 155.45 96.509 154.91 96.509 156.546C96.509 158.183 96.014 157.797 95.1013 157.797C94.1887 157.797 94.0185 157.596 93.8484 157.457C93.771 157.395 93.7555 157.334 93.771 157.256L93.9257 156.67C93.9412 156.593 93.9566 156.593 94.0185 156.593H94.0649C94.1113 156.593 94.1423 156.593 94.1732 156.701C94.2969 157.241 94.6837 157.457 95.1632 157.457H95.1323Z" fill="black" stroke="black" stroke-width="0.171899" stroke-miterlimit="10"/>
<path d="M99.8822 159.742H99.2325C99.0932 159.742 99.0778 159.696 99.1242 159.557C99.1706 159.325 99.1861 159.171 99.1861 158.244V154.925C99.1861 154.446 99.1397 153.829 99.0778 153.628C99.0468 153.535 99.0778 153.473 99.1861 153.473H99.3562C99.8048 153.473 99.944 153.628 99.944 154.415V154.477C100.068 153.921 100.501 153.381 101.212 153.381C101.924 153.381 102.605 153.983 102.605 155.542C102.605 157.102 101.862 157.781 100.748 157.827C100.408 157.827 100.13 157.75 99.9286 157.642V158.244C99.9286 159.171 99.9595 159.325 99.9904 159.557C100.021 159.696 100.006 159.742 99.8822 159.742ZM100.965 153.813C100.439 153.813 99.9904 154.369 99.9286 155.743V157.21C100.145 157.395 100.439 157.472 100.687 157.472C101.336 157.472 101.8 157.009 101.8 155.589C101.8 154.168 101.444 153.813 100.949 153.813H100.965Z" fill="black" stroke="black" stroke-width="0.171899" stroke-miterlimit="10"/>
<path d="M105.172 153.396C106.27 153.396 106.672 154.107 106.672 155.141C106.672 156.176 106.626 155.589 106.502 155.589H104.228C104.228 157.025 104.692 157.472 105.559 157.472C106.425 157.472 106.193 157.395 106.471 157.256C106.533 157.225 106.58 157.225 106.611 157.287L106.642 157.364C106.672 157.426 106.657 157.457 106.595 157.503C106.286 157.689 105.853 157.812 105.373 157.812C104.182 157.812 103.424 157.04 103.424 155.62C103.424 154.199 104.027 153.396 105.157 153.396H105.172ZM105.172 153.674C104.646 153.674 104.29 154.168 104.244 155.28H105.636C105.914 155.28 105.945 155.203 105.945 154.94C105.945 154.138 105.667 153.69 105.172 153.69V153.674Z" fill="black" stroke="black" stroke-width="0.171899" stroke-miterlimit="10"/>
<path d="M108.406 157.751H107.756C107.632 157.751 107.601 157.704 107.648 157.565C107.694 157.334 107.71 157.179 107.71 156.253V152.98C107.71 152.439 107.663 151.961 107.617 151.775C107.586 151.683 107.617 151.621 107.725 151.621H108.267C108.421 151.621 108.468 151.683 108.468 151.868V156.284C108.468 157.179 108.499 157.349 108.529 157.565C108.56 157.704 108.545 157.751 108.421 157.751H108.406Z" fill="black" stroke="black" stroke-width="0.171899" stroke-miterlimit="10"/>
<path d="M112.922 156.7C112.922 157.349 113.046 157.611 113.046 157.673C113.046 157.735 112.999 157.766 112.922 157.766H112.814C112.443 157.766 112.226 157.534 112.18 156.932C112.102 157.133 111.994 157.287 111.87 157.426C111.623 157.658 111.344 157.797 110.958 157.797C110.138 157.797 109.473 157.21 109.473 155.79C109.473 154.369 110.153 153.396 111.282 153.396C112.412 153.396 111.963 153.551 112.164 153.736V152.964C112.164 152.424 112.118 151.945 112.071 151.76C112.04 151.667 112.071 151.605 112.18 151.605H112.721C112.876 151.605 112.922 151.667 112.922 151.852V156.7ZM111.174 157.411C111.777 157.411 112.118 156.886 112.18 155.666V154.153C112.009 153.906 111.731 153.752 111.375 153.752C110.617 153.752 110.292 154.632 110.292 155.79C110.292 156.947 110.555 157.411 111.159 157.411H111.174Z" fill="black" stroke="black" stroke-width="0.171899" stroke-miterlimit="10"/>
<path d="M115.707 153.396C116.805 153.396 117.207 154.106 117.207 155.141C117.207 156.175 117.161 155.589 117.037 155.589H114.763C114.763 157.024 115.227 157.472 116.094 157.472C116.96 157.472 116.728 157.395 117.006 157.256C117.068 157.225 117.115 157.225 117.146 157.287L117.176 157.364C117.207 157.426 117.192 157.457 117.13 157.503C116.821 157.688 116.388 157.812 115.908 157.812C114.717 157.812 113.959 157.04 113.959 155.619C113.959 154.199 114.562 153.396 115.691 153.396H115.707ZM115.707 153.674C115.181 153.674 114.825 154.168 114.779 155.28H116.171C116.449 155.28 116.48 155.203 116.48 154.94C116.48 154.137 116.202 153.69 115.707 153.69V153.674ZM116.573 152.948H114.825C114.748 152.948 114.686 152.902 114.686 152.81V152.701C114.686 152.609 114.732 152.562 114.81 152.562H116.558C116.635 152.562 116.697 152.593 116.697 152.686V152.794C116.697 152.887 116.651 152.933 116.558 152.933L116.573 152.948Z" fill="black" stroke="black" stroke-width="0.171899" stroke-miterlimit="10"/>
<path d="M119.388 157.457C119.898 157.457 120.161 157.195 120.161 156.778C120.161 155.62 118.027 156.145 118.027 154.617C118.027 153.088 118.537 153.397 119.403 153.397C120.27 153.397 120.44 153.644 120.579 153.798C120.641 153.86 120.656 153.906 120.625 153.999L120.471 154.493C120.455 154.539 120.44 154.555 120.393 154.555H120.347C120.301 154.555 120.27 154.524 120.27 154.478C120.161 154.014 119.837 153.706 119.326 153.706C118.816 153.706 118.63 153.999 118.63 154.354C118.63 155.45 120.749 154.91 120.749 156.546C120.749 158.183 120.254 157.797 119.342 157.797C118.429 157.797 118.259 157.596 118.089 157.457C118.011 157.396 117.996 157.334 118.011 157.257L118.166 156.67C118.181 156.593 118.197 156.593 118.259 156.593H118.305C118.352 156.593 118.382 156.593 118.413 156.701C118.537 157.241 118.924 157.457 119.403 157.457H119.388ZM119.372 152.934C119.326 152.934 119.28 152.903 119.202 152.826L118.274 151.93C118.212 151.884 118.305 151.714 118.382 151.745L119.372 152.27L120.347 151.745C120.44 151.699 120.533 151.853 120.455 151.93L119.543 152.826C119.465 152.903 119.403 152.934 119.372 152.934Z" fill="black" stroke="black" stroke-width="0.171899" stroke-miterlimit="10"/>
<path d="M124.663 157.766H124.555C124.23 157.766 124.013 157.581 123.936 157.102C123.75 157.519 123.379 157.797 122.73 157.797C122.08 157.797 121.477 157.473 121.477 156.67C121.477 155.867 122.188 155.357 123.565 155.357H123.905V155.095C123.905 154.091 123.565 153.752 122.992 153.752C122.42 153.752 122.219 154.014 122.064 154.385C122.018 154.477 122.003 154.493 121.956 154.493H121.894C121.863 154.493 121.848 154.462 121.817 154.385L121.755 153.937C121.724 153.844 121.74 153.783 121.832 153.721C121.956 153.628 122.436 153.412 123.023 153.412C124.029 153.412 124.663 153.968 124.663 155.249V156.67C124.663 157.334 124.771 157.612 124.771 157.673C124.771 157.735 124.74 157.766 124.663 157.766ZM122.25 156.623C122.25 157.179 122.513 157.442 122.931 157.442C123.565 157.442 123.905 156.871 123.921 156.284V155.651H123.596C122.59 155.651 122.25 155.99 122.25 156.639V156.623Z" fill="black" stroke="black" stroke-width="0.171899" stroke-miterlimit="10"/>
<path d="M129.01 157.751H128.36C128.237 157.751 128.221 157.704 128.252 157.565C128.299 157.349 128.314 157.179 128.314 156.361V155.08C128.314 154.246 128.128 153.814 127.68 153.814C126.937 153.814 126.643 154.771 126.643 155.913V156.253C126.643 157.179 126.674 157.334 126.705 157.565C126.736 157.704 126.721 157.751 126.597 157.751H125.947C125.808 157.751 125.793 157.704 125.839 157.565C125.885 157.334 125.901 157.179 125.901 156.253V154.786C125.901 154.338 125.839 153.814 125.793 153.644C125.762 153.551 125.793 153.489 125.901 153.489H126.071C126.52 153.489 126.643 153.644 126.659 154.4C126.86 153.844 127.262 153.412 127.943 153.412C128.623 153.412 129.087 153.891 129.087 155.018V156.376C129.087 157.195 129.103 157.365 129.149 157.581C129.18 157.72 129.165 157.766 129.041 157.766L129.01 157.751Z" fill="black" stroke="black" stroke-width="0.171899" stroke-miterlimit="10"/>
<path d="M133.187 157.766H133.078C132.753 157.766 132.537 157.581 132.46 157.102C132.274 157.519 131.903 157.797 131.253 157.797C130.603 157.797 130 157.473 130 156.67C130 155.867 130.712 155.357 132.088 155.357H132.429V155.095C132.429 154.091 132.088 153.752 131.516 153.752C130.944 153.752 130.742 154.014 130.588 154.385C130.541 154.477 130.526 154.493 130.48 154.493H130.418C130.387 154.493 130.371 154.462 130.34 154.385L130.278 153.937C130.247 153.844 130.263 153.783 130.356 153.721C130.48 153.628 130.959 153.412 131.531 153.412C132.537 153.412 133.171 153.968 133.171 155.249V156.67C133.171 157.334 133.279 157.612 133.279 157.673C133.279 157.735 133.248 157.766 133.171 157.766H133.187ZM130.758 156.623C130.758 157.179 131.021 157.442 131.439 157.442C132.073 157.442 132.413 156.871 132.429 156.284V155.651H132.104C131.098 155.651 130.758 155.99 130.758 156.639V156.623Z" fill="black" stroke="black" stroke-width="0.171899" stroke-miterlimit="10"/>
<path d="M29.22 136.445V138.405L27.5648 137.17C27.3792 137.031 27.1781 136.939 26.9925 136.892C26.8378 136.861 26.6367 136.846 26.3892 136.846C25.0589 136.846 24.0534 137.371 23.3883 138.436C22.8314 139.316 22.553 140.474 22.553 141.879C22.553 143.284 22.8778 144.782 23.543 145.615C24.2391 146.511 25.1981 146.943 26.4356 146.897H26.8842C26.8842 146.882 27.6731 146.82 27.6731 146.82V144.535C27.6731 144.272 27.6267 144.041 27.5184 143.84L27.0389 142.867H29.7923L29.3592 143.825C29.2355 144.072 29.1736 144.349 29.1736 144.658V147.221C28.1063 147.468 27.0234 147.607 25.9097 147.607C24.3319 147.607 23.0789 147.129 22.1817 146.171C21.2845 145.214 20.8359 143.855 20.8359 142.126C20.8359 140.397 21.3464 138.76 22.3519 137.711C23.3728 136.661 24.7805 136.136 26.6058 136.136C28.4311 136.136 27.6422 136.151 27.9516 136.198C28.0753 136.213 28.23 136.228 28.462 136.259C28.6631 136.29 28.9261 136.352 29.2355 136.445H29.22Z" fill="black" stroke="black" stroke-width="0.171899"/>
<path d="M38.0687 143.083H32.8558C32.8558 144.272 33.1342 145.152 33.7066 145.708C34.2789 146.264 35.0523 146.557 36.0423 146.557C37.0323 146.557 36.2434 146.557 36.3362 146.557L37.187 146.511L38.1151 146.356C37.682 146.742 37.187 147.036 36.6456 147.236C36.0733 147.452 35.5009 147.545 34.8976 147.545C33.7839 147.545 32.8867 147.159 32.2525 146.403C31.6492 145.692 31.3398 144.751 31.3398 143.624C31.3398 142.496 31.4326 142.558 31.6028 142.033C31.773 141.508 32.0205 141.061 32.3298 140.69C32.6392 140.319 33.0414 140.026 33.5209 139.795C34.0005 139.563 34.48 139.439 34.9595 139.439C35.9495 139.439 36.692 139.748 37.218 140.366C37.7903 141.061 38.0687 141.972 38.0687 143.114V143.083ZM36.3517 142.203C36.3517 141.508 36.2125 140.968 35.9495 140.582C35.702 140.227 35.3153 140.042 34.8048 140.042C34.2944 140.042 33.7684 140.258 33.4436 140.705C33.0723 141.2 32.8867 141.833 32.8867 142.62L36.3672 142.203H36.3517Z" fill="black" stroke="black" stroke-width="0.171899"/>
<path d="M43.3122 140.057C42.5388 140.057 41.9819 140.427 41.6416 141.168C41.3786 141.724 41.2394 142.419 41.2394 143.283C41.2394 144.148 41.3786 145.013 41.657 145.661C42.0283 146.557 42.6161 147.004 43.436 147.004C44.2558 147.004 44.7663 146.634 45.1066 145.893C45.3696 145.337 45.5088 144.642 45.5088 143.778C45.5088 142.913 45.3695 142.079 45.0911 141.415C44.7044 140.52 44.1166 140.072 43.3277 140.072L43.3122 140.057ZM39.5842 143.515C39.5842 142.373 39.94 141.4 40.6361 140.628C41.3631 139.825 42.2913 139.408 43.4205 139.408C44.5497 139.408 45.4624 139.825 46.1585 140.643C46.8081 141.415 47.1485 142.388 47.1485 143.531C47.1485 144.673 46.8081 145.661 46.1121 146.418C45.4005 147.205 44.4724 147.606 43.3122 147.606C42.152 147.606 41.3322 147.221 40.6361 146.449C39.94 145.677 39.5997 144.688 39.5997 143.5L39.5842 143.515Z" fill="black" stroke="black" stroke-width="0.171899"/>
<path d="M58.2083 139.686V141.493C57.9762 141.308 57.6205 141.061 57.1719 140.736C56.847 140.505 56.6305 140.366 56.5222 140.304C56.2283 140.134 55.9808 140.042 55.8106 140.042C55.5322 140.042 55.2692 140.15 55.0372 140.366C54.8051 140.582 54.6969 140.844 54.6969 141.169C54.6969 141.493 54.7897 141.632 54.9598 141.863C55.2228 142.11 55.5012 142.311 55.8261 142.481L56.9708 143.083C57.4812 143.346 57.8525 143.608 58.069 143.855C58.363 144.179 58.5022 144.596 58.5022 145.09C58.5022 145.862 58.2392 146.464 57.7287 146.912C57.2183 147.36 56.4912 147.576 55.5476 147.576C54.604 147.576 54.14 147.452 53.3047 147.19V145.291C53.413 145.368 53.7687 145.661 54.403 146.14C54.604 146.295 54.8361 146.464 55.0836 146.65C55.393 146.835 55.6559 146.943 55.857 146.943C56.1973 146.943 56.4912 146.819 56.7387 146.572C56.9862 146.325 57.11 146.017 57.11 145.677C57.11 145.337 57.0326 145.152 56.878 144.951C56.8006 144.843 56.6923 144.751 56.5686 144.643C56.4139 144.55 56.2437 144.457 56.0426 144.349L55.1609 143.917C54.5886 143.624 54.1555 143.299 53.8461 142.944C53.5522 142.574 53.413 142.157 53.413 141.709C53.413 140.983 53.6914 140.397 54.2483 139.995C54.7433 139.625 55.3775 139.439 56.1355 139.439H56.5067C56.6614 139.439 56.8625 139.455 57.0945 139.501L58.2083 139.702V139.686Z" fill="black" stroke="black" stroke-width="0.171899"/>
<path d="M62.2152 139.346V144.92C62.2152 145.892 62.4163 146.695 62.834 147.359H60.1734C60.2352 147.236 60.3435 147.05 60.4673 146.803C60.5291 146.664 60.591 146.495 60.6529 146.278C60.7612 145.908 60.8076 145.445 60.8076 144.92V141.693C60.8076 141.369 60.7612 141.06 60.6529 140.782C60.5601 140.504 60.3745 140.18 60.127 139.809L62.2152 139.362V139.346ZM61.4573 135.563C61.7202 135.563 61.9368 135.656 62.107 135.826C62.2771 135.996 62.3699 136.212 62.3699 136.474C62.3699 136.737 62.2926 136.999 62.1224 137.154C61.9832 137.308 61.7666 137.401 61.4573 137.401C61.1479 137.401 60.9623 137.324 60.8076 137.154C60.6529 136.984 60.5755 136.768 60.5755 136.49C60.5755 136.212 60.6529 136.027 60.823 135.826C61.0087 135.656 61.2252 135.563 61.4573 135.563Z" fill="black" stroke="black" stroke-width="0.171899"/>
<path d="M69.9642 140.473L69.33 140.273L68.6494 140.211C67.8295 140.211 67.1953 140.489 66.7158 141.06C66.2517 141.631 66.0197 142.419 66.0197 143.438C66.0197 144.457 66.2672 145.229 66.7777 145.754C67.3191 146.325 68.0616 146.587 68.9742 146.541H69.3764C69.3764 146.526 69.9333 146.433 69.9333 146.433V140.473H69.9642ZM71.3719 135.347V144.673C71.3719 145.707 71.5884 146.541 72.037 147.143L69.9642 147.591V146.587C69.4692 146.927 69.0361 147.189 68.6494 147.328C68.2472 147.483 67.8605 147.575 67.5202 147.575C66.6694 147.575 65.9578 147.205 65.37 146.479C64.7822 145.754 64.4883 144.843 64.4883 143.762C64.4883 142.681 64.8131 141.708 65.4628 140.828C66.1744 139.887 67.0561 139.408 68.108 139.408C69.1598 139.408 69.4073 139.593 69.9642 139.948V138.142C69.9642 137.741 69.9178 137.385 69.8095 137.092C69.7167 136.799 69.5002 136.382 69.1598 135.842L71.3564 135.332L71.3719 135.347Z" fill="black" stroke="black" stroke-width="0.171899"/>
<path d="M80.4047 143.083H75.1918C75.1918 144.272 75.4702 145.152 76.0425 145.708C76.6149 146.264 77.3883 146.557 78.3938 146.557C79.3993 146.557 78.5949 146.557 78.6877 146.557L79.5385 146.511L80.4666 146.356C80.0335 146.742 79.5385 147.036 78.9971 147.236C78.4247 147.452 77.8524 147.545 77.2491 147.545C76.1353 147.545 75.2382 147.159 74.6039 146.403C74.0007 145.692 73.6913 144.751 73.6913 143.624C73.6913 142.496 73.7841 142.558 73.9543 142.033C74.1244 141.508 74.3719 141.061 74.6813 140.69C74.9907 140.319 75.3928 140.026 75.8724 139.795C76.3519 139.563 76.8314 139.439 77.311 139.439C78.301 139.439 79.0435 139.748 79.5694 140.366C80.1418 141.061 80.4202 141.972 80.4202 143.114L80.4047 143.083ZM78.6877 142.203C78.6877 141.508 78.5485 140.968 78.2855 140.582C78.038 140.227 77.6513 140.042 77.1408 140.042C76.6303 140.042 76.1044 140.258 75.7796 140.705C75.4083 141.2 75.2227 141.833 75.2227 142.62L78.7032 142.203H78.6877Z" fill="black" stroke="black" stroke-width="0.171899"/>
<path d="M84.0262 139.347V140.273L84.9852 139.825C85.2946 139.686 85.5266 139.609 85.6813 139.578C86.0062 139.47 86.3465 139.408 86.6868 139.408C87.3674 139.408 87.8933 139.686 88.2646 140.258C88.6204 140.088 89.1772 139.872 89.9197 139.594C90.3529 139.47 90.7241 139.408 91.049 139.408C91.8843 139.408 92.4721 139.686 92.7969 140.258C93.0599 140.705 93.1991 141.369 93.1991 142.265V145.013C93.1991 145.908 93.4002 146.696 93.8179 147.344H91.1727C91.3583 147.035 91.513 146.68 91.6213 146.279C91.7141 145.939 91.776 145.476 91.776 144.905V142.743C91.776 141.832 91.6058 141.215 91.2655 140.891C90.8943 140.536 90.2755 140.366 89.3783 140.397H88.8988C88.7596 140.412 88.574 140.427 88.3419 140.443C88.4657 140.628 88.5276 140.844 88.543 141.076L88.6049 142.265V144.905C88.6049 145.862 88.8215 146.68 89.2391 147.344H86.5785C86.9962 146.649 87.1972 145.831 87.1972 144.905V142.743C87.1972 141.894 87.0271 141.292 86.7022 140.937C86.3465 140.551 85.7741 140.381 84.9697 140.412H84.5521C84.5521 140.427 84.0262 140.458 84.0262 140.458V144.92C84.0262 145.878 84.2427 146.696 84.6604 147.36H81.9997C82.4174 146.665 82.6185 145.847 82.6185 144.92V141.693C82.6185 141.076 82.4019 140.458 81.9533 139.81L84.0262 139.362V139.347Z" fill="black" stroke="black" stroke-width="0.171899"/>
<path d="M98.9702 140.057C98.1967 140.057 97.6399 140.427 97.2995 141.168C97.0366 141.724 96.8974 142.419 96.8974 143.283C96.8974 144.148 97.0366 145.013 97.315 145.661C97.6863 146.557 98.2741 147.004 99.0939 147.004C99.9138 147.004 100.424 146.634 100.765 145.893C101.028 145.337 101.167 144.642 101.167 143.778C101.167 142.913 101.028 142.079 100.749 141.415C100.362 140.52 99.7745 140.072 98.9856 140.072L98.9702 140.057ZM95.2422 143.515C95.2422 142.373 95.598 141.4 96.2941 140.628C97.0211 139.825 97.9492 139.408 99.0785 139.408C100.208 139.408 101.12 139.825 101.816 140.643C102.466 141.415 102.806 142.388 102.806 143.531C102.806 144.673 102.466 145.661 101.77 146.418C101.058 147.205 100.13 147.606 98.9702 147.606C97.81 147.606 96.9902 147.221 96.2941 146.449C95.598 145.677 95.2577 144.688 95.2577 143.5L95.2422 143.515Z" fill="black" stroke="black" stroke-width="0.171899"/>
<path d="M106.317 139.346V144.009C106.317 145.028 106.471 145.677 106.765 145.985C107.09 146.31 107.647 146.464 108.436 146.433H108.962C108.962 146.418 109.689 146.356 109.689 146.356V141.662C109.689 141.338 109.642 141.029 109.534 140.751C109.441 140.474 109.256 140.149 109.008 139.779L111.112 139.331V145.198C111.112 145.491 111.174 145.8 111.282 146.109C111.406 146.418 111.561 146.742 111.793 147.051L109.689 147.529V146.495C109.055 146.85 108.529 147.097 108.111 147.236C107.662 147.39 107.245 147.468 106.889 147.468C106.177 147.468 105.667 147.267 105.358 146.865C105.048 146.464 104.909 145.785 104.909 144.843V141.678C104.909 141.354 104.863 141.045 104.754 140.767C104.662 140.489 104.476 140.165 104.228 139.794L106.317 139.346Z" fill="black" stroke="black" stroke-width="0.171899"/>
<path d="M115.413 139.347V140.273C115.722 140.134 116.078 139.995 116.48 139.841C116.743 139.748 117.006 139.655 117.238 139.578C117.609 139.47 117.965 139.408 118.275 139.408C119.574 139.408 120.208 140.366 120.208 142.265V144.905C120.208 145.862 120.425 146.68 120.842 147.344H118.182C118.599 146.634 118.816 145.816 118.816 144.905V142.743C118.816 141.863 118.646 141.261 118.305 140.921C117.934 140.551 117.315 140.381 116.449 140.412H115.939C115.815 140.427 115.645 140.443 115.428 140.458V145.013C115.428 145.908 115.629 146.696 116.047 147.344H113.402C113.587 147.051 113.742 146.696 113.866 146.279C113.959 145.939 114.021 145.476 114.021 144.905V141.678C114.021 141.045 113.804 140.412 113.355 139.794L115.444 139.347H115.413Z" fill="black" stroke="black" stroke-width="0.171899"/>
<path d="M124.368 137.277V139.516H126.967V140.273H124.368V144.873C124.368 145.568 124.492 146.031 124.724 146.263C125.018 146.479 125.497 146.572 126.178 146.556H126.72C126.72 146.541 127.354 146.464 127.354 146.464C126.936 146.788 126.503 147.066 126.039 147.282C125.497 147.467 125.064 147.56 124.724 147.56C124.059 147.56 123.579 147.39 123.316 147.035C123.053 146.711 122.93 146.047 122.93 145.09V140.288H121.568C122.744 139.3 123.672 138.312 124.353 137.293L124.368 137.277Z" fill="black" stroke="black" stroke-width="0.171899"/>
<path d="M137.964 140.473L137.33 140.273L136.649 140.211C135.83 140.211 135.195 140.489 134.716 141.06C134.252 141.631 134.02 142.419 134.02 143.438C134.02 144.457 134.267 145.229 134.778 145.754C135.319 146.325 136.062 146.587 136.974 146.541H137.376C137.376 146.526 137.933 146.433 137.933 146.433V140.473H137.964ZM139.372 135.347V144.673C139.372 145.707 139.588 146.541 140.037 147.143L137.964 147.591V146.587C137.469 146.927 137.036 147.189 136.649 147.328C136.247 147.483 135.86 147.575 135.52 147.575C134.669 147.575 133.958 147.205 133.37 146.479C132.782 145.754 132.488 144.843 132.488 143.762C132.488 142.681 132.813 141.708 133.463 140.828C134.174 139.887 135.056 139.408 136.108 139.408C137.16 139.408 137.407 139.593 137.964 139.948V138.142C137.964 137.741 137.918 137.385 137.81 137.092C137.717 136.799 137.5 136.382 137.16 135.842L139.356 135.332L139.372 135.347Z" fill="black" stroke="black" stroke-width="0.171899"/>
<path d="M143.782 139.346V144.92C143.782 145.892 143.983 146.695 144.401 147.359H141.74C141.802 147.236 141.91 147.05 142.034 146.803C142.096 146.664 142.158 146.495 142.219 146.278C142.328 145.908 142.374 145.445 142.374 144.92V141.693C142.374 141.369 142.328 141.06 142.219 140.782C142.127 140.504 141.941 140.18 141.694 139.809L143.782 139.362V139.346ZM143.024 135.563C143.287 135.563 143.503 135.656 143.674 135.826C143.844 135.996 143.937 136.212 143.937 136.474C143.937 136.737 143.859 136.999 143.689 137.154C143.55 137.308 143.333 137.401 143.024 137.401C142.714 137.401 142.529 137.324 142.374 137.154C142.219 136.984 142.142 136.768 142.142 136.49C142.142 136.212 142.219 136.027 142.39 135.826C142.575 135.656 142.792 135.563 143.024 135.563Z" fill="black" stroke="black" stroke-width="0.171899"/>
<path d="M144.988 139.516H148.02L147.973 139.594C147.71 140.041 147.571 140.335 147.571 140.458L147.602 140.752L147.695 141.122L149.366 146.078L150.959 140.674L150.99 140.35C150.99 140.242 150.959 140.134 150.897 139.995L150.572 139.501H152.939C152.444 139.949 152.011 140.643 151.64 141.616L149.428 147.421H148.438L146.396 141.848C146.071 140.86 145.591 140.072 144.973 139.501L144.988 139.516Z" fill="black" stroke="black" stroke-width="0.171899"/>
<path d="M155.709 139.346V144.92C155.709 145.892 155.911 146.695 156.328 147.359H153.668C153.729 147.236 153.838 147.05 153.962 146.803C154.023 146.664 154.085 146.495 154.147 146.278C154.255 145.908 154.302 145.445 154.302 144.92V141.693C154.302 141.369 154.255 141.06 154.147 140.782C154.054 140.504 153.869 140.18 153.621 139.809L155.709 139.362V139.346ZM154.952 135.563C155.214 135.563 155.431 135.656 155.601 135.826C155.771 135.996 155.864 136.212 155.864 136.474C155.864 136.737 155.787 136.999 155.617 137.154C155.493 137.308 155.261 137.401 154.952 137.401C154.642 137.401 154.457 137.324 154.302 137.154C154.147 136.984 154.07 136.768 154.07 136.49C154.07 136.212 154.147 136.027 154.317 135.826C154.503 135.656 154.719 135.563 154.952 135.563Z" fill="black" stroke="black" stroke-width="0.171899"/>
<path d="M160.055 139.347V140.273C160.365 140.134 160.721 139.995 161.123 139.841C161.386 139.748 161.649 139.655 161.881 139.578C162.252 139.47 162.608 139.408 162.917 139.408C164.216 139.408 164.851 140.366 164.851 142.265V144.905C164.851 145.862 165.052 146.68 165.485 147.344H162.824C163.242 146.634 163.459 145.816 163.459 144.905V142.743C163.459 141.863 163.288 141.261 162.948 140.921C162.577 140.551 161.958 140.381 161.092 140.412H160.581C160.458 140.427 160.287 140.443 160.071 140.458V145.013C160.071 145.908 160.272 146.696 160.69 147.344H158.044C158.23 147.051 158.385 146.696 158.509 146.279C158.601 145.939 158.663 145.476 158.663 144.905V141.678C158.663 141.045 158.447 140.412 157.998 139.794L160.086 139.347H160.055Z" fill="black" stroke="black" stroke-width="0.171899"/>
<path d="M168.577 147.251C168.454 147.406 168.361 147.529 168.314 147.606C168.268 147.684 168.206 147.807 168.144 147.946C168.036 148.193 167.99 148.409 167.99 148.595C167.99 149.104 168.237 149.49 168.748 149.753C169.15 149.969 169.629 150.061 170.186 150.061C170.743 150.061 171.377 149.922 171.888 149.66C172.522 149.32 172.831 148.873 172.831 148.317C172.831 147.761 172.677 147.622 172.352 147.483C172.151 147.39 171.795 147.344 171.3 147.344H169.057C169.057 147.329 168.608 147.236 168.608 147.236L168.577 147.251ZM170.001 139.995C169.072 139.995 168.608 140.582 168.608 141.74C168.608 142.897 168.732 142.759 168.98 143.175C169.274 143.669 169.676 143.916 170.171 143.916C170.666 143.916 170.929 143.731 171.192 143.376C171.408 143.052 171.516 142.666 171.516 142.234C171.516 141.801 171.408 141.184 171.192 140.767C170.913 140.257 170.526 139.995 170.001 139.995ZM174.316 139.408V140.628L172.042 140.103C172.46 140.443 172.739 140.89 172.862 141.431C172.909 141.601 172.924 141.77 172.924 141.956C172.924 142.728 172.646 143.345 172.104 143.808C171.594 144.256 170.929 144.472 170.155 144.472H169.799L169.366 144.411L169.212 144.812L169.165 145.121C169.165 145.414 169.258 145.615 169.428 145.754C169.598 145.877 169.923 145.939 170.403 145.939H171.872C172.553 145.939 173.032 146.047 173.342 146.248C173.698 146.495 173.883 146.943 173.883 147.576C173.883 148.209 173.79 148.394 173.589 148.811C173.218 149.598 172.491 150.185 171.408 150.555C170.882 150.741 170.341 150.833 169.799 150.833C169.258 150.833 168.423 150.71 167.788 150.447C166.969 150.108 166.566 149.644 166.566 149.027C166.566 148.409 166.675 148.471 166.891 148.24C167.123 148.008 167.603 147.637 168.361 147.128C167.881 146.943 167.649 146.618 167.649 146.155C167.649 145.692 168.175 145.059 169.212 144.395C168.562 144.287 168.067 144.025 167.696 143.623C167.309 143.206 167.123 142.681 167.123 142.033C167.123 141.384 167.417 140.582 167.99 140.088C168.531 139.624 169.227 139.408 170.047 139.408C170.867 139.408 171.238 139.593 171.795 139.949L174.285 139.408H174.316Z" fill="black" stroke="black" stroke-width="0.171899"/>
<path d="M64.8443 151.929C64.9216 151.929 64.9525 151.976 64.9525 152.038C64.9525 152.099 64.9371 152.192 64.8907 152.254L61.9516 157.41H63.514C64.3802 157.41 64.6122 157.241 64.8597 156.87C64.9216 156.777 64.9371 156.762 65.0144 156.762H65.0454C65.1227 156.762 65.1382 156.793 65.1072 156.916L64.968 157.503C64.9216 157.688 64.8752 157.704 64.6432 157.704H61.1318C61.0544 157.704 61.008 157.657 61.008 157.565C61.008 157.472 61.0389 157.426 61.0699 157.38L64.0708 152.207H62.7405C61.8279 152.207 61.6268 152.377 61.4257 152.732C61.3793 152.81 61.3638 152.84 61.2865 152.84H61.2555C61.1782 152.84 61.1627 152.81 61.1782 152.686L61.271 152.115C61.3019 151.929 61.3483 151.914 61.5804 151.914H64.8443V151.929Z" fill="black" stroke="black" stroke-width="0.171899"/>
<path d="M67.4902 153.396C68.5884 153.396 68.9906 154.107 68.9906 155.141C68.9906 156.176 68.9442 155.589 68.8205 155.589H66.5466C66.5466 157.025 67.0106 157.472 67.8769 157.472C68.7431 157.472 68.5111 157.395 68.7895 157.256C68.8514 157.225 68.8978 157.225 68.9288 157.287L68.9597 157.364C68.9906 157.426 68.9752 157.457 68.9133 157.503C68.6039 157.689 68.1708 157.812 67.6913 157.812C66.5002 157.812 65.7422 157.04 65.7422 155.62C65.7422 154.199 66.3455 153.396 67.4747 153.396H67.4902ZM67.4902 153.674C66.9642 153.674 66.6084 154.168 66.562 155.28H67.9542C68.2327 155.28 68.2636 155.203 68.2636 154.94C68.2636 154.138 67.9852 153.69 67.4902 153.69V153.674Z" fill="black" stroke="black" stroke-width="0.171899"/>
<path d="M75.3475 157.75H74.6978C74.5586 157.75 74.5586 157.704 74.5895 157.565C74.6359 157.333 74.6514 157.179 74.6514 156.253V154.987C74.6514 154.215 74.4967 153.813 74.0481 153.813C73.5995 153.813 73.12 154.431 73.0891 155.496V156.392C73.0891 157.194 73.12 157.364 73.1509 157.58C73.1819 157.719 73.1664 157.766 73.0427 157.766H72.393C72.2537 157.766 72.2537 157.719 72.2847 157.58C72.3311 157.395 72.3466 157.256 72.3466 156.7V154.894C72.3311 154.23 72.1764 153.813 71.7433 153.813C71.3102 153.813 70.7842 154.462 70.7842 155.573V156.253C70.7842 157.179 70.8152 157.333 70.8461 157.565C70.877 157.704 70.8616 157.75 70.7378 157.75H70.0881C69.9489 157.75 69.9334 157.704 69.9798 157.565C70.0108 157.364 70.0417 157.225 70.0417 156.623V154.832C70.0417 154.369 69.9798 153.829 69.9334 153.628C69.9025 153.535 69.9334 153.473 70.0417 153.473H70.2119C70.645 153.473 70.7842 153.612 70.7997 154.354C71.0163 153.705 71.4803 153.381 72.0062 153.381C72.5322 153.381 72.9653 153.705 73.0736 154.431C73.2592 153.736 73.7233 153.381 74.2956 153.381C74.868 153.381 75.4094 153.844 75.4094 154.956V156.345C75.4094 157.148 75.4403 157.318 75.4867 157.534C75.5177 157.673 75.4867 157.719 75.3784 157.719L75.3475 157.75Z" fill="black" stroke="black" stroke-width="0.171899"/>
<path d="M78.9987 153.473H79.6948C79.8186 153.473 79.834 153.504 79.8186 153.628C79.7722 153.875 79.7722 154.323 79.7722 154.832V156.669C79.7722 157.333 79.8959 157.611 79.8959 157.673C79.8959 157.735 79.865 157.766 79.7722 157.766H79.6639C79.2926 157.766 79.0915 157.534 79.0297 156.963C78.8286 157.457 78.4264 157.796 77.854 157.796C77.2817 157.796 76.6165 157.38 76.6165 156.391V154.925C76.6165 154.4 76.5547 153.829 76.4928 153.628C76.4618 153.535 76.4773 153.473 76.5856 153.473H77.2817C77.39 153.473 77.4209 153.504 77.39 153.628C77.3436 153.875 77.3436 154.323 77.3436 154.832V156.314C77.3436 156.978 77.5292 157.41 77.9933 157.41C78.4573 157.41 78.349 157.364 78.5037 157.225C78.7976 156.963 79.0142 156.438 79.0142 155.342V154.832C79.0142 154.323 78.9523 153.813 78.8904 153.628C78.8595 153.535 78.875 153.473 78.9833 153.473H78.9987ZM79.0451 152.948H77.2972C77.2198 152.948 77.1579 152.902 77.1579 152.81V152.701C77.1579 152.609 77.2043 152.562 77.2817 152.562H79.0297C79.107 152.562 79.1689 152.593 79.1689 152.686V152.794C79.1689 152.887 79.1225 152.933 79.0297 152.933L79.0451 152.948Z" fill="black" stroke="black" stroke-width="0.171899"/>
<path d="M84.2427 156.7C84.2427 157.349 84.3665 157.611 84.3665 157.673C84.3665 157.735 84.3201 157.766 84.2427 157.766H84.1344C83.7632 157.766 83.5466 157.534 83.5002 156.932C83.4229 157.133 83.3146 157.287 83.1908 157.426C82.9433 157.658 82.6649 157.797 82.2782 157.797C81.4583 157.797 80.7932 157.21 80.7932 155.79C80.7932 154.369 81.4738 153.396 82.603 153.396C83.7322 153.396 83.2837 153.551 83.4847 153.736V152.964C83.4847 152.424 83.4383 151.945 83.3919 151.76C83.361 151.667 83.3919 151.605 83.5002 151.605H84.0416C84.1963 151.605 84.2427 151.667 84.2427 151.852V156.7ZM82.4947 157.411C83.098 157.411 83.4383 156.886 83.5002 155.666V154.153C83.3301 153.906 83.0516 153.752 82.6958 153.752C81.9379 153.752 81.613 154.632 81.613 155.79C81.613 156.947 81.876 157.411 82.4793 157.411H82.4947Z" fill="black" stroke="black" stroke-width="0.171899"/>
<path d="M87.0273 153.396C88.1255 153.396 88.5277 154.107 88.5277 155.141C88.5277 156.176 88.4813 155.589 88.3576 155.589H86.0837C86.0837 157.025 86.5477 157.472 87.414 157.472C88.2802 157.472 88.0482 157.395 88.3266 157.256C88.3885 157.225 88.4349 157.225 88.4659 157.287L88.4968 157.364C88.5277 157.426 88.5123 157.457 88.4504 157.503C88.141 157.689 87.7079 157.812 87.2284 157.812C86.0373 157.812 85.2793 157.04 85.2793 155.62C85.2793 154.199 85.8826 153.396 87.0118 153.396H87.0273ZM87.0273 153.674C86.5013 153.674 86.1455 154.168 86.0991 155.28H87.4913C87.7698 155.28 87.8007 155.203 87.8007 154.94C87.8007 154.138 87.5223 153.69 87.0273 153.69V153.674Z" fill="black" stroke="black" stroke-width="0.171899"/>
<path d="M92.6896 157.751H92.04C91.9162 157.751 91.9007 157.704 91.9317 157.565C91.9781 157.349 91.9935 157.179 91.9935 156.361V155.08C91.9935 154.246 91.8079 153.814 91.3593 153.814C90.6168 153.814 90.3229 154.771 90.3229 155.913V156.253C90.3229 157.179 90.3539 157.334 90.3848 157.565C90.4157 157.704 90.4003 157.751 90.2765 157.751H89.6268C89.4876 157.751 89.4721 157.704 89.5185 157.565C89.565 157.334 89.5804 157.179 89.5804 156.253V154.786C89.5804 154.338 89.5185 153.814 89.4721 153.644C89.4412 153.551 89.4721 153.489 89.5804 153.489H89.7506C90.1992 153.489 90.3229 153.644 90.3384 154.4C90.5395 153.844 90.9417 153.412 91.6223 153.412C92.3029 153.412 92.767 153.891 92.767 155.018V156.376C92.767 157.195 92.7824 157.365 92.8289 157.581C92.8598 157.72 92.8443 157.766 92.7206 157.766L92.6896 157.751Z" fill="black" stroke="black" stroke-width="0.171899"/>
<path d="M95.1323 157.457C95.6427 157.457 95.9057 157.195 95.9057 156.778C95.9057 155.62 93.771 156.145 93.771 154.616C93.771 153.088 94.2815 153.397 95.1477 153.397C96.014 153.397 96.1841 153.644 96.3388 153.798C96.4007 153.86 96.4162 153.906 96.3852 153.999L96.2305 154.493C96.2151 154.539 96.1996 154.555 96.1532 154.555H96.1068C96.0604 154.555 96.0294 154.524 96.0294 154.477C95.9212 154.014 95.5963 153.705 95.0859 153.705C94.5754 153.705 94.3898 153.999 94.3898 154.354C94.3898 155.45 96.509 154.91 96.509 156.546C96.509 158.183 96.014 157.797 95.1013 157.797C94.1887 157.797 94.0185 157.596 93.8484 157.457C93.771 157.395 93.7555 157.334 93.771 157.256L93.9257 156.67C93.9412 156.593 93.9566 156.593 94.0185 156.593H94.0649C94.1113 156.593 94.1423 156.593 94.1732 156.701C94.2969 157.241 94.6837 157.457 95.1632 157.457H95.1323Z" fill="black" stroke="black" stroke-width="0.171899"/>
<path d="M99.8823 159.742H99.2326C99.0934 159.742 99.0779 159.696 99.1243 159.557C99.1707 159.325 99.1862 159.171 99.1862 158.244V154.925C99.1862 154.446 99.1398 153.829 99.0779 153.628C99.0469 153.535 99.0779 153.473 99.1862 153.473H99.3563C99.8049 153.473 99.9441 153.628 99.9441 154.415V154.477C100.068 153.921 100.501 153.381 101.213 153.381C101.924 153.381 102.605 153.983 102.605 155.542C102.605 157.102 101.862 157.781 100.749 157.827C100.408 157.827 100.13 157.75 99.9287 157.642V158.244C99.9287 159.171 99.9596 159.325 99.9905 159.557C100.021 159.696 100.006 159.742 99.8823 159.742ZM100.965 153.813C100.439 153.813 99.9905 154.369 99.9287 155.743V157.21C100.145 157.395 100.439 157.472 100.687 157.472C101.336 157.472 101.8 157.009 101.8 155.589C101.8 154.168 101.445 153.813 100.95 153.813H100.965Z" fill="black" stroke="black" stroke-width="0.171899"/>
<path d="M105.172 153.396C106.27 153.396 106.672 154.107 106.672 155.141C106.672 156.176 106.626 155.589 106.502 155.589H104.228C104.228 157.025 104.692 157.472 105.558 157.472C106.425 157.472 106.193 157.395 106.471 157.256C106.533 157.225 106.579 157.225 106.61 157.287L106.641 157.364C106.672 157.426 106.657 157.457 106.595 157.503C106.286 157.689 105.852 157.812 105.373 157.812C104.182 157.812 103.424 157.04 103.424 155.62C103.424 154.199 104.027 153.396 105.156 153.396H105.172ZM105.172 153.674C104.646 153.674 104.29 154.168 104.244 155.28H105.636C105.914 155.28 105.945 155.203 105.945 154.94C105.945 154.138 105.667 153.69 105.172 153.69V153.674Z" fill="black" stroke="black" stroke-width="0.171899"/>
<path d="M108.406 157.751H107.756C107.632 157.751 107.601 157.704 107.648 157.565C107.694 157.334 107.71 157.179 107.71 156.253V152.98C107.71 152.439 107.663 151.961 107.617 151.775C107.586 151.683 107.617 151.621 107.725 151.621H108.267C108.421 151.621 108.468 151.683 108.468 151.868V156.284C108.468 157.179 108.499 157.349 108.529 157.565C108.56 157.704 108.545 157.751 108.421 157.751H108.406Z" fill="black" stroke="black" stroke-width="0.171899"/>
<path d="M112.922 156.7C112.922 157.349 113.046 157.611 113.046 157.673C113.046 157.735 113 157.766 112.922 157.766H112.814C112.443 157.766 112.226 157.534 112.18 156.932C112.102 157.133 111.994 157.287 111.87 157.426C111.623 157.658 111.344 157.797 110.958 157.797C110.138 157.797 109.473 157.21 109.473 155.79C109.473 154.369 110.153 153.396 111.283 153.396C112.412 153.396 111.963 153.551 112.164 153.736V152.964C112.164 152.424 112.118 151.945 112.071 151.76C112.04 151.667 112.071 151.605 112.18 151.605H112.721C112.876 151.605 112.922 151.667 112.922 151.852V156.7ZM111.174 157.411C111.778 157.411 112.118 156.886 112.18 155.666V154.153C112.01 153.906 111.731 153.752 111.375 153.752C110.617 153.752 110.293 154.632 110.293 155.79C110.293 156.947 110.555 157.411 111.159 157.411H111.174Z" fill="black" stroke="black" stroke-width="0.171899"/>
<path d="M115.707 153.396C116.805 153.396 117.207 154.106 117.207 155.141C117.207 156.175 117.161 155.589 117.037 155.589H114.763C114.763 157.024 115.227 157.472 116.094 157.472C116.96 157.472 116.728 157.395 117.006 157.256C117.068 157.225 117.115 157.225 117.146 157.287L117.176 157.364C117.207 157.426 117.192 157.457 117.13 157.503C116.821 157.688 116.388 157.812 115.908 157.812C114.717 157.812 113.959 157.04 113.959 155.619C113.959 154.199 114.562 153.396 115.691 153.396H115.707ZM115.707 153.674C115.181 153.674 114.825 154.168 114.779 155.28H116.171C116.449 155.28 116.48 155.203 116.48 154.94C116.48 154.137 116.202 153.69 115.707 153.69V153.674ZM116.573 152.948H114.825C114.748 152.948 114.686 152.902 114.686 152.81V152.701C114.686 152.609 114.732 152.562 114.81 152.562H116.558C116.635 152.562 116.697 152.593 116.697 152.686V152.794C116.697 152.887 116.651 152.933 116.558 152.933L116.573 152.948Z" fill="black" stroke="black" stroke-width="0.171899"/>
<path d="M119.388 157.457C119.899 157.457 120.162 157.195 120.162 156.778C120.162 155.62 118.027 156.145 118.027 154.617C118.027 153.088 118.537 153.397 119.404 153.397C120.27 153.397 120.44 153.644 120.579 153.798C120.641 153.86 120.657 153.906 120.626 153.999L120.471 154.493C120.456 154.539 120.44 154.555 120.394 154.555H120.347C120.301 154.555 120.27 154.524 120.27 154.478C120.162 154.014 119.837 153.706 119.326 153.706C118.816 153.706 118.63 153.999 118.63 154.354C118.63 155.45 120.749 154.91 120.749 156.546C120.749 158.183 120.254 157.797 119.342 157.797C118.429 157.797 118.259 157.596 118.089 157.457C118.011 157.396 117.996 157.334 118.011 157.257L118.166 156.67C118.182 156.593 118.197 156.593 118.259 156.593H118.305C118.352 156.593 118.383 156.593 118.414 156.701C118.537 157.241 118.924 157.457 119.404 157.457H119.388ZM119.373 152.934C119.326 152.934 119.28 152.903 119.203 152.826L118.274 151.93C118.213 151.884 118.305 151.714 118.383 151.745L119.373 152.27L120.347 151.745C120.44 151.699 120.533 151.853 120.456 151.93L119.543 152.826C119.466 152.903 119.404 152.934 119.373 152.934Z" fill="black" stroke="black" stroke-width="0.171899"/>
<path d="M124.663 157.766H124.555C124.23 157.766 124.013 157.581 123.936 157.102C123.75 157.519 123.379 157.797 122.73 157.797C122.08 157.797 121.477 157.473 121.477 156.67C121.477 155.867 122.188 155.357 123.565 155.357H123.905V155.095C123.905 154.091 123.565 153.752 122.992 153.752C122.42 153.752 122.219 154.014 122.064 154.385C122.018 154.477 122.003 154.493 121.956 154.493H121.894C121.863 154.493 121.848 154.462 121.817 154.385L121.755 153.937C121.724 153.844 121.74 153.783 121.832 153.721C121.956 153.628 122.436 153.412 123.023 153.412C124.029 153.412 124.663 153.968 124.663 155.249V156.67C124.663 157.334 124.771 157.612 124.771 157.673C124.771 157.735 124.74 157.766 124.663 157.766ZM122.25 156.623C122.25 157.179 122.513 157.442 122.931 157.442C123.565 157.442 123.905 156.871 123.921 156.284V155.651H123.596C122.59 155.651 122.25 155.99 122.25 156.639V156.623Z" fill="black" stroke="black" stroke-width="0.171899"/>
<path d="M129.01 157.751H128.36C128.237 157.751 128.221 157.704 128.252 157.565C128.299 157.349 128.314 157.179 128.314 156.361V155.08C128.314 154.246 128.128 153.814 127.68 153.814C126.937 153.814 126.643 154.771 126.643 155.913V156.253C126.643 157.179 126.674 157.334 126.705 157.565C126.736 157.704 126.721 157.751 126.597 157.751H125.947C125.808 157.751 125.793 157.704 125.839 157.565C125.885 157.334 125.901 157.179 125.901 156.253V154.786C125.901 154.338 125.839 153.814 125.793 153.644C125.762 153.551 125.793 153.489 125.901 153.489H126.071C126.52 153.489 126.643 153.644 126.659 154.4C126.86 153.844 127.262 153.412 127.943 153.412C128.623 153.412 129.087 153.891 129.087 155.018V156.376C129.087 157.195 129.103 157.365 129.149 157.581C129.18 157.72 129.165 157.766 129.041 157.766L129.01 157.751Z" fill="black" stroke="black" stroke-width="0.171899"/>
<path d="M133.187 157.766H133.078C132.753 157.766 132.537 157.581 132.46 157.102C132.274 157.519 131.903 157.797 131.253 157.797C130.603 157.797 130 157.473 130 156.67C130 155.867 130.712 155.357 132.088 155.357H132.429V155.095C132.429 154.091 132.088 153.752 131.516 153.752C130.944 153.752 130.742 154.014 130.588 154.385C130.541 154.477 130.526 154.493 130.48 154.493H130.418C130.387 154.493 130.371 154.462 130.34 154.385L130.278 153.937C130.247 153.844 130.263 153.783 130.356 153.721C130.48 153.628 130.959 153.412 131.531 153.412C132.537 153.412 133.171 153.968 133.171 155.249V156.67C133.171 157.334 133.279 157.612 133.279 157.673C133.279 157.735 133.248 157.766 133.171 157.766H133.187ZM130.758 156.623C130.758 157.179 131.021 157.442 131.439 157.442C132.073 157.442 132.413 156.871 132.429 156.284V155.651H132.104C131.098 155.651 130.758 155.99 130.758 156.639V156.623Z" fill="black" stroke="black" stroke-width="0.171899"/>
<path d="M91.2495 93.1681C91.6981 93.3379 92.1312 93.4923 92.518 93.6467C92.518 93.6467 96.1222 94.6657 97.6227 95.6075C98.6436 96.5956 99.7419 96.7192 100.948 95.9781C101.521 95.6538 102.155 95.623 102.805 95.6538C102.836 95.6538 102.882 95.6538 102.913 95.6384C103.3 95.5612 103.655 95.484 103.748 94.9591C103.965 93.7857 103.516 92.7049 102.48 92.0256C101.32 91.6705 100.113 91.6242 98.922 91.5779C98.4889 91.5624 98.0713 91.547 97.6381 91.5161C97.2823 91.4852 96.8647 91.2845 96.4934 91.1147C96.447 91.0838 96.3852 91.0684 96.3388 91.0375C95.4725 90.6206 94.993 90.3736 94.3588 90.0339C94.1267 89.9104 93.8638 89.7715 93.5698 89.6171C93.5698 89.6171 91.1877 88.2738 91.4352 87.4401C91.6827 86.9152 92.1467 87.1004 92.3633 87.3166C92.8428 87.8261 93.8328 88.4128 94.498 88.7988C94.5289 88.8142 94.5598 88.8296 94.5908 88.8605C95.1631 89.2002 95.7355 89.8332 96.2614 90.4045C96.447 90.6052 96.6172 90.7904 96.7873 90.9603C97.9475 92.1491 99.8347 90.8213 100.639 89.8178C101.103 89.1076 100.314 87.9959 100.314 87.9959C100.314 87.9959 99.1386 86.6836 98.1022 86.4674C97.5453 86.3594 96.973 86.1432 96.8028 85.4639C96.8028 85.2477 96.6636 85.1705 96.478 85.1242C95.0548 84.9081 94.73 83.8582 94.498 82.6385C94.3897 82.0672 94.6991 81.4342 94.993 80.8321C95.3642 80.0756 95.72 79.3499 95.2869 78.7323C94.9156 78.2228 95.2095 77.8832 95.6427 77.667C95.6891 77.6361 95.7509 77.6207 95.7973 77.5898C96.1995 77.3737 96.6481 77.1421 97.0348 77.4663C97.2359 77.6361 97.1431 77.914 97.0348 78.2228C96.9266 78.5471 96.8028 78.9022 96.9884 79.211C97.2514 79.6278 97.5608 79.9984 98.1177 79.5815C98.2569 79.3808 98.5198 79.3653 98.6281 79.458C99.2778 80.0447 99.8038 79.705 100.314 79.2727C100.33 79.2727 100.345 79.2418 100.361 79.2418C100.624 79.0411 100.887 78.8404 100.825 78.4235C100.825 78.4235 100.825 78.4081 100.825 78.3927C100.794 78.2228 100.763 77.9912 100.979 77.914C101.196 77.8369 101.289 77.9604 101.382 78.0993C101.413 78.1456 101.443 78.192 101.49 78.2383C102.031 78.7632 102.294 78.7478 102.913 78.1611C102.913 77.6516 103.114 77.2502 103.563 77.0031C104.12 76.6789 104.15 76.2775 103.826 75.7834C103.671 75.7062 103.686 75.5673 103.717 75.4438C103.717 74.9497 103.408 74.9343 103.114 74.9188C103.006 74.9188 102.898 74.9188 102.789 74.8725C102.758 74.8725 102.743 74.8571 102.712 74.8416C102.542 74.7953 102.403 74.749 102.372 74.5483C102.341 74.3167 102.495 74.1932 102.696 74.1468C103.331 73.977 103.331 73.5293 103.176 73.0352C102.959 72.3868 103.037 71.7846 103.207 71.1053C103.454 70.1172 103.532 69.0827 102.959 68.1255C102.387 67.1992 101.397 65.9022 100.314 65.5471C98.3806 64.9141 96.6636 65.1148 94.8538 65.9022C92.6263 66.8749 91.6208 69.3452 92.5644 70.92C92.8119 71.1362 92.8428 71.4604 92.6263 71.6148C92.3169 71.8309 91.9147 71.831 91.5898 71.5685C91.1567 71.059 90.6617 70.6267 89.9811 70.5958C88.3569 70.5186 86.7481 70.5649 85.4178 71.7229C84.4278 72.0471 81.5661 72.7573 79.2613 73.3286C78.0856 73.6219 77.0492 73.8844 76.4614 74.0388C76.2913 74.0851 75.8891 74.1623 75.3477 74.2704C72.5788 74.8107 66.0355 76.0768 66.5459 77.6207C66.5923 77.7751 66.7161 77.914 66.8244 78.053C67.0255 78.3 67.2266 78.5316 67.01 78.7786C66.7934 79.0257 66.5459 79.0257 66.2984 78.8095C65.7725 78.2537 65.1228 78.1456 64.3494 78.439C64.303 78.4544 64.2566 78.4699 64.2256 78.5007C63.9627 78.6088 63.6688 78.7478 63.4522 78.5007C63.282 78.3155 63.3594 78.1302 63.4522 77.9295C63.4522 77.9295 63.4522 77.914 63.4522 77.8986C63.5914 77.5744 63.777 77.2656 63.9781 76.9722C64.1483 76.7098 64.303 76.4473 64.4422 76.1694C64.7052 75.629 64.6433 75.1813 64.272 74.7953C63.6688 74.1777 62.9263 73.8072 62.0291 73.9461C61.5805 74.0233 61.1473 74.1469 61.1783 74.749C61.1783 74.9188 61.1473 75.1041 60.9308 75.1195C60.807 75.1195 60.7606 75.0423 60.6987 74.9497C60.6833 74.9188 60.6678 74.8879 60.6369 74.8571C60.0955 74.1777 59.8944 74.1469 59.2137 74.6718C58.4558 75.243 57.8216 76.5708 57.4503 77.42C57.3884 77.5589 57.3111 77.6979 57.2492 77.8214C57.0017 78.2692 56.7388 78.7323 57.1409 79.2881C57.1409 79.3345 57.1409 79.3653 57.1564 79.4117C57.1564 79.458 57.1719 79.5043 57.1719 79.5661C57.6978 80.0138 58.1309 79.8903 58.3939 79.705C58.332 79.7976 58.3011 79.8903 58.3166 80.0292C58.4248 80.9093 57.9298 81.1563 57.1719 81.1409C56.5377 81.1409 55.9189 81.357 55.2847 81.5732C54.8361 81.743 54.372 81.8974 53.8925 81.9746C52.6705 82.1753 52.9334 83.9354 53.2738 84.6456C53.382 84.8926 53.6759 85.7881 53.1036 85.6646C52.6395 85.4484 52.3302 84.8926 52.0517 84.3523C51.897 84.0743 51.7578 83.7964 51.5877 83.5957C51.17 83.0862 50.7523 82.7774 50.3038 82.4532C50.0253 82.2525 49.7469 82.0518 49.4375 81.7739C49.2519 81.604 49.0662 81.4496 48.8806 81.2953C48.0917 80.6468 47.3956 80.0756 47.21 78.9485C47.1636 78.7015 47.1636 78.4544 47.1481 78.2228C47.1172 77.4972 47.0863 76.8179 46.2355 76.4164C40.7389 75.5004 36.2633 74.7284 32.8086 74.1005C32.4528 74.0388 32.128 73.977 31.8031 73.9153C29.9005 73.5602 28.5547 73.2977 26.3581 73.4212C24.1461 73.5293 22.5373 74.1623 21.207 75.768C20.4181 76.8796 20.4645 78.0067 21.1606 79.1338C23.4191 82.7466 30.0706 82.129 33.6439 81.6504C33.6903 81.6504 33.7522 81.6349 33.8141 81.6195C34.1389 81.5577 34.5566 81.4805 34.6803 81.882C34.8195 82.3143 32.4528 83.3487 31.2927 83.8582C31.0297 83.9817 30.8131 84.0589 30.7203 84.1052C30.2872 84.2905 29.8386 84.4758 29.4055 84.6456C27.9669 85.2323 26.5283 85.819 25.198 86.6373C24.672 87.0233 24.1925 87.7489 25.2289 87.8261C26.3736 87.9033 28.5702 87.332 28.5702 87.332C29.0652 87.2085 29.5756 87.085 30.0861 86.9615C32.7003 86.3439 35.4073 85.6955 37.7586 84.4294C38.0216 84.3059 38.2845 84.167 38.5166 84.0435C39.6148 83.4722 40.5584 82.9936 42.0125 82.8238H42.0434C43.0798 82.7002 44.7659 82.4841 45.4002 83.4876C46.22 84.7537 46.7459 86.066 47.2719 87.3629C47.705 88.4282 48.1381 89.4935 48.7259 90.5125C49.1745 91.4852 49.9016 92.1337 50.8916 92.6123C51.9125 93.0909 52.8252 93.7239 53.4594 94.7738C53.5367 94.8973 53.6295 95.0208 53.7378 95.1289C53.5058 94.5268 53.3047 93.8011 53.1345 92.952C52.6859 90.8522 52.9489 89.6016 53.5058 88.8605C54.0008 88.1966 54.6814 88.0268 54.9134 87.9496C55.4394 87.8107 55.9498 87.6717 56.4758 87.5173C56.7388 87.4401 56.9863 87.3784 57.2492 87.3012L80.2977 81.1872C80.3286 81.1872 80.4059 81.1563 80.5452 81.1254C80.6998 81.0945 80.9164 81.0482 81.1794 81.0174C81.7053 80.9402 82.4169 80.8938 83.1903 81.0019C83.9637 81.11 84.7991 81.357 85.5261 81.8974C86.2686 82.4532 86.8719 83.2715 87.2122 84.4758C87.6144 85.8807 87.6299 87.0078 87.3823 87.9342C87.1813 88.737 86.7945 89.3392 86.3459 89.8023C86.3459 90.3118 86.578 90.7596 86.9956 91.1919C87.9702 92.1028 89.7181 92.7358 91.2186 93.2762L91.2495 93.1681Z" fill="black"/>
<path fill-rule="evenodd" clip-rule="evenodd" d="M54.2175 89.3078C53.8926 89.7401 53.5833 90.6819 54.0009 92.6582C54.5578 95.2983 55.2848 96.3019 55.9345 96.657C56.5533 96.9966 57.2184 96.8731 58.0692 96.7033C58.1311 96.7033 58.1929 96.6724 58.2548 96.6724L68.3869 94.0014C67.9537 93.0596 67.3969 91.423 67.0101 89.9717C66.6698 88.6903 66.5306 87.4706 66.4842 86.5596C66.4687 86.2354 66.4533 85.9575 66.4533 85.7259L57.435 88.119L55.192 88.752C55.1611 88.752 55.1301 88.7675 55.0837 88.7829C54.8362 88.8601 54.4804 88.9527 54.1865 89.3387L54.2175 89.3078ZM71.1248 93.2758L69.6089 93.6772C69.2376 92.9361 68.6344 91.2378 68.2167 89.6475C67.9073 88.4741 67.7836 87.3316 67.7372 86.4825C67.7217 86.0502 67.7062 85.7105 67.7062 85.4635C67.7062 85.4326 67.7062 85.4017 67.7062 85.3863L77.8537 82.6998C77.8537 82.916 77.8537 83.163 77.8692 83.4409C77.9001 84.3055 78.0239 85.4943 78.3333 86.7604C78.72 88.3043 79.3851 90.0644 79.8956 91.0679L71.1248 93.2912V93.2758ZM81.1331 90.7283L83.6236 90.0952H83.639C83.639 90.0952 83.639 90.0952 83.67 90.0952C83.7009 90.0952 83.7319 90.0953 83.7937 90.0644C83.902 90.0335 84.0567 90.0026 84.2269 89.9254C84.5826 89.7865 85.0467 89.5549 85.4644 89.1843C85.882 88.8138 86.2378 88.3043 86.4234 87.5786C86.609 86.853 86.6245 85.8958 86.2533 84.6143C85.9593 83.6107 85.4644 82.9623 84.9075 82.53C84.3351 82.1131 83.67 81.897 83.0048 81.8043C82.3397 81.7117 81.7054 81.758 81.2414 81.8198C81.0094 81.8507 80.8237 81.8815 80.6845 81.9124C80.6226 81.9124 80.5762 81.9433 80.5298 81.9433C80.5143 81.9433 80.4989 81.9433 80.4989 81.9433L79.1067 82.3138C79.1067 82.3293 79.1067 82.3601 79.1067 82.3756C79.1067 82.6072 79.1067 82.9314 79.1067 83.3328C79.1376 84.1357 79.2459 85.2319 79.5398 86.4053C79.9575 88.0573 80.7 89.91 81.1331 90.6974V90.7283Z" fill="black"/>
<path d="M0.851562 105.674C4.06906 107.712 7.19375 108.484 10.7516 109.703C13.1956 110.537 14.0773 111.51 16.707 111.51C19.3367 111.51 21.7808 110.105 23.9309 109.703C26.3441 109.24 29.608 108.762 32.3305 109.41C38.7036 110.923 43.4525 113.085 48.3561 115.771C53.0895 118.365 55.8739 122.379 59.8494 123.475C63.1442 124.386 66.0987 126.1 69.2698 127.335C71.5283 128.215 73.9105 128.632 76.3081 128.756C79.5256 128.925 82.5266 127.752 85.2181 126.007C88.25 124.047 90.1527 122.642 92.3338 121.808C94.453 120.99 97.2219 121.407 98.4594 121.391C102.187 121.36 103.595 118.303 107.184 118.149C108.808 118.087 111.732 118.72 114.655 118.566C116.14 118.488 116.945 118.257 118.43 118.149C123.055 117.84 127.541 118.241 132.042 119.245C135.167 119.94 138.972 121.098 142.205 120.557C145.67 119.986 148.686 118.581 152.399 118.566C154.178 118.566 156.019 118.041 157.751 119.245C159.669 120.557 160.412 120.526 162.268 121.36C164.882 122.534 167.558 123.383 170.405 123.321C173.514 123.244 174.272 122.811 178.804 123.074C181.48 123.043 186.879 122.673 189.539 122.827C191.473 122.935 192.37 123.475 194.242 123.923" stroke="black" stroke-width="1.20329" stroke-linecap="round"/>
<path d="M197.999 62.4893C196.329 63.0914 134.345 82.8383 103.578 92.6423M104.089 94.9119L197.999 106.8" stroke="black" stroke-width="0.567265" stroke-linecap="round"/>
<path d="M0.695312 76.4931C1.345 76.1689 3.00016 75.011 4.96469 73.7141C9.20312 70.935 12.2969 70.796 16.3806 67.4302C18.1131 65.9944 19.428 64.9908 20.5572 63.5241C21.5936 62.2118 22.5836 60.7605 23.7592 59.2165C27.085 54.8472 28.075 51.2498 30.4727 47.4054C31.8494 45.1976 33.0095 42.7273 34.7266 40.7665C37.0159 38.1727 37.9286 37.2927 42.0587 35.9186C45.2298 35.4091 48.6794 36.3663 51.7886 35.4091C56.9861 32.9851 63.0344 28.7393 66.5612 24.6015C67.938 22.9959 70.7533 19.4757 70.7533 19.4757C70.7533 19.4757 76.6159 10.5981 78.5959 5.98172C79.6478 3.51142 80.8234 -0.579997 83.4377 1.56607C84.9072 2.77034 85.2939 5.70381 85.6033 7.44845C86.222 10.8914 87.4131 14.6123 90.5687 16.6349C92.5487 17.9009 93.9873 18.8272 96.1994 19.7382C98.2567 20.5873 100.345 21.2358 102.418 22.0849C106.13 23.598 106.115 27.1336 109.131 29.6193C112.271 32.2131 116.974 32.9851 120.64 34.4827C123.192 35.5326 125.807 36.8604 128.189 38.2499C134.144 41.5231 134.655 44.0242 139.682 44.5955C144.06 45.3366 148.685 44.9506 153.109 44.9506C157.533 44.9506 156.28 44.2713 158.987 43.8544C160.085 43.6846 159.497 44.7344 160.24 45.105C161.493 45.7226 163.952 47.1121 166.706 46.8651C168.995 46.6489 172.77 46.3247 176.776 45.6145C180.643 44.9197 183.412 44.0242 186.846 43.2677C188.61 42.7582 190.775 43.3912 191.966 42.1715C192.879 41.2451 194.967 39.9019 197.319 40.1644" stroke="black" stroke-width="1.20329" stroke-linecap="round"/>
</g>
</g>
<defs>
<clipPath id="clip0_19_389">
<rect width="198" height="160" fill="white" transform="translate(0 0.222656)"/>
</clipPath>
</defs>
</svg>
