<svg width="80" height="68" viewBox="0 0 80 68" fill="none" xmlns="http://www.w3.org/2000/svg">
<path d="M0 1.49414C10.0032 1.49414 10.0032 6.51914 20.0063 6.51914C30.0095 6.51914 30.0095 1.49414 39.9873 1.49414C49.9651 1.49414 49.9905 6.51914 59.9937 6.51914C69.9968 6.51914 69.9968 1.49414 80 1.49414" stroke="white" stroke-width="2" stroke-miterlimit="10"/>
<path d="M0 14.8945C10.0032 14.8945 10.0032 19.9195 20.0063 19.9195C30.0095 19.9195 30.0095 14.8945 39.9873 14.8945C49.9651 14.8945 49.9905 19.9195 59.9937 19.9195C69.9968 19.9195 69.9968 14.8945 80 14.8945" stroke="white" stroke-width="2" stroke-miterlimit="10"/>
<path d="M0 28.3193C10.0032 28.3193 10.0032 33.3443 20.0063 33.3443C30.0095 33.3443 30.0095 28.3193 39.9873 28.3193C49.9651 28.3193 49.9905 33.3443 59.9937 33.3443C69.9968 33.3443 69.9968 28.3193 80 28.3193" stroke="white" stroke-width="2" stroke-miterlimit="10"/>
<path d="M40.1398 60.7027C46.1552 60.7027 51.0316 55.8282 51.0316 49.8152C51.0316 43.8022 46.1552 38.9277 40.1398 38.9277C34.1245 38.9277 29.248 43.8022 29.248 49.8152C29.248 55.8282 34.1245 60.7027 40.1398 60.7027Z" stroke="white" stroke-width="2" stroke-miterlimit="10"/>
<path d="M56.6419 66.3121L47.375 57.0488" stroke="white" stroke-width="2" stroke-miterlimit="10"/>
</svg>
