<svg width="80" height="62" viewBox="0 0 80 62" fill="none" xmlns="http://www.w3.org/2000/svg">
<path d="M0 1.49414C9.92562 1.49414 9.92562 6.48214 19.8512 6.48214C29.7769 6.48214 29.7769 1.49414 39.6773 1.49414C49.5777 1.49414 49.6029 6.48214 59.5285 6.48214C69.4542 6.48214 69.4542 1.49414 79.3798 1.49414" stroke="white" stroke-width="2" stroke-miterlimit="10"/>
<path d="M0 14.7949C9.92562 14.7949 9.92562 19.7829 19.8512 19.7829C29.7769 19.7829 29.7769 14.7949 39.6773 14.7949C49.5777 14.7949 49.6029 19.7829 59.5285 19.7829C69.4542 19.7829 69.4542 14.7949 79.3798 14.7949" stroke="white" stroke-width="2" stroke-miterlimit="10"/>
<path d="M0 28.1221C9.92562 28.1221 9.92562 33.1101 19.8512 33.1101C29.7769 33.1101 29.7769 28.1221 39.6773 28.1221C49.5777 28.1221 49.6029 33.1101 59.5285 33.1101C69.4542 33.1101 69.4542 28.1221 79.3798 28.1221" stroke="white" stroke-width="2" stroke-miterlimit="10"/>
<path d="M21.0352 50.7448C25.1667 44.8751 31.9685 41.0459 39.7024 41.0459C47.4364 41.0459 54.2382 44.9003 58.3445 50.7448" stroke="white" stroke-width="2" stroke-miterlimit="10"/>
<path d="M58.3445 50.7448C54.2634 56.6397 47.4364 60.4941 39.7024 60.4941C31.9685 60.4941 25.1667 56.6397 21.0352 50.7448C25.1667 44.8751 31.9685 41.0459 39.7024 41.0459C47.4364 41.0459 54.2382 44.9003 58.3445 50.7448Z" stroke="white" stroke-width="2" stroke-miterlimit="10"/>
<path d="M39.6765 55.6313C42.3617 55.6313 44.5385 53.4545 44.5385 50.7693C44.5385 48.084 42.3617 45.9072 39.6765 45.9072C36.9913 45.9072 34.8145 48.084 34.8145 50.7693C34.8145 53.4545 36.9913 55.6313 39.6765 55.6313Z" stroke="white" stroke-width="2" stroke-miterlimit="10"/>
</svg>
